{
.appVersion = "895";
classes = (
{
automatic = 1;

glyphs = (
{
glyphname = .notdef;
lastChange = "2016-07-26 11:06:05 +0000";
layers = (
{
layerId = UUID0;
paths = (
{
closed = 1;
nodes = (
"88 -222 LINE",
"694 -222 LINE",
"694 778 LINE",
"88 778 LINE"
);
},
{
closed = 1;
nodes = (
"201 674 LINE",
"581 674 LINE",
"581 -118 LINE",
"201 -118 LINE"
);
},
{
closed = 1;
nodes = (
"201 -69 LINE",
"201 -118 LINE",
"282 -118 LINE",
"581 624 LINE",
"581 674 LINE",
"500 674 LINE"
);
},
{
closed = 1;
nodes = (
"282 674 LINE",
"201 674 LINE",
"201 624 LINE",
"500 -118 LINE",
"581 -118 LINE",
"581 -69 LINE"
);
}
);
width = 782;
}
);
},
{
color = 3;
glyphname = A;
lastChange = "2016-08-02 13:18:43 +0000";
layers = (
{
anchors = (
{
name = bottom;
position = "{378, 0}";
},
{
name = ogonek;
position = "{625, 30}";
},
{
name = top;
position = "{378, 778}";
}
);
background = {
paths = (
{
closed = 1;
nodes = (
"311 778 LINE",
"482 164 LINE",
"774 164 LINE",
"575 778 LINE"
);
},
{
closed = 1;
nodes = (
"231 778 LINE",
"32 164 LINE",
"274 164 LINE",
"445 778 LINE"
);
},
{
closed = 1;
nodes = (
"-8 0 LINE",
"354 0 LINE",
"354 164 LINE",
"-8 164 LINE"
);
},
{
closed = 1;
nodes = (
"402 0 LINE",
"814 0 LINE",
"814 164 LINE",
"402 164 LINE"
);
},
{
closed = 1;
nodes = (
"279 244 LINE",
"485 244 LINE",
"485 370 LINE",
"279 370 LINE"
);
}
);
};
hints = (
{
place = "{13, 21}";
},
{
place = "{13, 21}";
}
);
layerId = UUID0;
paths = (
{
closed = 1;
nodes = (
"12 0 LINE",
"354 0 LINE",
"354 164 LINE",
"12 164 LINE"
);
},
{
closed = 1;
nodes = (
"402 0 LINE",
"794 0 LINE",
"794 164 LINE",
"402 164 LINE"
);
},
{
closed = 1;
nodes = (
"279 244 LINE",
"485 244 LINE",
"485 350 LINE",
"279 350 LINE"
);
},
{
closed = 1;
nodes = (
"221 778 LINE",
"52 164 LINE",
"294 164 LINE",
"373 549 LINE",
"383 549 LINE",
"462 164 LINE",
"754 164 LINE",
"585 778 LINE"
);
},
{
closed = 1;
nodes = (
"135 614 LINE",
"477 614 LINE",
"477 778 LINE",
"135 778 LINE"
);
}
);
width = 806;
}
);
unicode = 0041;
},
{
color = 3;
glyphname = B;
lastChange = "2016-08-02 11:53:04 +0000";
layers = (
{
anchors = (
{
name = top;
position = "{341, 778}";
}
);
layerId = UUID0;
paths = (
{
closed = 1;
nodes = (
"20 614 LINE",
"70 614 LINE",
"70 164 LINE",
"20 164 LINE",
"20 0 LINE",
"479 0 LINE SMOOTH",
"632 0 OFFCURVE",
"763 52 OFFCURVE",
"763 202 CURVE SMOOTH",
"763 352 OFFCURVE",
"638 377 OFFCURVE",
"578 383 CURVE",
"578 393 LINE",
"633 404 OFFCURVE",
"744 452 OFFCURVE",
"744 581 CURVE SMOOTH",
"744 710 OFFCURVE",
"643 778 OFFCURVE",
"479 778 CURVE SMOOTH",
"20 778 LINE"
);
},
{
closed = 1;
nodes = (
"350 450 LINE",
"350 614 LINE",
"404 614 LINE SMOOTH",
"442 614 OFFCURVE",
"462 595 OFFCURVE",
"462 550 CURVE SMOOTH",
"462 514 LINE SMOOTH",
"462 469 OFFCURVE",
"442 450 OFFCURVE",
"404 450 CURVE SMOOTH"
);
},
{
closed = 1;
nodes = (
"350 164 LINE",
"350 336 LINE",
"411 336 LINE SMOOTH",
"449 336 OFFCURVE",
"469 317 OFFCURVE",
"469 272 CURVE SMOOTH",
"469 228 LINE SMOOTH",
"469 183 OFFCURVE",
"449 164 OFFCURVE",
"411 164 CURVE SMOOTH"
);
}
);
width = 775;
},
{
associatedMasterId = UUID0;
layerId = "F30D96A4-CD19-4196-95FA-A6B2BC41DD3D";
name = "Regular Aug 2 16, 00:11";
paths = (
{
closed = 1;
nodes = (
"20 614 LINE",
"70 614 LINE",
"70 164 LINE",
"20 164 LINE",
"20 0 LINE",
"479 0 LINE SMOOTH",
"632 0 OFFCURVE",
"763 52 OFFCURVE",
"763 202 CURVE SMOOTH",
"763 352 OFFCURVE",
"638 377 OFFCURVE",
"578 383 CURVE",
"578 393 LINE",
"633 404 OFFCURVE",
"744 452 OFFCURVE",
"744 581 CURVE SMOOTH",
"744 710 OFFCURVE",
"643 778 OFFCURVE",
"479 778 CURVE SMOOTH",
"20 778 LINE"
);
},
{
closed = 1;
nodes = (
"350 450 LINE",
"350 614 LINE",
"404 614 LINE SMOOTH",
"442 614 OFFCURVE",
"462 595 OFFCURVE",
"462 550 CURVE SMOOTH",
"462 514 LINE SMOOTH",
"462 469 OFFCURVE",
"442 450 OFFCURVE",
"404 450 CURVE SMOOTH"
);
},
{
closed = 1;
nodes = (
"350 164 LINE",
"350 336 LINE",
"411 336 LINE SMOOTH",
"449 336 OFFCURVE",
"469 317 OFFCURVE",
"469 272 CURVE SMOOTH",
"469 228 LINE SMOOTH",
"469 183 OFFCURVE",
"449 164 OFFCURVE",
"411 164 CURVE SMOOTH"
);
}
);
width = 775;
visible = 1;
}
);
unicode = 0042;
},
{
color = 3;
glyphname = C;
lastChange = "2016-08-02 20:16:27 +0000";
layers = (
{
anchors = (
{
name = bottom;
position = "{386, 0}";
},
{
name = cedilla;
position = "{408, 0}";
},
{
name = top;
position = "{406, 778}";
}
);
background = {
paths = (
{
closed = 1;
nodes = (
"379 164 OFFCURVE",
"338 215 OFFCURVE",
"338 320 CURVE SMOOTH",
"338 550 LINE SMOOTH",
"338 595 OFFCURVE",
"358 614 OFFCURVE",
"396 614 CURVE SMOOTH",
"434 614 OFFCURVE",
"454 595 OFFCURVE",
"454 550 CURVE SMOOTH",
"454 498 LINE",
"674 498 LINE",
"674 728 LINE",
"674 728 OFFCURVE",
"561 792 OFFCURVE",
"396 792 CURVE SMOOTH",
"169 792 OFFCURVE",
"24 681 OFFCURVE",
"24 389 CURVE SMOOTH",
"24 97 OFFCURVE",
"169 -14 OFFCURVE",
"398 -14 CURVE SMOOTH",
"563 -14 OFFCURVE",
"668 46 OFFCURVE",
"668 46 CURVE",
"668 199 LINE",
"668 199 OFFCURVE",
"546 164 OFFCURVE",
"476 164 CURVE SMOOTH"
);
}
);
};
layerId = UUID0;
paths = (
{
closed = 1;
nodes = (
"464 238 LINE SMOOTH",
"464 186 OFFCURVE",
"441 164 OFFCURVE",
"396 164 CURVE SMOOTH",
"351 164 OFFCURVE",
"328 186 OFFCURVE",
"328 238 CURVE SMOOTH",
"328 540 LINE SMOOTH",
"328 592 OFFCURVE",
"351 614 OFFCURVE",
"396 614 CURVE SMOOTH",
"441 614 OFFCURVE",
"464 592 OFFCURVE",
"464 540 CURVE SMOOTH",
"464 468 LINE",
"704 468 LINE",
"704 718 LINE",
"658 750 OFFCURVE",
"544 792 OFFCURVE",
"406 792 CURVE SMOOTH",
"167 792 OFFCURVE",
"14 681 OFFCURVE",
"14 389 CURVE SMOOTH",
"14 97 OFFCURVE",
"167 -14 OFFCURVE",
"408 -14 CURVE SMOOTH",
"545 -14 OFFCURVE",
"658 28 OFFCURVE",
"704 60 CURVE",
"704 319 LINE",
"464 319 LINE"
);
}
);
width = 722;
}
);
unicode = 0043;
},
{
color = 3;
glyphname = D;
lastChange = "2016-08-02 20:17:13 +0000";
layers = (
{
anchors = (
{
name = bottom;
position = "{379, 0}";
},
{
name = top;
position = "{379, 778}";
}
);
background = {
paths = (
{
closed = 1;
nodes = (
"446 164 OFFCURVE",
"466 183 OFFCURVE",
"466 228 CURVE SMOOTH",
"466 550 LINE SMOOTH",
"466 595 OFFCURVE",
"446 614 OFFCURVE",
"408 614 CURVE SMOOTH",
"370 614 OFFCURVE",
"350 595 OFFCURVE",
"350 550 CURVE SMOOTH",
"350 228 LINE SMOOTH",
"350 183 OFFCURVE",
"370 164 OFFCURVE",
"408 164 CURVE SMOOTH"
);
},
{
closed = 1;
nodes = (
"780 97 OFFCURVE",
"635 -14 OFFCURVE",
"408 -14 CURVE SMOOTH",
"181 -14 OFFCURVE",
"36 97 OFFCURVE",
"36 389 CURVE SMOOTH",
"36 681 OFFCURVE",
"181 792 OFFCURVE",
"408 792 CURVE SMOOTH",
"635 792 OFFCURVE",
"780 681 OFFCURVE",
"780 389 CURVE SMOOTH"
);
}
);
};
layerId = UUID0;
paths = (
{
closed = 1;
nodes = (
"20 613 LINE",
"70 613 LINE",
"70 164 LINE",
"20 164 LINE",
"20 0 LINE",
"426 0 LINE SMOOTH",
"631 0 OFFCURVE",
"790 97 OFFCURVE",
"790 389 CURVE SMOOTH",
"790 681 OFFCURVE",
"631 778 OFFCURVE",
"426 778 CURVE SMOOTH",
"20 778 LINE"
);
},
{
closed = 1;
nodes = (
"350 164 LINE",
"350 614 LINE",
"408 614 LINE SMOOTH",
"451 614 OFFCURVE",
"476 592 OFFCURVE",
"476 540 CURVE SMOOTH",
"476 238 LINE SMOOTH",
"476 186 OFFCURVE",
"453 164 OFFCURVE",
"408 164 CURVE SMOOTH"
);
}
);
width = 804;
}
);
unicode = 0044;
},
{
color = 3;
glyphname = E;
lastChange = "2016-08-02 20:19:02 +0000";
layers = (
{
anchors = (
{
name = bottom;
position = "{383, 0}";
},
{
name = cedilla;
position = "{383, 0}";
},
{
name = ogonek;
position = "{571, 30}";
},
{
name = top;
position = "{383, 778}";
}
);
layerId = UUID0;
paths = (
{
closed = 1;
nodes = (
"471 476 LINE",
"695 476 LINE",
"695 778 LINE",
"20 778 LINE",
"20 614 LINE",
"70 614 LINE",
"70 164 LINE",
"20 164 LINE",
"20 0 LINE",
"695 0 LINE",
"695 322 LINE",
"471 322 LINE",
"471 164 LINE",
"350 164 LINE",
"350 342 LINE",
"438 342 LINE",
"438 456 LINE",
"350 456 LINE",
"350 614 LINE",
"471 614 LINE"
);
}
);
width = 713;
}
);
unicode = 0045;
},
{
color = 3;
glyphname = F;
lastChange = "2016-08-01 20:13:53 +0000";
layers = (
{
background = {
paths = (
{
closed = 1;
nodes = (
"430 492 LINE",
"638 492 LINE",
"638 778 LINE",
"11 778 LINE",
"11 611 LINE",
"70 611 LINE",
"70 176 LINE",
"11 176 LINE",
"11 0 LINE",
"458 0 LINE",
"458 176 LINE",
"359 176 LINE",
"359 334 LINE",
"445 334 LINE",
"445 469 LINE",
"359 469 LINE",
"359 611 LINE",
"430 611 LINE"
);
}
);
};
layerId = UUID0;
paths = (
{
closed = 1;
nodes = (
"441 519 LINE",
"618 519 LINE",
"618 778 LINE",
"20 778 LINE",
"20 614 LINE",
"70 614 LINE",
"70 164 LINE",
"20 164 LINE",
"20 0 LINE",
"481 0 LINE",
"481 164 LINE",
"350 164 LINE",
"350 334 LINE",
"501 334 LINE",
"501 448 LINE",
"350 448 LINE",
"350 614 LINE",
"441 614 LINE"
);
}
);
width = 632;
}
);
unicode = 0046;
},
{
color = 3;
glyphname = G;
lastChange = "2016-08-02 17:54:29 +0000";
layers = (
{
associatedMasterId = UUID0;
background = {
paths = (
{
closed = 1;
nodes = (
"-1117 270 LINE",
"-1063 270 LINE",
"-1067 208 OFFCURVE",
"-1081 176 OFFCURVE",
"-1120 176 CURVE SMOOTH",
"-1170 176 OFFCURVE",
"-1179 249 OFFCURVE",
"-1179 393 CURVE SMOOTH",
"-1179 538 OFFCURVE",
"-1170 611 OFFCURVE",
"-1120 611 CURVE SMOOTH",
"-1069 611 OFFCURVE",
"-1063 554 OFFCURVE",
"-1063 488 CURVE",
"-813 488 LINE",
"-813 693 LINE",
"-813 693 OFFCURVE",
"-919 799 OFFCURVE",
"-1128 799 CURVE SMOOTH",
"-1357 799 OFFCURVE",
"-1515 646 OFFCURVE",
"-1515 380 CURVE SMOOTH",
"-1515 151 OFFCURVE",
"-1374 -24 OFFCURVE",
"-1158 -24 CURVE SMOOTH",
"-1029 -24 OFFCURVE",
"-951 46 OFFCURVE",
"-951 46 CURVE",
"-935 0 LINE",
"-813 0 LINE",
"-812 270 LINE",
"-763 270 LINE",
"-763 399 LINE",
"-1117 399 LINE"
);
},
{
closed = 1;
nodes = (
"390 164 OFFCURVE",
"349 220 OFFCURVE",
"349 320 CURVE SMOOTH",
"349 550 LINE SMOOTH",
"349 595 OFFCURVE",
"369 614 OFFCURVE",
"407 614 CURVE SMOOTH",
"445 614 OFFCURVE",
"465 595 OFFCURVE",
"465 550 CURVE SMOOTH",
"465 498 LINE",
"685 498 LINE",
"685 728 LINE",
"685 728 OFFCURVE",
"572 792 OFFCURVE",
"407 792 CURVE SMOOTH",
"180 792 OFFCURVE",
"35 681 OFFCURVE",
"35 389 CURVE SMOOTH",
"35 97 OFFCURVE",
"180 -14 OFFCURVE",
"409 -14 CURVE SMOOTH",
"570 -14 OFFCURVE",
"675 46 OFFCURVE",
"675 46 CURVE",
"675 199 LINE",
"675 199 OFFCURVE",
"557 164 OFFCURVE",
"487 164 CURVE SMOOTH"
);
}
);
};
layerId = "BA484124-12AB-4A8E-8655-0FD45CA0FC73";
name = "Regular Aug 1 16, 13:50";
paths = (
{
closed = 1;
nodes = (
"171 792 OFFCURVE",
"20 681 OFFCURVE",
"20 389 CURVE SMOOTH",
"20 97 OFFCURVE",
"169 -14 OFFCURVE",
"409 -14 CURVE SMOOTH",
"551 -14 OFFCURVE",
"670 22 OFFCURVE",
"720 50 CURVE",
"720 329 LINE",
"470 329 LINE",
"470 243 LINE SMOOTH",
"470 191 OFFCURVE",
"447 164 OFFCURVE",
"402 164 CURVE SMOOTH",
"357 164 OFFCURVE",
"334 191 OFFCURVE",
"334 243 CURVE SMOOTH",
"334 540 LINE SMOOTH",
"334 592 OFFCURVE",
"357 614 OFFCURVE",
"402 614 CURVE SMOOTH",
"447 614 OFFCURVE",
"470 592 OFFCURVE",
"470 540 CURVE SMOOTH",
"470 468 LINE",
"710 468 LINE",
"710 718 LINE",
"664 750 OFFCURVE",
"550 792 OFFCURVE",
"412 792 CURVE SMOOTH"
);
},
{
closed = 1;
nodes = (
"422 250 LINE",
"770 250 LINE",
"770 399 LINE",
"422 399 LINE"
);
}
);
width = 792;
visible = 1;
},
{
anchors = (
{
name = bottom;
position = "{414, 0}";
},
{
name = top;
position = "{421, 778}";
}
);
layerId = UUID0;
paths = (
{
closed = 1;
nodes = (
"474 243 LINE SMOOTH",
"474 186 OFFCURVE",
"451 164 OFFCURVE",
"401 164 CURVE SMOOTH",
"351 164 OFFCURVE",
"328 186 OFFCURVE",
"328 243 CURVE SMOOTH",
"328 535 LINE SMOOTH",
"328 592 OFFCURVE",
"351 614 OFFCURVE",
"401 614 CURVE SMOOTH",
"451 614 OFFCURVE",
"474 592 OFFCURVE",
"474 535 CURVE SMOOTH",
"474 488 LINE",
"724 488 LINE",
"724 727 LINE",
"676 755 OFFCURVE",
"560 792 OFFCURVE",
"421 792 CURVE SMOOTH",
"171 792 OFFCURVE",
"14 681 OFFCURVE",
"14 389 CURVE SMOOTH",
"14 103 OFFCURVE",
"175 -14 OFFCURVE",
"413 -14 CURVE SMOOTH",
"555 -14 OFFCURVE",
"674 22 OFFCURVE",
"724 50 CURVE",
"724 329 LINE",
"474 329 LINE"
);
},
{
closed = 1;
nodes = (
"420 250 LINE",
"774 250 LINE",
"774 399 LINE",
"420 399 LINE"
);
}
);
width = 782;
}
);
unicode = 0047;
},
{
color = 3;
glyphname = H;
lastChange = "2016-08-02 20:19:45 +0000";
layers = (
{
anchors = (
{
name = bottom;
position = "{420, 0}";
},
{
name = top;
position = "{420, 778}";
}
);
background = {
paths = (
{
closed = 1;
nodes = (
"426 0 LINE",
"817 0 LINE",
"817 176 LINE",
"760 176 LINE",
"760 611 LINE",
"817 611 LINE",
"817 778 LINE",
"426 778 LINE",
"426 611 LINE",
"471 611 LINE",
"471 462 LINE",
"358 462 LINE",
"358 611 LINE",
"403 611 LINE",
"403 778 LINE",
"12 778 LINE",
"12 611 LINE",
"70 611 LINE",
"70 176 LINE",
"12 176 LINE",
"12 0 LINE",
"403 0 LINE",
"403 176 LINE",
"358 176 LINE",
"358 329 LINE",
"471 329 LINE",
"471 176 LINE",
"426 176 LINE"
);
}
);
};
layerId = UUID0;
paths = (
{
closed = 1;
nodes = (
"20 614 LINE",
"70 614 LINE",
"70 164 LINE",
"20 164 LINE",
"20 0 LINE",
"398 0 LINE",
"398 164 LINE",
"350 164 LINE",
"350 614 LINE",
"398 614 LINE",
"398 778 LINE",
"20 778 LINE"
);
},
{
closed = 1;
nodes = (
"442 614 LINE",
"490 614 LINE",
"490 164 LINE",
"442 164 LINE",
"442 0 LINE",
"820 0 LINE",
"820 164 LINE",
"770 164 LINE",
"770 614 LINE",
"820 614 LINE",
"820 778 LINE",
"442 778 LINE"
);
},
{
closed = 1;
nodes = (
"291 329 LINE",
"538 329 LINE",
"538 462 LINE",
"291 462 LINE"
);
}
);
width = 840;
}
);
unicode = 0048;
},
{
color = 3;
glyphname = I;
lastChange = "2016-08-02 13:54:26 +0000";
layers = (
{
anchors = (
{
name = bottom;
position = "{220, 0}";
},
{
name = ogonek;
position = "{240, 30}";
},
{
name = top;
position = "{210, 778}";
}
);
layerId = UUID0;
paths = (
{
closed = 1;
nodes = (
"20 614 LINE",
"70 614 LINE",
"70 164 LINE",
"20 164 LINE",
"20 0 LINE",
"400 0 LINE",
"400 164 LINE",
"350 164 LINE",
"350 614 LINE",
"400 614 LINE",
"400 778 LINE",
"20 778 LINE"
);
}
);
width = 420;
}
);
unicode = 0049;
},
{
color = 3;
glyphname = J;
lastChange = "2016-08-02 17:55:06 +0000";
layers = (
{
anchors = (
{
name = top;
position = "{458, 778}";
}
);
layerId = UUID0;
paths = (
{
closed = 1;
nodes = (
"212 218 LINE SMOOTH",
"212 180 OFFCURVE",
"230 164 OFFCURVE",
"264 164 CURVE SMOOTH",
"300 164 OFFCURVE",
"318 182 OFFCURVE",
"318 224 CURVE SMOOTH",
"318 614 LINE",
"228 614 LINE",
"228 778 LINE",
"648 778 LINE",
"648 614 LINE",
"598 614 LINE",
"598 278 LINE SMOOTH",
"598 77 OFFCURVE",
"471 -14 OFFCURVE",
"273 -14 CURVE SMOOTH",
"170 -14 OFFCURVE",
"73 11 OFFCURVE",
"12 52 CURVE",
"12 228 LINE",
"212 228 LINE"
);
}
);
width = 666;
},
{
anchors = (
{
name = top_cap;
position = "{303, 811}";
}
);
associatedMasterId = UUID0;
layerId = "C461DC5B-AEA4-435F-B031-8B9E20A111C3";
name = "Regular Aug 1 16, 14:38";
paths = (
{
closed = 1;
nodes = (
"105 164 LINE SMOOTH",
"150 164 OFFCURVE",
"180 191 OFFCURVE",
"180 258 CURVE SMOOTH",
"180 614 LINE",
"69 614 LINE",
"69 778 LINE",
"520 778 LINE",
"520 614 LINE",
"460 614 LINE",
"460 267 LINE SMOOTH",
"460 63 OFFCURVE",
"326 -14 OFFCURVE",
"162 -14 CURVE SMOOTH",
"66 -14 OFFCURVE",
"14 7 OFFCURVE",
"14 7 CURVE",
"14 175 LINE",
"14 175 OFFCURVE",
"62 164 OFFCURVE",
"105 164 CURVE SMOOTH"
);
}
);
width = 522;
visible = 1;
}
);
unicode = 004A;
},
{
color = 3;
glyphname = K;
lastChange = "2016-08-02 13:54:26 +0000";
layers = (
{
anchors = (
{
name = bottom;
position = "{421, 0}";
}
);
hints = (
{
place = "{-35, 21}";
},
{
place = "{-35, 21}";
}
);
layerId = UUID0;
paths = (
{
closed = 1;
nodes = (
"20 614 LINE",
"70 614 LINE",
"70 164 LINE",
"20 164 LINE",
"20 0 LINE",
"398 0 LINE",
"398 164 LINE",
"350 164 LINE",
"350 614 LINE",
"398 614 LINE",
"398 778 LINE",
"20 778 LINE"
);
},
{
closed = 1;
nodes = (
"299 230 LINE",
"764 614 LINE",
"561 662 LINE",
"183 340 LINE"
);
},
{
closed = 1;
nodes = (
"584 501 LINE",
"380 343 LINE",
"546 0 LINE",
"769 164 LINE"
);
},
{
closed = 1;
nodes = (
"546 0 LINE",
"819 0 LINE",
"819 164 LINE",
"532 164 LINE"
);
},
{
closed = 1;
nodes = (
"442 614 LINE",
"814 614 LINE",
"814 778 LINE",
"442 778 LINE"
);
}
);
width = 835;
},
{
associatedMasterId = UUID0;
hints = (
{
place = "{-35, 21}";
},
{
place = "{-35, 21}";
}
);
layerId = "BA4FE4B5-7745-43E4-8F37-1BACB22EB842";
name = "Regular Aug 1 16, 12:49";
paths = (
{
closed = 1;
nodes = (
"26 614 LINE",
"86 614 LINE",
"86 164 LINE",
"26 164 LINE",
"26 0 LINE",
"366 0 LINE",
"366 778 LINE",
"26 778 LINE"
);
},
{
closed = 1;
nodes = (
"591 440 LINE",
"288 409 LINE",
"524 0 LINE",
"782 164 LINE"
);
},
{
closed = 1;
nodes = (
"524 164 LINE",
"524 0 LINE",
"822 0 LINE",
"822 164 LINE"
);
},
{
closed = 1;
nodes = (
"807 614 LINE",
"807 778 LINE",
"549 778 LINE",
"549 614 LINE"
);
},
{
closed = 1;
nodes = (
"767 614 LINE",
"549 778 LINE",
"298 409 LINE",
"584 379 LINE"
);
}
);
width = 834;
visible = 1;
}
);
unicode = 004B;
},
{
color = 3;
glyphname = L;
lastChange = "2016-08-02 19:14:26 +0000";
layers = (
{
anchors = (
{
name = bottom;
position = "{327, 0}";
},
{
name = center;
position = "{539, 445}";
},
{
name = top;
position = "{210, 778}";
},
{
name = top_right;
position = "{485, 778}";
}
);
background = {
paths = (
{
closed = 1;
nodes = (
"10 614 LINE",
"70 614 LINE",
"70 164 LINE",
"10 164 LINE",
"10 0 LINE",
"410 0 LINE",
"410 164 LINE",
"350 164 LINE",
"350 614 LINE",
"410 614 LINE",
"410 778 LINE",
"10 778 LINE"
);
}
);
};
layerId = UUID0;
paths = (
{
closed = 1;
nodes = (
"20 614 LINE",
"70 614 LINE",
"70 164 LINE",
"20 164 LINE",
"20 0 LINE",
"639 0 LINE",
"639 256 LINE",
"440 256 LINE",
"440 164 LINE",
"350 164 LINE",
"350 614 LINE",
"442 614 LINE",
"442 778 LINE",
"20 778 LINE"
);
}
);
width = 653;
}
);
unicode = 004C;
},
{
color = 3;
glyphname = M;
lastChange = "2016-08-02 20:24:48 +0000";
layers = (
{
anchors = (
{
name = bottom;
position = "{549, 0}";
}
);
layerId = UUID0;
paths = (
{
closed = 1;
nodes = (
"348 0 LINE",
"348 164 LINE",
"300 164 LINE",
"300 585 LINE",
"275 582 LINE",
"475 0 LINE",
"623 0 LINE",
"817 587 LINE",
"793 589 LINE",
"793 164 LINE",
"745 164 LINE",
"745 0 LINE",
"1123 0 LINE",
"1123 164 LINE",
"1073 164 LINE",
"1073 614 LINE",
"1123 614 LINE",
"1123 778 LINE",
"682 778 LINE",
"563 408 LINE",
"601 408 LINE",
"478 778 LINE",
"20 778 LINE",
"20 614 LINE",
"70 614 LINE",
"70 164 LINE",
"20 164 LINE",
"20 0 LINE"
);
}
);
width = 1143;
},
{
associatedMasterId = UUID0;
layerId = "83D9F6D2-E869-4370-AB66-4161E4282F22";
name = "Regular Aug 1 16, 14:52";
paths = (
{
closed = 1;
nodes = (
"803 164 LINE",
"1113 164 LINE",
"1113 778 LINE",
"803 778 LINE"
);
},
{
closed = 1;
nodes = (
"555 0 LINE",
"727 350 LINE",
"668 492 OFFCURVE",
"552 778 OFFCURVE",
"552 778 CURVE",
"329 778 LINE",
"329 442 LINE",
"370 442 LINE"
);
},
{
closed = 1;
nodes = (
"370 778 LINE",
"142 778 LINE",
"142 164 LINE",
"370 164 LINE"
);
},
{
closed = 1;
nodes = (
"503 298 LINE",
"628 0 LINE",
"935 778 LINE",
"683 778 LINE"
);
},
{
closed = 1;
nodes = (
"628 128 LINE",
"555 128 LINE",
"555 0 LINE",
"628 0 LINE"
);
},
{
closed = 1;
nodes = (
"84 0 LINE",
"446 0 LINE",
"446 176 LINE",
"84 176 LINE"
);
},
{
closed = 1;
nodes = (
"733 0 LINE",
"1170 0 LINE",
"1170 176 LINE",
"733 176 LINE"
);
},
{
closed = 1;
nodes = (
"84 611 LINE",
"250 611 LINE",
"250 778 LINE",
"84 778 LINE"
);
},
{
closed = 1;
nodes = (
"1018 611 LINE",
"1170 611 LINE",
"1170 778 LINE",
"1018 778 LINE"
);
}
);
width = 1183;
},
{
associatedMasterId = UUID0;
layerId = "BDF3CD4A-7614-449A-92DA-502E108B93D2";
name = "Regular Aug 1 16, 14:52 Aug 1 16, 14:52";
paths = (
{
closed = 1;
nodes = (
"743 614 LINE",
"833 614 LINE",
"833 164 LINE",
"785 164 LINE",
"785 0 LINE",
"1163 0 LINE",
"1163 164 LINE",
"1113 164 LINE",
"1113 614 LINE",
"1163 614 LINE",
"1163 778 LINE",
"722 778 LINE"
);
},
{
closed = 1;
nodes = (
"20 614 LINE",
"70 614 LINE",
"70 164 LINE",
"20 164 LINE",
"20 0 LINE",
"348 0 LINE",
"348 164 LINE",
"300 164 LINE",
"300 614 LINE",
"390 614 LINE",
"468 778 LINE",
"20 778 LINE"
);
},
{
closed = 1;
nodes = (
"468 778 LINE",
"249 688 LINE",
"506 0 LINE",
"634 0 LINE",
"651 291 LINE"
);
},
{
closed = 1;
nodes = (
"634 0 LINE",
"896 736 LINE",
"722 778 LINE",
"510 177 LINE"
);
}
);
width = 1183;
}
);
leftMetricsKey = "=H";
rightMetricsKey = "=H";
unicode = 004D;
},
{
color = 3;
glyphname = N;
lastChange = "2016-08-02 18:05:11 +0000";
layers = (
{
anchors = (
{
name = bottom;
position = "{473, 0}";
},
{
name = top;
position = "{481, 778}";
}
);
background = {
paths = (
{
closed = 1;
nodes = (
"58 611 LINE",
"116 611 LINE",
"116 176 LINE",
"58 176 LINE",
"58 0 LINE",
"384 0 LINE",
"384 176 LINE",
"338 176 LINE",
"338 329 LINE",
"346 329 LINE",
"543 0 LINE",
"854 0 LINE",
"854 611 LINE",
"912 611 LINE",
"912 778 LINE",
"587 778 LINE",
"587 611 LINE",
"632 611 LINE",
"632 462 LINE",
"624 462 LINE",
"427 778 LINE",
"58 778 LINE"
);
}
);
};
layerId = UUID0;
paths = (
{
closed = 1;
nodes = (
"20 614 LINE",
"70 614 LINE",
"70 164 LINE",
"20 164 LINE",
"20 0 LINE",
"348 0 LINE",
"348 164 LINE",
"300 164 LINE",
"300 614 LINE",
"360 614 LINE",
"381 778 LINE",
"20 778 LINE"
);
},
{
closed = 1;
nodes = (
"596 614 LINE",
"644 614 LINE",
"644 164 LINE",
"584 164 LINE",
"593 0 LINE",
"874 0 LINE",
"874 614 LINE",
"924 614 LINE",
"924 778 LINE",
"596 778 LINE"
);
},
{
closed = 1;
nodes = (
"381 778 LINE",
"215 582 LINE",
"593 0 LINE",
"702 288 LINE"
);
}
);
width = 942;
}
);
leftMetricsKey = "=H";
unicode = 004E;
},
{
color = 3;
glyphname = O;
lastChange = "2016-08-02 17:55:19 +0000";
layers = (
{
anchors = (
{
name = bottom;
position = "{396, 0}";
},
{
name = ogonek;
position = "{444, 30}";
},
{
name = top;
position = "{396, 778}";
}
);
layerId = UUID0;
paths = (
{
closed = 1;
nodes = (
"351 164 OFFCURVE",
"328 185 OFFCURVE",
"328 238 CURVE SMOOTH",
"328 540 LINE SMOOTH",
"328 592 OFFCURVE",
"351 614 OFFCURVE",
"396 614 CURVE SMOOTH",
"441 614 OFFCURVE",
"464 592 OFFCURVE",
"464 540 CURVE SMOOTH",
"464 238 LINE SMOOTH",
"464 186 OFFCURVE",
"441 164 OFFCURVE",
"396 164 CURVE SMOOTH"
);
},
{
closed = 1;
nodes = (
"778 681 OFFCURVE",
"629 792 OFFCURVE",
"396 792 CURVE SMOOTH",
"163 792 OFFCURVE",
"14 681 OFFCURVE",
"14 389 CURVE SMOOTH",
"14 97 OFFCURVE",
"163 -14 OFFCURVE",
"396 -14 CURVE SMOOTH",
"629 -14 OFFCURVE",
"778 97 OFFCURVE",
"778 389 CURVE SMOOTH"
);
}
);
width = 792;
},
{
anchors = (
{
name = top_cap;
position = "{396, 811}";
}
);
associatedMasterId = UUID0;
layerId = "DE0CBF45-55FF-4712-ACB6-66E92AD993F1";
name = "Regular Aug 1 16, 13:44";
paths = (
{
closed = 1;
nodes = (
"396 164 LINE",
"351 164 OFFCURVE",
"328 186 OFFCURVE",
"328 238 CURVE SMOOTH",
"328 540 LINE SMOOTH",
"328 592 OFFCURVE",
"351 614 OFFCURVE",
"396 614 CURVE SMOOTH",
"441 614 OFFCURVE",
"464 592 OFFCURVE",
"464 540 CURVE SMOOTH",
"464 238 LINE SMOOTH",
"464 186 OFFCURVE",
"441 164 OFFCURVE",
"396 164 CURVE SMOOTH"
);
},
{
closed = 1;
nodes = (
"778 389 LINE",
"778 681 OFFCURVE",
"629 792 OFFCURVE",
"396 792 CURVE SMOOTH",
"163 792 OFFCURVE",
"14 681 OFFCURVE",
"14 389 CURVE SMOOTH",
"14 97 OFFCURVE",
"163 -14 OFFCURVE",
"396 -14 CURVE SMOOTH",
"629 -14 OFFCURVE",
"778 97 OFFCURVE",
"778 389 CURVE SMOOTH"
);
}
);
width = 792;
visible = 1;
}
);
unicode = 004F;
},
{
color = 3;
glyphname = P;
lastChange = "2016-08-01 20:13:53 +0000";
layers = (
{
background = {
paths = (
{
closed = 1;
nodes = (
"12 611 LINE",
"70 611 LINE",
"70 176 LINE",
"12 176 LINE",
"12 0 LINE",
"466 0 LINE",
"466 176 LINE",
"358 176 LINE",
"358 329 LINE",
"528 329 LINE SMOOTH",
"667 329 OFFCURVE",
"753 422 OFFCURVE",
"753 542 CURVE SMOOTH",
"753 662 OFFCURVE",
"667 778 OFFCURVE",
"528 778 CURVE SMOOTH",
"12 778 LINE"
);
},
{
closed = 1;
nodes = (
"358 453 LINE",
"358 611 LINE",
"407 611 LINE SMOOTH",
"450 611 OFFCURVE",
"477 587 OFFCURVE",
"477 531 CURVE SMOOTH",
"477 470 OFFCURVE",
"448 453 OFFCURVE",
"407 453 CURVE SMOOTH"
);
}
);
};
layerId = UUID0;
paths = (
{
closed = 1;
nodes = (
"350 450 LINE",
"350 614 LINE",
"384 614 LINE SMOOTH",
"422 614 OFFCURVE",
"442 595 OFFCURVE",
"442 550 CURVE SMOOTH",
"442 514 LINE SMOOTH",
"442 469 OFFCURVE",
"421 450 OFFCURVE",
"384 450 CURVE SMOOTH"
);
},
{
closed = 1;
nodes = (
"446 164 LINE",
"350 164 LINE",
"350 308 LINE",
"459 308 LINE SMOOTH",
"623 308 OFFCURVE",
"724 372 OFFCURVE",
"724 543 CURVE SMOOTH",
"724 714 OFFCURVE",
"623 778 OFFCURVE",
"459 778 CURVE SMOOTH",
"20 778 LINE",
"20 614 LINE",
"70 614 LINE",
"70 164 LINE",
"20 164 LINE",
"20 0 LINE",
"446 0 LINE"
);
}
);
width = 738;
}
);
unicode = 0050;
},
{
color = 3;
glyphname = Q;
lastChange = "2016-08-01 20:13:53 +0000";
layers = (
{
layerId = UUID0;
paths = (
{
closed = 1;
nodes = (
"442 164 OFFCURVE",
"464 188 OFFCURVE",
"464 238 CURVE SMOOTH",
"464 540 LINE SMOOTH",
"464 590 OFFCURVE",
"442 614 OFFCURVE",
"396 614 CURVE SMOOTH",
"350 614 OFFCURVE",
"328 590 OFFCURVE",
"328 540 CURVE SMOOTH",
"328 238 LINE SMOOTH",
"328 188 OFFCURVE",
"350 164 OFFCURVE",
"396 164 CURVE SMOOTH"
);
},
{
closed = 1;
nodes = (
"778 347 OFFCURVE",
"754 254 OFFCURVE",
"669 174 CURVE",
"674 164 LINE",
"794 164 LINE",
"794 -78 LINE",
"414 -78 OFFCURVE",
"209 -58 OFFCURVE",
"81 118 CURVE SMOOTH",
"38 180 OFFCURVE",
"14 270 OFFCURVE",
"14 389 CURVE SMOOTH",
"14 668 OFFCURVE",
"163 792 OFFCURVE",
"396 792 CURVE SMOOTH",
"629 792 OFFCURVE",
"778 679 OFFCURVE",
"778 439 CURVE SMOOTH"
);
}
);
width = 810;
},
{
associatedMasterId = UUID0;
layerId = "4126A8F3-7574-4A40-9C85-96F00CD5F251";
name = "Regular Aug 2 16, 00:12";
paths = (
{
closed = 1;
nodes = (
"398 164 LINE SMOOTH",
"443 164 OFFCURVE",
"466 186 OFFCURVE",
"466 238 CURVE SMOOTH",
"466 540 LINE SMOOTH",
"466 592 OFFCURVE",
"443 614 OFFCURVE",
"398 614 CURVE SMOOTH",
"353 614 OFFCURVE",
"330 592 OFFCURVE",
"330 540 CURVE SMOOTH",
"330 238 LINE SMOOTH",
"330 186 OFFCURVE",
"353 164 OFFCURVE",
"398 164 CURVE SMOOTH"
);
},
{
closed = 1;
nodes = (
"780 419 LINE SMOOTH",
"780 271 OFFCURVE",
"703 204 OFFCURVE",
"671 174 CURVE",
"677 164 LINE",
"796 164 LINE",
"796 -78 LINE",
"416 -78 OFFCURVE",
"211 -58 OFFCURVE",
"83 118 CURVE SMOOTH",
"40 180 OFFCURVE",
"16 270 OFFCURVE",
"16 389 CURVE SMOOTH",
"16 681 OFFCURVE",
"165 792 OFFCURVE",
"398 792 CURVE SMOOTH",
"631 792 OFFCURVE",
"780 673 OFFCURVE",
"780 419 CURVE SMOOTH"
);
}
);
width = 812;
visible = 1;
}
);
unicode = 0051;
},
{
color = 3;
glyphname = R;
lastChange = "2016-08-02 18:47:35 +0000";
layers = (
{
anchors = (
{
name = bottom;
position = "{416, 0}";
},
{
name = top;
position = "{377, 778}";
}
);
background = {
paths = (
{
closed = 1;
nodes = (
"1578 611 LINE",
"1636 611 LINE",
"1636 176 LINE",
"1578 176 LINE",
"1578 0 LINE",
"2016 0 LINE",
"2016 176 LINE",
"1924 176 LINE",
"1924 329 LINE",
"2014 329 OFFCURVE",
"2041 279 OFFCURVE",
"2041 176 CURVE SMOOTH",
"2041 0 LINE",
"2358 0 LINE",
"2358 176 LINE",
"2311 176 LINE",
"2311 344 OFFCURVE",
"2211 378 OFFCURVE",
"2146 392 CURVE",
"2209 404 OFFCURVE",
"2330 438 OFFCURVE",
"2330 574 CURVE SMOOTH",
"2330 696 OFFCURVE",
"2232 778 OFFCURVE",
"2100 778 CURVE SMOOTH",
"1578 778 LINE"
);
},
{
closed = 1;
nodes = (
"1924 460 LINE",
"1924 611 LINE",
"1976 611 LINE SMOOTH",
"2013 611 OFFCURVE",
"2043 589 OFFCURVE",
"2043 534 CURVE SMOOTH",
"2043 474 OFFCURVE",
"2011 460 OFFCURVE",
"1976 460 CURVE SMOOTH"
);
},
{
closed = 1;
nodes = (
"350 450 LINE",
"350 614 LINE",
"404 614 LINE SMOOTH",
"442 614 OFFCURVE",
"462 595 OFFCURVE",
"462 550 CURVE SMOOTH",
"462 514 LINE SMOOTH",
"462 469 OFFCURVE",
"442 450 OFFCURVE",
"404 450 CURVE SMOOTH"
);
},
{
closed = 1;
nodes = (
"416 164 LINE",
"350 164 LINE",
"350 328 LINE",
"479 328 LINE SMOOTH",
"643 328 OFFCURVE",
"744 388 OFFCURVE",
"744 553 CURVE SMOOTH",
"744 718 OFFCURVE",
"643 778 OFFCURVE",
"479 778 CURVE SMOOTH",
"10 778 LINE",
"10 614 LINE",
"70 614 LINE",
"70 164 LINE",
"10 164 LINE",
"10 0 LINE",
"416 0 LINE"
);
},
{
closed = 1;
nodes = (
"350 328 LINE",
"433 328 OFFCURVE",
"467 315 OFFCURVE",
"467 235 CURVE SMOOTH",
"467 0 LINE",
"784 0 LINE",
"784 164 LINE",
"737 164 LINE",
"737 241 LINE SMOOTH",
"737 352 OFFCURVE",
"667 373 OFFCURVE",
"589 373 CURVE"
);
}
);
};
layerId = UUID0;
paths = (
{
closed = 1;
nodes = (
"350 328 LINE",
"433 328 OFFCURVE",
"467 315 OFFCURVE",
"467 235 CURVE SMOOTH",
"467 0 LINE",
"784 0 LINE",
"784 164 LINE",
"737 164 LINE",
"737 241 LINE SMOOTH",
"737 311 OFFCURVE",
"705 349 OFFCURVE",
"641 359 CURVE",
"640 369 LINE",
"708 395 OFFCURVE",
"744 465 OFFCURVE",
"744 553 CURVE SMOOTH",
"744 718 OFFCURVE",
"643 778 OFFCURVE",
"479 778 CURVE SMOOTH",
"20 778 LINE",
"20 614 LINE",
"70 614 LINE",
"70 164 LINE",
"20 164 LINE",
"20 0 LINE",
"416 0 LINE",
"416 164 LINE",
"350 164 LINE"
);
},
{
closed = 1;
nodes = (
"350 450 LINE",
"350 614 LINE",
"404 614 LINE SMOOTH",
"442 614 OFFCURVE",
"462 595 OFFCURVE",
"462 550 CURVE SMOOTH",
"462 514 LINE SMOOTH",
"462 469 OFFCURVE",
"442 450 OFFCURVE",
"404 450 CURVE SMOOTH"
);
}
);
width = 800;
}
);
unicode = 0052;
},
{
color = 3;
glyphname = S;
lastChange = "2016-08-02 13:54:26 +0000";
layers = (
{
anchors = (
{
name = bottom;
position = "{337, 0}";
},
{
name = edilla;
position = "{330, 0}";
},
{
name = top;
position = "{344, 778}";
}
);
layerId = UUID0;
paths = (
{
closed = 1;
nodes = (
"250 179 OFFCURVE",
"237 199 OFFCURVE",
"237 238 CURVE",
"17 238 LINE",
"17 40 LINE",
"69 17 OFFCURVE",
"190 -14 OFFCURVE",
"330 -14 CURVE SMOOTH",
"548 -14 OFFCURVE",
"666 72 OFFCURVE",
"666 243 CURVE SMOOTH",
"666 368 OFFCURVE",
"603 439 OFFCURVE",
"463 487 CURVE SMOOTH",
"376 517 LINE SMOOTH",
"337 530 OFFCURVE",
"314 540 OFFCURVE",
"314 565 CURVE SMOOTH",
"314 590 OFFCURVE",
"330 599 OFFCURVE",
"369 599 CURVE SMOOTH",
"404 599 OFFCURVE",
"431 587 OFFCURVE",
"431 549 CURVE",
"631 549 LINE",
"631 728 LINE",
"570 765 OFFCURVE",
"463 792 OFFCURVE",
"344 792 CURVE SMOOTH",
"92 792 OFFCURVE",
"8 700 OFFCURVE",
"8 551 CURVE SMOOTH",
"8 418 OFFCURVE",
"72 352 OFFCURVE",
"216 298 CURVE SMOOTH",
"302 268 LINE SMOOTH",
"345 252 OFFCURVE",
"360 238 OFFCURVE",
"360 217 CURVE SMOOTH",
"360 192 OFFCURVE",
"344 179 OFFCURVE",
"302 179 CURVE SMOOTH"
);
}
);
width = 674;
},
{
associatedMasterId = UUID0;
background = {
paths = (
{
closed = 1;
nodes = (
"1413 278 LINE",
"1640 278 LINE",
"1640 210 OFFCURVE",
"1678 182 OFFCURVE",
"1742 182 CURVE SMOOTH",
"1796 182 OFFCURVE",
"1826 199 OFFCURVE",
"1826 224 CURVE SMOOTH",
"1826 249 OFFCURVE",
"1792 253 OFFCURVE",
"1738 269 CURVE SMOOTH",
"1495 341 OFFCURVE",
"1404 407 OFFCURVE",
"1404 551 CURVE SMOOTH",
"1404 672 OFFCURVE",
"1487 799 OFFCURVE",
"1785 799 CURVE SMOOTH",
"1965 799 OFFCURVE",
"2064 737 OFFCURVE",
"2112 693 CURVE",
"2112 528 LINE",
"1892 528 LINE",
"1892 560 OFFCURVE",
"1861 600 OFFCURVE",
"1801 600 CURVE SMOOTH",
"1751 600 OFFCURVE",
"1720 590 OFFCURVE",
"1720 569 CURVE SMOOTH",
"1720 541 OFFCURVE",
"1754 534 OFFCURVE",
"1812 520 CURVE SMOOTH",
"1993 474 OFFCURVE",
"2136 414 OFFCURVE",
"2136 249 CURVE SMOOTH",
"2136 79 OFFCURVE",
"2001 -24 OFFCURVE",
"1766 -24 CURVE SMOOTH",
"1582 -24 OFFCURVE",
"1463 33 OFFCURVE",
"1413 68 CURVE"
);
},
{
closed = 1;
nodes = (
"-951 258 LINE",
"-724 258 LINE",
"-724 187 OFFCURVE",
"-686 164 OFFCURVE",
"-622 164 CURVE SMOOTH",
"-558 164 OFFCURVE",
"-538 176 OFFCURVE",
"-538 209 CURVE SMOOTH",
"-538 241 OFFCURVE",
"-572 253 OFFCURVE",
"-626 269 CURVE SMOOTH",
"-869 341 OFFCURVE",
"-960 396 OFFCURVE",
"-960 551 CURVE SMOOTH",
"-960 700 OFFCURVE",
"-884 792 OFFCURVE",
"-579 792 CURVE SMOOTH",
"-372 792 OFFCURVE",
"-252 718 OFFCURVE",
"-252 718 CURVE",
"-252 528 LINE",
"-472 528 LINE",
"-472 580 OFFCURVE",
"-503 614 OFFCURVE",
"-563 614 CURVE SMOOTH",
"-623 614 OFFCURVE",
"-644 606 OFFCURVE",
"-644 575 CURVE SMOOTH",
"-644 544 OFFCURVE",
"-610 534 OFFCURVE",
"-552 520 CURVE SMOOTH",
"-371 474 OFFCURVE",
"-228 420 OFFCURVE",
"-228 249 CURVE SMOOTH",
"-228 64 OFFCURVE",
"-346 -14 OFFCURVE",
"-598 -14 CURVE SMOOTH",
"-828 -14 OFFCURVE",
"-951 60 OFFCURVE",
"-951 60 CURVE"
);
},
{
closed = 1;
nodes = (
"41 215 LINE",
"105 199 OFFCURVE",
"212 184 OFFCURVE",
"287 184 CURVE SMOOTH",
"350 184 OFFCURVE",
"364 198 OFFCURVE",
"364 219 CURVE SMOOTH",
"364 237 OFFCURVE",
"355 252 OFFCURVE",
"316 268 CURVE SMOOTH",
"120 348 OFFCURVE",
"22 395 OFFCURVE",
"22 551 CURVE SMOOTH",
"22 700 OFFCURVE",
"107 792 OFFCURVE",
"363 792 CURVE SMOOTH",
"529 792 OFFCURVE",
"640 748 OFFCURVE",
"640 748 CURVE",
"640 568 LINE",
"571 583 OFFCURVE",
"490 594 OFFCURVE",
"412 594 CURVE SMOOTH",
"360 594 OFFCURVE",
"338 584 OFFCURVE",
"338 561 CURVE SMOOTH",
"338 538 OFFCURVE",
"356 530 OFFCURVE",
"390 518 CURVE SMOOTH",
"544 464 OFFCURVE",
"674 415 OFFCURVE",
"674 243 CURVE SMOOTH",
"674 72 OFFCURVE",
"558 -14 OFFCURVE",
"344 -14 CURVE SMOOTH",
"158 -14 OFFCURVE",
"41 36 OFFCURVE",
"41 36 CURVE"
);
}
);
};
layerId = "355B3BCA-A7FB-40CF-AB5D-ADB81E87AFB3";
name = "Regular Aug 2 16, 00:14";
paths = (
{
closed = 1;
nodes = (
"313 179 LINE SMOOTH",
"263 179 OFFCURVE",
"251 198 OFFCURVE",
"251 238 CURVE",
"31 238 LINE",
"31 40 LINE",
"31 40 OFFCURVE",
"152 -14 OFFCURVE",
"344 -14 CURVE SMOOTH",
"558 -14 OFFCURVE",
"674 72 OFFCURVE",
"674 243 CURVE SMOOTH",
"674 415 OFFCURVE",
"545 468 OFFCURVE",
"390 518 CURVE SMOOTH",
"349 531 OFFCURVE",
"328 538 OFFCURVE",
"328 561 CURVE SMOOTH",
"328 589 OFFCURVE",
"346 599 OFFCURVE",
"390 599 CURVE SMOOTH",
"421 599 OFFCURVE",
"445 587 OFFCURVE",
"445 549 CURVE",
"655 549 LINE",
"655 728 LINE",
"655 728 OFFCURVE",
"556 792 OFFCURVE",
"363 792 CURVE SMOOTH",
"107 792 OFFCURVE",
"22 700 OFFCURVE",
"22 551 CURVE SMOOTH",
"22 395 OFFCURVE",
"118 342 OFFCURVE",
"316 268 CURVE SMOOTH",
"363 251 OFFCURVE",
"374 237 OFFCURVE",
"374 219 CURVE SMOOTH",
"374 193 OFFCURVE",
"357 179 OFFCURVE",
"313 179 CURVE SMOOTH"
);
}
);
width = 686;
visible = 1;
}
);
unicode = 0053;
},
{
color = 3;
glyphname = T;
lastChange = "2016-08-02 13:54:26 +0000";
layers = (
{
anchors = (
{
name = bottom;
position = "{390, 0}";
},
{
name = cedilla;
position = "{391, 0}";
},
{
name = top;
position = "{390, 778}";
}
);
background = {
paths = (
{
closed = 1;
nodes = (
"4 482 LINE",
"216 482 LINE",
"216 611 LINE",
"244 611 LINE",
"244 176 LINE",
"186 176 LINE",
"186 0 LINE",
"594 0 LINE",
"594 176 LINE",
"536 176 LINE",
"536 611 LINE",
"565 611 LINE",
"565 482 LINE",
"778 482 LINE",
"778 778 LINE",
"4 778 LINE"
);
}
);
};
layerId = UUID0;
paths = (
{
closed = 1;
nodes = (
"186 614 LINE",
"250 614 LINE",
"250 164 LINE",
"180 164 LINE",
"180 0 LINE",
"600 0 LINE",
"600 164 LINE",
"530 164 LINE",
"530 614 LINE",
"594 614 LINE",
"594 778 LINE",
"186 778 LINE"
);
},
{
closed = 1;
nodes = (
"14 536 LINE",
"186 536 LINE",
"186 778 LINE",
"14 778 LINE"
);
},
{
closed = 1;
nodes = (
"594 536 LINE",
"766 536 LINE",
"766 778 LINE",
"594 778 LINE"
);
}
);
width = 780;
}
);
unicode = 0054;
},
{
color = 3;
glyphname = U;
lastChange = "2016-08-02 17:55:34 +0000";
layers = (
{
anchors = (
{
name = bottom;
position = "{394, 0}";
},
{
name = ogonek;
position = "{441, 30}";
},
{
name = top;
position = "{402, 778}";
}
);
background = {
paths = (
{
closed = 1;
nodes = (
"-12 611 LINE",
"46 611 LINE",
"46 261 LINE SMOOTH",
"46 124 OFFCURVE",
"124 -18 OFFCURVE",
"383 -18 CURVE SMOOTH",
"621 -18 OFFCURVE",
"714 124 OFFCURVE",
"714 261 CURVE SMOOTH",
"714 611 LINE",
"772 611 LINE",
"772 778 LINE",
"416 778 LINE",
"416 611 LINE",
"461 611 LINE",
"461 350 LINE SMOOTH",
"461 260 OFFCURVE",
"452 176 OFFCURVE",
"404 176 CURVE SMOOTH",
"356 176 OFFCURVE",
"348 260 OFFCURVE",
"348 350 CURVE SMOOTH",
"348 611 LINE",
"391 611 LINE",
"391 778 LINE",
"-12 778 LINE"
);
}
);
};
layerId = UUID0;
paths = (
{
closed = 1;
nodes = (
"715 614 LINE",
"765 614 LINE",
"765 778 LINE",
"422 778 LINE",
"422 614 LINE",
"462 614 LINE",
"462 228 LINE SMOOTH",
"462 183 OFFCURVE",
"442 164 OFFCURVE",
"404 164 CURVE SMOOTH",
"366 164 OFFCURVE",
"346 183 OFFCURVE",
"346 228 CURVE SMOOTH",
"346 614 LINE",
"386 614 LINE",
"386 778 LINE",
"16 778 LINE",
"16 614 LINE",
"66 614 LINE",
"66 279 LINE SMOOTH",
"66 64 OFFCURVE",
"195 -14 OFFCURVE",
"394 -14 CURVE SMOOTH",
"590 -14 OFFCURVE",
"715 64 OFFCURVE",
"715 279 CURVE SMOOTH"
);
}
);
width = 781;
}
);
unicode = 0055;
},
{
color = 3;
glyphname = V;
lastChange = "2016-08-01 20:13:53 +0000";
layers = (
{
background = {
paths = (
{
closed = 1;
nodes = (
"-33 611 LINE",
"-33 778 LINE",
"403 778 LINE",
"403 611 LINE",
"329 611 LINE",
"410 216 LINE",
"422 216 LINE",
"444 316 OFFCURVE",
"497 589 OFFCURVE",
"501 611 CURVE",
"429 611 LINE",
"429 778 LINE",
"823 778 LINE",
"823 611 LINE",
"779 611 LINE",
"585 0 LINE",
"207 0 LINE",
"13 611 LINE"
);
}
);
};
layerId = UUID0;
paths = (
{
closed = 1;
nodes = (
"774 778 LINE",
"440 778 LINE",
"440 614 LINE",
"774 614 LINE"
);
},
{
closed = 1;
nodes = (
"396 778 LINE",
"12 778 LINE",
"12 614 LINE",
"396 614 LINE"
);
},
{
closed = 1;
nodes = (
"555 0 LINE",
"734 614 LINE",
"492 614 LINE",
"423 279 LINE",
"413 279 LINE",
"344 614 LINE",
"52 614 LINE",
"231 0 LINE"
);
}
);
width = 786;
}
);
unicode = 0056;
},
{
color = 3;
glyphname = W;
lastChange = "2016-08-02 11:54:44 +0000";
layers = (
{
anchors = (
{
name = top;
position = "{632, 778}";
}
);
background = {
paths = (
{
closed = 1;
nodes = (
"2533 611 LINE",
"2582 611 LINE",
"2525 283 LINE",
"2465 611 LINE",
"2508 611 LINE",
"2508 778 LINE",
"2115 778 LINE",
"2115 611 LINE",
"2150 611 LINE",
"2173 529 LINE",
"2119 283 LINE",
"2044 611 LINE",
"2090 611 LINE",
"2090 778 LINE",
"1685 778 LINE",
"1685 611 LINE",
"1728 611 LINE",
"1897 0 LINE",
"2243 0 LINE",
"2283 133 LINE",
"2321 0 LINE",
"2675 0 LINE",
"2820 611 LINE",
"2863 611 LINE",
"2863 778 LINE",
"2533 778 LINE"
);
},
{
closed = 1;
nodes = (
"-1781 778 LINE",
"-2193 778 LINE",
"-2193 614 LINE",
"-1781 614 LINE"
);
},
{
closed = 1;
nodes = (
"-1635 0 LINE",
"-1455 778 LINE",
"-1687 778 LINE",
"-1772 239 LINE",
"-1782 239 LINE",
"-1861 614 LINE",
"-2153 614 LINE",
"-1984 0 LINE"
);
},
{
closed = 1;
nodes = (
"-1149 0 LINE",
"-990 614 LINE",
"-1232 614 LINE",
"-1311 239 LINE",
"-1321 239 LINE",
"-1399 778 LINE",
"-1667 778 LINE",
"-1498 0 LINE"
);
},
{
closed = 1;
nodes = (
"-950 778 LINE",
"-1312 778 LINE",
"-1312 614 LINE",
"-950 614 LINE"
);
},
{
closed = 1;
nodes = (
"389 778 LINE",
"-18 778 LINE",
"-18 614 LINE",
"389 614 LINE"
);
},
{
closed = 1;
nodes = (
"520 0 LINE",
"700 778 LINE",
"488 778 LINE",
"383 239 LINE",
"373 239 LINE",
"314 614 LINE",
"22 614 LINE",
"171 0 LINE"
);
},
{
closed = 1;
nodes = (
"1046 0 LINE",
"1185 614 LINE",
"943 614 LINE",
"884 239 LINE",
"874 239 LINE",
"776 778 LINE",
"528 778 LINE",
"697 0 LINE"
);
},
{
closed = 1;
nodes = (
"1225 778 LINE",
"868 778 LINE",
"868 614 LINE",
"1225 614 LINE"
);
}
);
};
layerId = UUID0;
paths = (
{
closed = 1;
nodes = (
"382 778 LINE",
"12 778 LINE",
"12 614 LINE",
"382 614 LINE"
);
},
{
closed = 1;
nodes = (
"1195 778 LINE",
"875 778 LINE",
"875 614 LINE",
"1195 614 LINE"
);
},
{
closed = 1;
nodes = (
"510 0 LINE",
"606 432 LINE",
"616 432 LINE",
"707 0 LINE",
"1006 0 LINE",
"1155 614 LINE",
"913 614 LINE",
"874 359 LINE",
"864 359 LINE",
"776 778 LINE",
"488 778 LINE",
"393 359 LINE",
"383 359 LINE",
"344 614 LINE",
"52 614 LINE",
"211 0 LINE"
);
}
);
width = 1207;
}
);
unicode = 0057;
},
{
color = 3;
glyphname = X;
lastChange = "2016-08-01 20:13:53 +0000";
layers = (
{
layerId = UUID0;
paths = (
{
closed = 1;
nodes = (
"408 164 LINE",
"408 0 LINE",
"786 0 LINE",
"786 164 LINE"
);
},
{
closed = 1;
nodes = (
"14 164 LINE",
"14 0 LINE",
"364 0 LINE",
"364 164 LINE"
);
},
{
closed = 1;
nodes = (
"391 614 LINE",
"391 778 LINE",
"16 778 LINE",
"16 614 LINE"
);
},
{
closed = 1;
nodes = (
"782 614 LINE",
"782 778 LINE",
"435 778 LINE",
"435 614 LINE"
);
},
{
closed = 1;
nodes = (
"291 341 LINE",
"292 418 LINE",
"66 164 LINE",
"323 164 LINE",
"381 246 LINE",
"391 246 LINE",
"449 164 LINE",
"744 164 LINE",
"508 440 LINE",
"508 363 LINE",
"730 614 LINE",
"473 614 LINE",
"418 532 LINE",
"408 532 LINE",
"353 614 LINE",
"58 614 LINE"
);
}
);
width = 800;
},
{
associatedMasterId = UUID0;
layerId = "3B075A28-6F56-4368-B9AD-FA4430B341A4";
name = "Regular Aug 1 16, 13:07";
paths = (
{
closed = 1;
nodes = (
"802 614 LINE",
"802 778 LINE",
"524 778 LINE",
"449 546 LINE",
"429 546 LINE",
"355 778 LINE",
"37 778 LINE",
"37 614 LINE",
"77 614 LINE",
"184 397 LINE",
"68 164 LINE",
"28 164 LINE",
"28 0 LINE",
"306 0 LINE",
"390 254 LINE",
"410 254 LINE",
"494 0 LINE",
"812 0 LINE",
"812 164 LINE",
"772 164 LINE",
"655 398 LINE",
"762 614 LINE"
);
}
);
width = 826;
visible = 1;
},
{
associatedMasterId = UUID0;
layerId = "6F3D1B59-6E1A-4DFF-B799-D053ECA3A8FE";
name = "Regular Aug 1 16, 13:31";
paths = (
{
closed = 1;
nodes = (
"374 614 LINE",
"79 614 LINE",
"470 164 LINE",
"765 164 LINE"
);
},
{
closed = 1;
nodes = (
"494 614 LINE",
"87 164 LINE",
"344 164 LINE",
"751 614 LINE"
);
},
{
closed = 1;
nodes = (
"429 164 LINE",
"429 0 LINE",
"807 0 LINE",
"807 164 LINE"
);
},
{
closed = 1;
nodes = (
"35 164 LINE",
"35 0 LINE",
"385 0 LINE",
"385 164 LINE"
);
},
{
closed = 1;
nodes = (
"412 614 LINE",
"412 778 LINE",
"37 778 LINE",
"37 614 LINE"
);
},
{
closed = 1;
nodes = (
"803 614 LINE",
"803 778 LINE",
"456 778 LINE",
"456 614 LINE"
);
}
);
width = 826;
}
);
unicode = 0058;
},
{
color = 3;
glyphname = Y;
lastChange = "2016-08-02 23:22:03 +0000";
layers = (
{
anchors = (
{
name = bottom;
position = "{391, 0}";
},
{
name = top;
position = "{428, 778}";
}
);
background = {
paths = (
{
closed = 1;
nodes = (
"759 778 LINE",
"457 778 LINE",
"457 614 LINE",
"759 614 LINE"
);
},
{
closed = 1;
nodes = (
"399 778 LINE",
"16 778 LINE",
"16 614 LINE",
"399 614 LINE"
);
},
{
closed = 1;
nodes = (
"465 366 LINE",
"364 614 LINE",
"52 614 LINE",
"274 228 LINE"
);
},
{
closed = 1;
nodes = (
"498 209 LINE",
"724 614 LINE",
"492 614 LINE",
"382 343 LINE"
);
},
{
closed = 1;
nodes = (
"251 357 LINE",
"251 164 LINE",
"191 164 LINE",
"191 0 LINE",
"591 0 LINE",
"591 164 LINE",
"531 164 LINE",
"531 357 LINE"
);
}
);
};
layerId = UUID0;
paths = (
{
closed = 1;
nodes = (
"764 778 LINE",
"457 778 LINE",
"457 614 LINE",
"764 614 LINE"
);
},
{
closed = 1;
nodes = (
"399 778 LINE",
"12 778 LINE",
"12 614 LINE",
"399 614 LINE"
);
},
{
closed = 1;
nodes = (
"251 357 LINE",
"251 164 LINE",
"201 164 LINE",
"201 0 LINE",
"581 0 LINE",
"581 164 LINE",
"531 164 LINE",
"531 357 LINE"
);
},
{
closed = 1;
nodes = (
"498 209 LINE",
"724 614 LINE",
"492 614 LINE",
"433 459 LINE",
"423 459 LINE",
"364 614 LINE",
"52 614 LINE",
"274 228 LINE",
"401 320 LINE"
);
}
);
width = 776;
}
);
unicode = 0059;
},
{
color = 3;
glyphname = Z;
lastChange = "2016-08-02 20:29:22 +0000";
layers = (
{
anchors = (
{
name = bottom;
position = "{345, 0}";
},
{
name = top;
position = "{339, 778}";
}
);
background = {
paths = (
{
closed = 1;
nodes = (
"-45 0 LINE",
"733 0 LINE",
"733 270 LINE",
"492 270 LINE",
"492 176 LINE",
"383 176 LINE",
"722 647 LINE",
"722 778 LINE",
"-34 778 LINE",
"-34 520 LINE",
"207 520 LINE",
"207 611 LINE",
"313 611 LINE",
"-45 139 LINE"
);
}
);
};
layerId = UUID0;
paths = (
{
closed = 1;
nodes = (
"14 144 LINE",
"250 8 LINE",
"659 634 LINE",
"424 770 LINE"
);
},
{
closed = 1;
nodes = (
"42 164 LINE",
"14 144 LINE",
"14 0 LINE",
"675 0 LINE",
"675 246 LINE",
"476 246 LINE",
"476 164 LINE"
);
},
{
closed = 1;
nodes = (
"636 614 LINE",
"659 634 LINE",
"659 778 LINE",
"19 778 LINE",
"19 532 LINE",
"218 532 LINE",
"218 614 LINE"
);
}
);
width = 689;
}
);
unicode = 005A;
},
{
color = 3;
glyphname = a;
lastChange = "2016-08-02 13:54:26 +0000";
layers = (
{
anchors = (
{
name = bottom;
position = "{310, 0}";
},
{
name = ogonek;
position = "{472, 30}";
},
{
name = top;
position = "{315, 556}";
}
);
layerId = UUID0;
paths = (
{
closed = 1;
nodes = (
"337 0 LINE",
"601 0 LINE",
"601 164 LINE",
"557 164 LINE",
"557 349 LINE SMOOTH",
"557 496 OFFCURVE",
"484 570 OFFCURVE",
"280 570 CURVE SMOOTH",
"199 570 OFFCURVE",
"112 558 OFFCURVE",
"44 541 CURVE",
"44 357 LINE",
"99 377 OFFCURVE",
"173 392 OFFCURVE",
"235 392 CURVE SMOOTH",
"312 392 OFFCURVE",
"339 378 OFFCURVE",
"339 321 CURVE",
"352 333 LINE",
"140 333 OFFCURVE",
"18 274 OFFCURVE",
"18 139 CURVE SMOOTH",
"18 40 OFFCURVE",
"80 -14 OFFCURVE",
"179 -14 CURVE SMOOTH",
"265 -14 OFFCURVE",
"315 36 OFFCURVE",
"337 68 CURVE"
);
},
{
closed = 1;
nodes = (
"337 228 LINE SMOOTH",
"337 175 OFFCURVE",
"317 144 OFFCURVE",
"283 144 CURVE SMOOTH",
"258 144 OFFCURVE",
"243 159 OFFCURVE",
"243 182 CURVE SMOOTH",
"243 221 OFFCURVE",
"280 234 OFFCURVE",
"337 234 CURVE"
);
}
);
width = 615;
},
{
anchors = (
{
name = top;
position = "{317, 614}";
}
);
associatedMasterId = UUID0;
layerId = "BF924C2D-80C1-4B17-BCFF-90B205A7D883";
name = "Regular Jul 26 16, 20:32";
paths = (
{
closed = 1;
nodes = (
"368 0 LINE",
"642 0 LINE",
"642 164 LINE",
"598 164 LINE",
"598 328 LINE SMOOTH",
"598 489 OFFCURVE",
"535 570 OFFCURVE",
"321 570 CURVE SMOOTH",
"162 570 OFFCURVE",
"44 535 OFFCURVE",
"44 535 CURVE",
"44 363 LINE",
"110 378 OFFCURVE",
"197 392 OFFCURVE",
"276 392 CURVE SMOOTH",
"351 392 OFFCURVE",
"368 372 OFFCURVE",
"368 334 CURVE",
"119 334 OFFCURVE",
"8 266 OFFCURVE",
"8 142 CURVE SMOOTH",
"8 41 OFFCURVE",
"79 -14 OFFCURVE",
"193 -14 CURVE SMOOTH",
"289 -14 OFFCURVE",
"343 36 OFFCURVE",
"368 68 CURVE"
);
},
{
closed = 1;
nodes = (
"368 228 LINE SMOOTH",
"368 185 OFFCURVE",
"346 164 OFFCURVE",
"307 164 CURVE SMOOTH",
"269 164 OFFCURVE",
"252 173 OFFCURVE",
"252 196 CURVE SMOOTH",
"252 228 OFFCURVE",
"297 234 OFFCURVE",
"368 234 CURVE"
);
}
);
width = 652;
visible = 1;
}
);
unicode = 0061;
},
{
color = 3;
glyphname = b;
lastChange = "2016-08-02 11:50:21 +0000";
layers = (
{
anchors = (
{
name = top;
position = "{177, 778}";
}
);
background = {
paths = (
{
closed = 1;
nodes = (
"359 0 LINE",
"677 0 LINE",
"677 164 LINE",
"633 164 LINE",
"633 328 LINE SMOOTH",
"633 495 OFFCURVE",
"565 570 OFFCURVE",
"456 570 CURVE SMOOTH",
"366 570 OFFCURVE",
"319 520 OFFCURVE",
"287 488 CURVE",
"287 556 LINE",
"13 556 LINE",
"13 392 LINE",
"57 392 LINE",
"57 164 LINE",
"13 164 LINE",
"13 0 LINE",
"331 0 LINE",
"331 164 LINE",
"287 164 LINE",
"287 328 LINE SMOOTH",
"287 373 OFFCURVE",
"307 392 OFFCURVE",
"345 392 CURVE SMOOTH",
"383 392 OFFCURVE",
"403 373 OFFCURVE",
"403 328 CURVE SMOOTH",
"403 164 LINE",
"359 164 LINE"
);
},
{
closed = 1;
nodes = (
"403 228 LINE SMOOTH",
"403 183 OFFCURVE",
"383 164 OFFCURVE",
"345 164 CURVE SMOOTH",
"307 164 OFFCURVE",
"287 183 OFFCURVE",
"287 228 CURVE SMOOTH",
"287 328 LINE SMOOTH",
"287 373 OFFCURVE",
"307 392 OFFCURVE",
"345 392 CURVE SMOOTH",
"383 392 OFFCURVE",
"403 373 OFFCURVE",
"403 328 CURVE SMOOTH"
);
}
);
};
layerId = UUID0;
paths = (
{
closed = 1;
nodes = (
"292 778 LINE",
"18 778 LINE",
"18 614 LINE",
"62 614 LINE",
"62 164 LINE",
"18 164 LINE",
"18 0 LINE",
"292 0 LINE",
"292 68 LINE",
"317 36 OFFCURVE",
"371 -14 OFFCURVE",
"447 -14 CURVE SMOOTH",
"585 -14 OFFCURVE",
"652 94 OFFCURVE",
"652 278 CURVE SMOOTH",
"652 462 OFFCURVE",
"585 570 OFFCURVE",
"447 570 CURVE SMOOTH",
"371 570 OFFCURVE",
"317 520 OFFCURVE",
"292 488 CURVE"
);
},
{
closed = 1;
nodes = (
"408 228 LINE SMOOTH",
"408 183 OFFCURVE",
"388 164 OFFCURVE",
"350 164 CURVE SMOOTH",
"312 164 OFFCURVE",
"292 183 OFFCURVE",
"292 228 CURVE SMOOTH",
"292 328 LINE SMOOTH",
"292 373 OFFCURVE",
"312 392 OFFCURVE",
"350 392 CURVE SMOOTH",
"388 392 OFFCURVE",
"408 373 OFFCURVE",
"408 328 CURVE SMOOTH"
);
}
);
width = 662;
}
);
unicode = 0062;
},
{
color = 3;
glyphname = c;
lastChange = "2016-08-04 21:15:22 +0000";
layers = (
{
anchors = (
{
name = bottom;
position = "{301, 0}";
},
{
name = cedilla;
position = "{317, 0}";
},
{
name = top;
position = "{316, 556}";
}
);
background = {
paths = (
{
closed = 1;
nodes = (
"618 83 OFFCURVE",
"501 -14 OFFCURVE",
"316 -14 CURVE SMOOTH",
"131 -14 OFFCURVE",
"14 83 OFFCURVE",
"14 278 CURVE SMOOTH",
"14 473 OFFCURVE",
"131 570 OFFCURVE",
"316 570 CURVE SMOOTH",
"501 570 OFFCURVE",
"618 473 OFFCURVE",
"618 278 CURVE SMOOTH"
);
},
{
closed = 1;
nodes = (
"354 164 OFFCURVE",
"374 183 OFFCURVE",
"374 228 CURVE SMOOTH",
"374 328 LINE SMOOTH",
"374 373 OFFCURVE",
"354 392 OFFCURVE",
"316 392 CURVE SMOOTH",
"278 392 OFFCURVE",
"258 373 OFFCURVE",
"258 328 CURVE SMOOTH",
"258 228 LINE SMOOTH",
"258 183 OFFCURVE",
"278 164 OFFCURVE",
"316 164 CURVE SMOOTH"
);
}
);
};
layerId = UUID0;
paths = (
{
closed = 1;
nodes = (
"258 328 LINE SMOOTH",
"258 373 OFFCURVE",
"279 392 OFFCURVE",
"316 392 CURVE SMOOTH",
"355 392 OFFCURVE",
"374 373 OFFCURVE",
"374 328 CURVE SMOOTH",
"374 310 LINE",
"546 310 LINE",
"546 508 LINE",
"506 535 OFFCURVE",
"417 570 OFFCURVE",
"316 570 CURVE SMOOTH",
"131 570 OFFCURVE",
"14 473 OFFCURVE",
"14 278 CURVE SMOOTH",
"14 83 OFFCURVE",
"131 -14 OFFCURVE",
"317 -14 CURVE SMOOTH",
"413 -14 OFFCURVE",
"501 8 OFFCURVE",
"540 25 CURVE",
"540 182 LINE",
"479 172 OFFCURVE",
"412 164 OFFCURVE",
"347 164 CURVE SMOOTH",
"283 164 OFFCURVE",
"258 193 OFFCURVE",
"258 242 CURVE SMOOTH"
);
}
);
width = 560;
}
);
unicode = 0063;
},
{
color = 3;
glyphname = d;
lastChange = "2016-08-02 20:18:27 +0000";
layers = (
{
anchors = (
{
name = bottom;
position = "{349, 0}";
},
{
name = top;
position = "{485, 778}";
},
{
name = top_right;
position = "{637, 748}";
}
);
background = {
paths = (
{
closed = 1;
nodes = (
"306 614 LINE",
"365 614 LINE",
"365 556 LINE",
"376 488 LINE",
"353 514 OFFCURVE",
"307 570 OFFCURVE",
"228 570 CURVE SMOOTH",
"105 570 OFFCURVE",
"22 453 OFFCURVE",
"22 276 CURVE SMOOTH",
"22 92 OFFCURVE",
"105 -18 OFFCURVE",
"228 -18 CURVE SMOOTH",
"308 -18 OFFCURVE",
"356 31 OFFCURVE",
"376 68 CURVE",
"365 0 LINE",
"639 0 LINE",
"639 164 LINE",
"595 164 LINE",
"595 778 LINE",
"306 778 LINE"
);
},
{
closed = 1;
nodes = (
"363 399 OFFCURVE",
"374 366 OFFCURVE",
"376 297 CURVE SMOOTH",
"376 280 LINE",
"376 262 LINE SMOOTH",
"374 194 OFFCURVE",
"364 164 OFFCURVE",
"324 164 CURVE SMOOTH",
"279 164 OFFCURVE",
"271 202 OFFCURVE",
"271 281 CURVE SMOOTH",
"271 360 OFFCURVE",
"278 399 OFFCURVE",
"323 399 CURVE SMOOTH"
);
}
);
};
layerId = UUID0;
paths = (
{
closed = 1;
nodes = (
"370 488 LINE",
"345 520 OFFCURVE",
"291 570 OFFCURVE",
"215 570 CURVE SMOOTH",
"77 570 OFFCURVE",
"10 462 OFFCURVE",
"10 278 CURVE SMOOTH",
"10 94 OFFCURVE",
"77 -14 OFFCURVE",
"215 -14 CURVE SMOOTH",
"291 -14 OFFCURVE",
"345 36 OFFCURVE",
"370 68 CURVE",
"370 0 LINE",
"644 0 LINE",
"644 164 LINE",
"600 164 LINE",
"600 778 LINE",
"311 778 LINE",
"311 614 LINE",
"370 614 LINE"
);
},
{
closed = 1;
nodes = (
"254 328 LINE SMOOTH",
"254 373 OFFCURVE",
"274 392 OFFCURVE",
"312 392 CURVE SMOOTH",
"350 392 OFFCURVE",
"370 373 OFFCURVE",
"370 328 CURVE SMOOTH",
"370 228 LINE SMOOTH",
"370 183 OFFCURVE",
"350 164 OFFCURVE",
"312 164 CURVE SMOOTH",
"274 164 OFFCURVE",
"254 183 OFFCURVE",
"254 228 CURVE SMOOTH"
);
}
);
width = 658;
}
);
unicode = 0064;
},
{
color = 3;
glyphname = e;
lastChange = "2016-08-04 21:15:22 +0000";
layers = (
{
anchors = (
{
name = bottom;
position = "{316, 0}";
},
{
name = cedilla;
position = "{316, 0}";
},
{
name = ogonek;
position = "{343, 30}";
},
{
name = top;
position = "{316, 556}";
}
);
layerId = UUID0;
paths = (
{
closed = 1;
nodes = (
"131 570 OFFCURVE",
"14 473 OFFCURVE",
"14 278 CURVE SMOOTH",
"14 83 OFFCURVE",
"131 -14 OFFCURVE",
"316 -14 CURVE SMOOTH",
"432 -14 OFFCURVE",
"526 15 OFFCURVE",
"565 36 CURVE",
"565 196 LINE",
"517 180 OFFCURVE",
"441 164 OFFCURVE",
"353 164 CURVE SMOOTH",
"283 164 OFFCURVE",
"258 188 OFFCURVE",
"258 236 CURVE SMOOTH",
"258 242 LINE",
"582 242 LINE",
"582 314 LINE SMOOTH",
"582 440 OFFCURVE",
"521 570 OFFCURVE",
"316 570 CURVE SMOOTH"
);
},
{
closed = 1;
nodes = (
"353 428 OFFCURVE",
"374 410 OFFCURVE",
"374 364 CURVE SMOOTH",
"374 352 LINE",
"258 352 LINE",
"258 364 LINE SMOOTH",
"258 409 OFFCURVE",
"278 428 OFFCURVE",
"316 428 CURVE SMOOTH"
);
}
);
width = 594;
},
{
anchors = (
{
name = top;
position = "{305, 614}";
}
);
associatedMasterId = UUID0;
layerId = "D21A9A77-13FC-4F15-87BE-6A2C1CA58C7C";
name = "Regular Aug 1 16, 15:00";
paths = (
{
closed = 1;
nodes = (
"310 570 LINE SMOOTH",
"125 570 OFFCURVE",
"8 473 OFFCURVE",
"8 278 CURVE SMOOTH",
"8 83 OFFCURVE",
"125 -14 OFFCURVE",
"310 -14 CURVE SMOOTH",
"469 -14 OFFCURVE",
"559 36 OFFCURVE",
"559 36 CURVE",
"559 196 LINE",
"511 180 OFFCURVE",
"435 164 OFFCURVE",
"347 164 CURVE SMOOTH",
"277 164 OFFCURVE",
"252 188 OFFCURVE",
"252 236 CURVE SMOOTH",
"252 242 LINE",
"576 242 LINE",
"576 314 LINE SMOOTH",
"576 440 OFFCURVE",
"515 570 OFFCURVE",
"310 570 CURVE SMOOTH"
);
},
{
closed = 1;
nodes = (
"310 392 LINE SMOOTH",
"348 392 OFFCURVE",
"368 373 OFFCURVE",
"368 328 CURVE SMOOTH",
"368 322 LINE",
"252 322 LINE",
"252 328 LINE SMOOTH",
"252 373 OFFCURVE",
"272 392 OFFCURVE",
"310 392 CURVE SMOOTH"
);
}
);
width = 588;
visible = 1;
}
);
unicode = 0065;
},
{
color = 3;
glyphname = f;
lastChange = "2016-08-02 08:43:47 +0000";
layers = (
{
background = {
paths = (
{
closed = 1;
nodes = (
"18 614 LINE",
"62 614 LINE",
"62 164 LINE",
"18 164 LINE",
"18 0 LINE",
"336 0 LINE",
"336 164 LINE",
"292 164 LINE",
"292 778 LINE",
"18 778 LINE"
);
}
);
};
layerId = UUID0;
paths = (
{
closed = 1;
nodes = (
"18 392 LINE",
"62 392 LINE",
"62 164 LINE",
"18 164 LINE",
"18 0 LINE",
"370 0 LINE",
"370 164 LINE",
"292 164 LINE",
"292 392 LINE",
"370 392 LINE",
"370 556 LINE",
"292 556 LINE",
"292 598 OFFCURVE",
"309 614 OFFCURVE",
"361 614 CURVE SMOOTH",
"397 614 OFFCURVE",
"438 611 OFFCURVE",
"459 609 CURVE",
"459 766 LINE",
"437 777 OFFCURVE",
"377 792 OFFCURVE",
"297 792 CURVE SMOOTH",
"150 792 OFFCURVE",
"64 723 OFFCURVE",
"64 556 CURVE",
"18 556 LINE"
);
}
);
width = 384;
}
);
unicode = 0066;
},
{
color = 3;
glyphname = g;
lastChange = "2016-08-02 18:53:23 +0000";
layers = (
{
anchors = (
{
name = top;
position = "{342, 556}";
}
);
background = {
paths = (
{
closed = 1;
nodes = (
"365 488 LINE",
"332 520 OFFCURVE",
"286 570 OFFCURVE",
"196 570 CURVE SMOOTH",
"58 570 OFFCURVE",
"5 486 OFFCURVE",
"5 278 CURVE SMOOTH",
"5 70 OFFCURVE",
"58 -14 OFFCURVE",
"196 -14 CURVE SMOOTH",
"286 -14 OFFCURVE",
"332 36 OFFCURVE",
"365 68 CURVE",
"365 0 LINE",
"639 0 LINE",
"639 164 LINE",
"595 164 LINE",
"595 778 LINE",
"306 778 LINE",
"306 614 LINE",
"365 614 LINE"
);
},
{
closed = 1;
nodes = (
"249 328 LINE SMOOTH",
"249 373 OFFCURVE",
"269 392 OFFCURVE",
"307 392 CURVE SMOOTH",
"345 392 OFFCURVE",
"365 373 OFFCURVE",
"365 328 CURVE SMOOTH",
"365 228 LINE SMOOTH",
"365 183 OFFCURVE",
"345 164 OFFCURVE",
"307 164 CURVE SMOOTH",
"269 164 OFFCURVE",
"249 183 OFFCURVE",
"249 228 CURVE SMOOTH"
);
}
);
};
layerId = UUID0;
paths = (
{
closed = 1;
nodes = (
"370 488 LINE",
"345 520 OFFCURVE",
"291 570 OFFCURVE",
"215 570 CURVE SMOOTH",
"77 570 OFFCURVE",
"10 462 OFFCURVE",
"10 278 CURVE SMOOTH",
"10 94 OFFCURVE",
"77 -14 OFFCURVE",
"215 -14 CURVE SMOOTH",
"291 -14 OFFCURVE",
"345 36 OFFCURVE",
"370 68 CURVE",
"370 25 LINE SMOOTH",
"370 -42 OFFCURVE",
"334 -58 OFFCURVE",
"262 -58 CURVE SMOOTH",
"197 -58 OFFCURVE",
"128 -49 OFFCURVE",
"72 -39 CURVE",
"72 -203 LINE",
"112 -217 OFFCURVE",
"205 -236 OFFCURVE",
"311 -236 CURVE SMOOTH",
"499 -236 OFFCURVE",
"600 -157 OFFCURVE",
"600 40 CURVE SMOOTH",
"600 392 LINE",
"644 392 LINE",
"644 556 LINE",
"370 556 LINE"
);
},
{
closed = 1;
nodes = (
"254 328 LINE SMOOTH",
"254 373 OFFCURVE",
"274 392 OFFCURVE",
"312 392 CURVE SMOOTH",
"350 392 OFFCURVE",
"370 373 OFFCURVE",
"370 328 CURVE SMOOTH",
"370 228 LINE SMOOTH",
"370 183 OFFCURVE",
"350 164 OFFCURVE",
"312 164 CURVE SMOOTH",
"274 164 OFFCURVE",
"254 183 OFFCURVE",
"254 228 CURVE SMOOTH"
);
}
);
width = 654;
}
);
unicode = 0067;
},
{
color = 3;
glyphname = h;
lastChange = "2016-08-02 20:19:57 +0000";
layers = (
{
anchors = (
{
name = bottom;
position = "{350, 0}";
},
{
name = top;
position = "{177, 778}";
}
);
layerId = UUID0;
paths = (
{
closed = 1;
nodes = (
"324 525 OFFCURVE",
"382 570 OFFCURVE",
"472 570 CURVE SMOOTH",
"586 570 OFFCURVE",
"638 492 OFFCURVE",
"638 375 CURVE SMOOTH",
"638 164 LINE",
"682 164 LINE",
"682 0 LINE",
"366 0 LINE",
"366 164 LINE",
"408 164 LINE",
"408 328 LINE SMOOTH",
"408 373 OFFCURVE",
"389 392 OFFCURVE",
"352 392 CURVE SMOOTH",
"313 392 OFFCURVE",
"292 373 OFFCURVE",
"292 328 CURVE SMOOTH",
"292 164 LINE",
"334 164 LINE",
"334 0 LINE",
"18 0 LINE",
"18 164 LINE",
"62 164 LINE",
"62 614 LINE",
"18 614 LINE",
"18 778 LINE",
"292 778 LINE",
"292 448 LINE",
"272 452 LINE"
);
}
);
width = 696;
}
);
unicode = 0068;
},
{
color = 3;
glyphname = i;
lastChange = "2016-08-02 13:54:26 +0000";
layers = (
{
anchors = (
{
name = bottom;
position = "{177, 0}";
},
{
name = ogonek;
position = "{197, 31}";
}
);
layerId = UUID0;
paths = (
{
closed = 1;
nodes = (
"292 556 LINE",
"18 556 LINE",
"18 392 LINE",
"62 392 LINE",
"62 164 LINE",
"18 164 LINE",
"18 0 LINE",
"336 0 LINE",
"336 164 LINE",
"292 164 LINE"
);
},
{
closed = 1;
nodes = (
"66 611 LINE",
"270 611 LINE",
"270 778 LINE",
"66 778 LINE"
);
}
);
width = 346;
}
);
unicode = 0069;
},
{
color = 3;
glyphname = j;
lastChange = "2016-08-02 19:58:15 +0000";
layers = (
{
background = {
paths = (
{
closed = 1;
nodes = (
"287 556 LINE",
"13 556 LINE",
"13 392 LINE",
"57 392 LINE",
"57 164 LINE",
"13 164 LINE",
"13 0 LINE",
"331 0 LINE",
"331 164 LINE",
"287 164 LINE"
);
},
{
closed = 1;
nodes = (
"71 611 LINE",
"255 611 LINE",
"255 778 LINE",
"71 778 LINE"
);
}
);
};
layerId = UUID0;
paths = (
{
closed = 1;
nodes = (
"-10 392 LINE",
"57 392 LINE",
"57 14 LINE SMOOTH",
"57 -36 OFFCURVE",
"29 -58 OFFCURVE",
"-20 -58 CURVE SMOOTH",
"-48 -58 OFFCURVE",
"-84 -54 OFFCURVE",
"-104 -51 CURVE",
"-104 -214 LINE",
"-72 -223 OFFCURVE",
"-7 -236 OFFCURVE",
"54 -236 CURVE SMOOTH",
"210 -236 OFFCURVE",
"287 -149 OFFCURVE",
"287 34 CURVE SMOOTH",
"287 556 LINE",
"-10 556 LINE"
);
},
{
closed = 1;
nodes = (
"61 611 LINE",
"265 611 LINE",
"265 778 LINE",
"61 778 LINE"
);
}
);
width = 313;
},
{
associatedMasterId = UUID0;
background = {
paths = (
{
closed = 1;
nodes = (
"301 556 LINE",
"27 556 LINE",
"27 392 LINE",
"71 392 LINE",
"71 164 LINE",
"27 164 LINE",
"27 0 LINE",
"345 0 LINE",
"345 164 LINE",
"301 164 LINE"
);
},
{
closed = 1;
nodes = (
"85 611 LINE",
"269 611 LINE",
"269 778 LINE",
"85 778 LINE"
);
}
);
};
layerId = "C52241FC-7CAE-4FE5-999D-873A3152695F";
name = "Regular Aug 2 16, 14:36";
paths = (
{
closed = 1;
nodes = (
"4 392 LINE",
"71 392 LINE",
"71 14 LINE SMOOTH",
"71 -36 OFFCURVE",
"47 -58 OFFCURVE",
"4 -58 CURVE SMOOTH",
"-27 -58 OFFCURVE",
"-68 -54 OFFCURVE",
"-90 -51 CURVE",
"-90 -214 LINE",
"-58 -223 OFFCURVE",
"7 -236 OFFCURVE",
"68 -236 CURVE SMOOTH",
"224 -236 OFFCURVE",
"301 -149 OFFCURVE",
"301 34 CURVE SMOOTH",
"301 556 LINE",
"4 556 LINE"
);
},
{
closed = 1;
nodes = (
"85 611 LINE",
"269 611 LINE",
"269 778 LINE",
"85 778 LINE"
);
}
);
width = 327;
}
);
unicode = 006A;
},
{
color = 3;
glyphname = k;
lastChange = "2016-08-02 11:51:03 +0000";
layers = (
{
anchors = (
{
name = bottom;
position = "{337, 0}";
},
{
name = top;
position = "{177, 778}";
}
);
background = {
paths = (
{
closed = 1;
nodes = (
"62 0 LINE",
"292 0 LINE",
"292 778 LINE",
"62 778 LINE"
);
},
{
closed = 1;
nodes = (
"18 614 LINE",
"253 614 LINE",
"253 778 LINE",
"18 778 LINE"
);
},
{
closed = 1;
nodes = (
"292 212 LINE",
"632 409 LINE",
"428 409 LINE",
"292 334 LINE"
);
},
{
closed = 1;
nodes = (
"354 280 LINE",
"408 164 LINE",
"624 164 LINE",
"533 359 LINE"
);
},
{
closed = 1;
nodes = (
"657 556 LINE",
"344 556 LINE",
"344 392 LINE",
"657 392 LINE"
);
},
{
closed = 1;
nodes = (
"18 0 LINE",
"336 0 LINE",
"336 164 LINE",
"18 164 LINE"
);
},
{
closed = 1;
nodes = (
"364 0 LINE",
"667 0 LINE",
"667 164 LINE",
"364 164 LINE"
);
}
);
};
layerId = UUID0;
paths = (
{
closed = 1;
nodes = (
"62 0 LINE",
"292 0 LINE",
"292 778 LINE",
"62 778 LINE"
);
},
{
closed = 1;
nodes = (
"18 614 LINE",
"253 614 LINE",
"253 778 LINE",
"18 778 LINE"
);
},
{
closed = 1;
nodes = (
"18 0 LINE",
"268 0 LINE",
"268 164 LINE",
"18 164 LINE"
);
},
{
closed = 1;
nodes = (
"651 392 LINE",
"651 556 LINE",
"440 556 LINE",
"316 372 LINE",
"292 372 LINE",
"292 192 LINE",
"316 192 LINE",
"419 0 LINE",
"664 0 LINE",
"664 164 LINE",
"621 164 LINE",
"525 297 LINE",
"610 392 LINE"
);
}
);
width = 678;
}
);
unicode = 006B;
},
{
color = 3;
glyphname = l;
lastChange = "2016-08-02 19:16:33 +0000";
layers = (
{
anchors = (
{
name = bottom;
position = "{177, 0}";
},
{
name = center;
position = "{430, 430}";
},
{
name = top;
position = "{177, 778}";
},
{
name = top_right;
position = "{330, 748}";
}
);
layerId = UUID0;
paths = (
{
closed = 1;
nodes = (
"18 614 LINE",
"62 614 LINE",
"62 164 LINE",
"18 164 LINE",
"18 -1 LINE",
"336 -1 LINE",
"336 164 LINE",
"292 164 LINE",
"292 778 LINE",
"18 778 LINE"
);
}
);
width = 350;
}
);
unicode = 006C;
},
{
color = 3;
glyphname = m;
lastChange = "2016-08-02 20:24:30 +0000";
layers = (
{
anchors = (
{
name = bottom;
position = "{523, 0}";
},
{
name = top;
position = "{588, 556}";
}
);
layerId = UUID0;
paths = (
{
closed = 1;
nodes = (
"634 428 LINE",
"620 515 OFFCURVE",
"568 570 OFFCURVE",
"472 570 CURVE SMOOTH",
"379 570 OFFCURVE",
"319 521 OFFCURVE",
"273 452 CURVE",
"292 443 LINE",
"292 556 LINE",
"18 556 LINE",
"18 392 LINE",
"62 392 LINE",
"62 164 LINE",
"18 164 LINE",
"18 0 LINE",
"334 0 LINE",
"334 164 LINE",
"292 164 LINE",
"292 328 LINE SMOOTH",
"292 373 OFFCURVE",
"313 392 OFFCURVE",
"352 392 CURVE SMOOTH",
"389 392 OFFCURVE",
"408 373 OFFCURVE",
"408 328 CURVE SMOOTH",
"408 164 LINE",
"366 164 LINE",
"366 0 LINE",
"680 0 LINE",
"680 164 LINE",
"638 164 LINE",
"638 328 LINE SMOOTH",
"638 373 OFFCURVE",
"659 392 OFFCURVE",
"698 392 CURVE SMOOTH",
"735 392 OFFCURVE",
"754 373 OFFCURVE",
"754 328 CURVE SMOOTH",
"754 164 LINE",
"712 164 LINE",
"712 0 LINE",
"1028 0 LINE",
"1028 164 LINE",
"984 164 LINE",
"984 374 LINE SMOOTH",
"984 491 OFFCURVE",
"932 569 OFFCURVE",
"818 569 CURVE SMOOTH",
"725 569 OFFCURVE",
"665 520 OFFCURVE",
"619 451 CURVE"
);
}
);
width = 1042;
},
{
associatedMasterId = UUID0;
layerId = "D4D304BD-7050-4BD0-8007-5ABAD4B436A8";
name = "Regular Aug 1 16, 11:37";
paths = (
{
closed = 1;
nodes = (
"364 0 LINE",
"682 0 LINE",
"682 164 LINE",
"638 164 LINE",
"638 328 LINE SMOOTH",
"638 373 OFFCURVE",
"658 392 OFFCURVE",
"696 392 CURVE SMOOTH",
"734 392 OFFCURVE",
"754 373 OFFCURVE",
"754 328 CURVE SMOOTH",
"754 164 LINE",
"710 164 LINE",
"710 0 LINE",
"1028 0 LINE",
"1028 164 LINE",
"984 164 LINE",
"984 328 LINE SMOOTH",
"984 495 OFFCURVE",
"916 570 OFFCURVE",
"807 570 CURVE SMOOTH",
"706 570 OFFCURVE",
"658 525 OFFCURVE",
"618 488 CURVE",
"592 527 OFFCURVE",
"552 570 OFFCURVE",
"461 570 CURVE SMOOTH",
"371 570 OFFCURVE",
"324 520 OFFCURVE",
"292 488 CURVE",
"292 556 LINE",
"18 556 LINE",
"18 392 LINE",
"62 392 LINE",
"62 164 LINE",
"18 164 LINE",
"18 0 LINE",
"336 0 LINE",
"336 164 LINE",
"292 164 LINE",
"292 328 LINE SMOOTH",
"292 373 OFFCURVE",
"312 392 OFFCURVE",
"350 392 CURVE SMOOTH",
"388 392 OFFCURVE",
"408 373 OFFCURVE",
"408 328 CURVE SMOOTH",
"408 164 LINE",
"364 164 LINE"
);
}
);
width = 1038;
visible = 1;
}
);
leftMetricsKey = "=n";
rightMetricsKey = "=n";
unicode = 006D;
},
{
color = 3;
glyphname = n;
lastChange = "2016-08-02 13:54:26 +0000";
layers = (
{
anchors = (
{
name = bottom;
position = "{350, 1}";
},
{
name = top;
position = "{351, 556}";
}
);
background = {
paths = (
{
closed = 1;
nodes = (
"359 0 LINE",
"677 0 LINE",
"677 164 LINE",
"633 164 LINE",
"633 328 LINE SMOOTH",
"633 495 OFFCURVE",
"565 570 OFFCURVE",
"456 570 CURVE SMOOTH",
"366 570 OFFCURVE",
"319 520 OFFCURVE",
"287 488 CURVE",
"287 556 LINE",
"13 556 LINE",
"13 392 LINE",
"57 392 LINE",
"57 164 LINE",
"13 164 LINE",
"13 0 LINE",
"331 0 LINE",
"331 164 LINE",
"287 164 LINE",
"287 328 LINE SMOOTH",
"287 373 OFFCURVE",
"307 392 OFFCURVE",
"345 392 CURVE SMOOTH",
"383 392 OFFCURVE",
"403 373 OFFCURVE",
"403 328 CURVE SMOOTH",
"403 164 LINE",
"359 164 LINE"
);
}
);
};
layerId = UUID0;
paths = (
{
closed = 1;
nodes = (
"379 570 OFFCURVE",
"319 521 OFFCURVE",
"273 452 CURVE",
"292 443 LINE",
"292 556 LINE",
"18 556 LINE",
"18 392 LINE",
"62 392 LINE",
"62 164 LINE",
"18 164 LINE",
"18 0 LINE",
"334 0 LINE",
"334 164 LINE",
"292 164 LINE",
"292 328 LINE SMOOTH",
"292 373 OFFCURVE",
"313 392 OFFCURVE",
"352 392 CURVE SMOOTH",
"389 392 OFFCURVE",
"408 373 OFFCURVE",
"408 328 CURVE SMOOTH",
"408 164 LINE",
"366 164 LINE",
"366 0 LINE",
"682 0 LINE",
"682 164 LINE",
"638 164 LINE",
"638 375 LINE SMOOTH",
"638 492 OFFCURVE",
"586 570 OFFCURVE",
"472 570 CURVE SMOOTH"
);
}
);
width = 696;
}
);
unicode = 006E;
},
{
color = 3;
glyphname = o;
lastChange = "2016-08-02 22:39:26 +0000";
layers = (
{
anchors = (
{
name = bottom;
position = "{316, 0}";
},
{
name = ogonek;
position = "{343, 30}";
},
{
name = top;
position = "{316, 556}";
}
);
layerId = UUID0;
paths = (
{
closed = 1;
nodes = (
"618 468 OFFCURVE",
"506 570 OFFCURVE",
"316 570 CURVE SMOOTH",
"131 570 OFFCURVE",
"14 473 OFFCURVE",
"14 278 CURVE SMOOTH",
"14 83 OFFCURVE",
"131 -14 OFFCURVE",
"316 -14 CURVE SMOOTH",
"501 -14 OFFCURVE",
"618 83 OFFCURVE",
"618 278 CURVE SMOOTH"
);
},
{
closed = 1;
nodes = (
"277 164 OFFCURVE",
"258 184 OFFCURVE",
"258 228 CURVE SMOOTH",
"258 328 LINE SMOOTH",
"258 373 OFFCURVE",
"278 392 OFFCURVE",
"316 392 CURVE SMOOTH",
"354 392 OFFCURVE",
"374 373 OFFCURVE",
"374 328 CURVE SMOOTH",
"374 228 LINE SMOOTH",
"374 183 OFFCURVE",
"354 164 OFFCURVE",
"316 164 CURVE SMOOTH"
);
}
);
width = 632;
},
{
anchors = (
{
name = top;
position = "{310, 614}";
}
);
associatedMasterId = UUID0;
layerId = "2038F8C5-67E9-4C74-AEFF-1FE1FDDCA45E";
name = "Regular Aug 2 16, 01:37";
paths = (
{
closed = 1;
nodes = (
"612 278 LINE",
"612 473 OFFCURVE",
"495 570 OFFCURVE",
"310 570 CURVE SMOOTH",
"125 570 OFFCURVE",
"8 473 OFFCURVE",
"8 278 CURVE SMOOTH",
"8 83 OFFCURVE",
"125 -14 OFFCURVE",
"310 -14 CURVE SMOOTH",
"495 -14 OFFCURVE",
"612 83 OFFCURVE",
"612 278 CURVE SMOOTH"
);
},
{
closed = 1;
nodes = (
"310 164 LINE",
"272 164 OFFCURVE",
"252 183 OFFCURVE",
"252 228 CURVE SMOOTH",
"252 328 LINE SMOOTH",
"252 373 OFFCURVE",
"272 392 OFFCURVE",
"310 392 CURVE SMOOTH",
"348 392 OFFCURVE",
"368 373 OFFCURVE",
"368 328 CURVE SMOOTH",
"368 228 LINE SMOOTH",
"368 183 OFFCURVE",
"348 164 OFFCURVE",
"310 164 CURVE SMOOTH"
);
}
);
width = 620;
visible = 1;
}
);
unicode = 006F;
},
{
color = 3;
glyphname = p;
lastChange = "2016-08-02 11:51:37 +0000";
layers = (
{
anchors = (
{
name = top;
position = "{309, 556}";
}
);
background = {
paths = (
{
closed = 1;
nodes = (
"267 41 LINE",
"296 13 OFFCURVE",
"332 -16 OFFCURVE",
"405 -16 CURVE SMOOTH",
"517 -16 OFFCURVE",
"596 83 OFFCURVE",
"596 248 CURVE SMOOTH",
"596 408 OFFCURVE",
"517 513 OFFCURVE",
"405 513 CURVE SMOOTH",
"332 513 OFFCURVE",
"301 492 OFFCURVE",
"267 468 CURVE"
);
},
{
closed = 1;
nodes = (
"354 397 OFFCURVE",
"362 353 OFFCURVE",
"362 252 CURVE SMOOTH",
"362 151 OFFCURVE",
"355 106 OFFCURVE",
"315 106 CURVE SMOOTH",
"275 106 OFFCURVE",
"267 143 OFFCURVE",
"267 253 CURVE SMOOTH",
"267 363 OFFCURVE",
"274 397 OFFCURVE",
"314 397 CURVE SMOOTH"
);
},
{
closed = 1;
nodes = (
"354 359 OFFCURVE",
"362 324 OFFCURVE",
"362 253 CURVE SMOOTH",
"362 182 OFFCURVE",
"354 148 OFFCURVE",
"314 148 CURVE SMOOTH",
"274 148 OFFCURVE",
"267 180 OFFCURVE",
"267 252 CURVE SMOOTH",
"267 324 OFFCURVE",
"274 359 OFFCURVE",
"314 359 CURVE SMOOTH"
);
}
);
};
layerId = UUID0;
paths = (
{
closed = 1;
nodes = (
"357 -58 LINE",
"288 -58 LINE",
"288 68 LINE",
"313 36 OFFCURVE",
"367 -14 OFFCURVE",
"443 -14 CURVE SMOOTH",
"581 -14 OFFCURVE",
"648 94 OFFCURVE",
"648 278 CURVE SMOOTH",
"648 462 OFFCURVE",
"581 570 OFFCURVE",
"443 570 CURVE SMOOTH",
"367 570 OFFCURVE",
"313 520 OFFCURVE",
"288 488 CURVE",
"288 556 LINE",
"14 556 LINE",
"14 392 LINE",
"58 392 LINE",
"58 -58 LINE",
"14 -58 LINE",
"14 -222 LINE",
"357 -222 LINE"
);
},
{
closed = 1;
nodes = (
"404 228 LINE SMOOTH",
"404 183 OFFCURVE",
"384 164 OFFCURVE",
"346 164 CURVE SMOOTH",
"308 164 OFFCURVE",
"288 183 OFFCURVE",
"288 228 CURVE SMOOTH",
"288 328 LINE SMOOTH",
"288 373 OFFCURVE",
"308 392 OFFCURVE",
"346 392 CURVE SMOOTH",
"384 392 OFFCURVE",
"404 373 OFFCURVE",
"404 328 CURVE SMOOTH"
);
}
);
width = 658;
}
);
unicode = 0070;
},
{
color = 3;
glyphname = q;
lastChange = "2016-08-01 20:13:53 +0000";
layers = (
{
layerId = UUID0;
paths = (
{
closed = 1;
nodes = (
"370 -58 LINE",
"301 -58 LINE",
"301 -222 LINE",
"600 -222 LINE",
"600 392 LINE",
"644 392 LINE",
"644 556 LINE",
"370 556 LINE",
"370 488 LINE",
"345 520 OFFCURVE",
"291 570 OFFCURVE",
"215 570 CURVE SMOOTH",
"77 570 OFFCURVE",
"10 462 OFFCURVE",
"10 278 CURVE SMOOTH",
"10 94 OFFCURVE",
"77 -14 OFFCURVE",
"215 -14 CURVE SMOOTH",
"291 -14 OFFCURVE",
"345 36 OFFCURVE",
"370 68 CURVE"
);
},
{
closed = 1;
nodes = (
"254 328 LINE SMOOTH",
"254 373 OFFCURVE",
"274 392 OFFCURVE",
"312 392 CURVE SMOOTH",
"350 392 OFFCURVE",
"370 373 OFFCURVE",
"370 328 CURVE SMOOTH",
"370 228 LINE SMOOTH",
"370 183 OFFCURVE",
"350 164 OFFCURVE",
"312 164 CURVE SMOOTH",
"274 164 OFFCURVE",
"254 183 OFFCURVE",
"254 228 CURVE SMOOTH"
);
}
);
width = 652;
}
);
unicode = 0071;
},
{
color = 3;
glyphname = r;
lastChange = "2016-08-02 20:54:22 +0000";
layers = (
{
anchors = (
{
name = bottom;
position = "{201, 0}";
},
{
name = top;
position = "{259, 556}";
}
);
layerId = UUID0;
paths = (
{
closed = 1;
nodes = (
"20 392 LINE",
"64 392 LINE",
"64 164 LINE",
"20 164 LINE",
"20 0 LINE",
"384 0 LINE",
"384 164 LINE",
"294 164 LINE",
"294 251 LINE SMOOTH",
"294 339 OFFCURVE",
"342 382 OFFCURVE",
"425 382 CURVE SMOOTH",
"459 382 OFFCURVE",
"489 375 OFFCURVE",
"513 365 CURVE",
"513 556 LINE",
"499 563 OFFCURVE",
"473 570 OFFCURVE",
"445 570 CURVE SMOOTH",
"360 570 OFFCURVE",
"314 521 OFFCURVE",
"275 452 CURVE",
"294 443 LINE",
"294 556 LINE",
"20 556 LINE"
);
}
);
width = 527;
},
{
anchors = (
{
name = bottom;
position = "{188, 0}";
},
{
name = top;
position = "{277, 614}";
}
);
associatedMasterId = UUID0;
layerId = "A9B2260F-E410-4C9B-85A8-F30018FDA52C";
name = "Regular Aug 1 16, 11:17";
paths = (
{
closed = 1;
nodes = (
"18 392 LINE",
"62 392 LINE",
"62 164 LINE",
"18 164 LINE",
"18 0 LINE",
"383 0 LINE",
"383 164 LINE",
"292 164 LINE",
"292 261 LINE SMOOTH",
"292 357 OFFCURVE",
"330 392 OFFCURVE",
"418 392 CURVE SMOOTH",
"454 392 OFFCURVE",
"492 387 OFFCURVE",
"511 383 CURVE",
"511 556 LINE",
"499 562 OFFCURVE",
"468 570 OFFCURVE",
"430 570 CURVE SMOOTH",
"361 570 OFFCURVE",
"320 525 OFFCURVE",
"302 487 CURVE",
"292 490 LINE",
"292 556 LINE",
"18 556 LINE"
);
}
);
width = 521;
},
{
anchors = (
{
name = bottom;
position = "{188, 0}";
},
{
name = top;
position = "{277, 614}";
}
);
associatedMasterId = UUID0;
layerId = "CBCC890E-8A78-4628-970F-AAD933B40464";
name = "Regular Aug 1 16, 11:20";
paths = (
{
closed = 1;
nodes = (
"18 392 LINE",
"62 392 LINE",
"62 164 LINE",
"18 164 LINE",
"18 0 LINE",
"383 0 LINE",
"383 164 LINE",
"292 164 LINE",
"292 261 LINE SMOOTH",
"292 349 OFFCURVE",
"335 392 OFFCURVE",
"423 392 CURVE SMOOTH",
"457 392 OFFCURVE",
"487 384 OFFCURVE",
"511 373 CURVE",
"511 556 LINE",
"496 563 OFFCURVE",
"466 570 OFFCURVE",
"439 570 CURVE SMOOTH",
"379 570 OFFCURVE",
"328 539 OFFCURVE",
"302 487 CURVE",
"292 490 LINE",
"292 556 LINE",
"18 556 LINE"
);
},
{
closed = 0;
nodes = (
"461 570 LINE SMOOTH",
"357 570 OFFCURVE",
"310 503 OFFCURVE",
"278 475 CURVE",
"292 443 LINE",
"292 556 LINE"
);
}
);
width = 521;
visible = 1;
}
);
unicode = 0072;
},
{
color = 3;
glyphname = s;
lastChange = "2016-08-02 19:25:11 +0000";
layers = (
{
anchors = (
{
name = top;
position = "{279, 614}";
}
);
associatedMasterId = UUID0;
layerId = "0815613E-6862-46A3-ABCB-51B6E61F71FE";
name = "Regular Jul 26 16, 17:39";
paths = (
{
closed = 1;
nodes = (
"35 156 LINE",
"89 148 OFFCURVE",
"180 138 OFFCURVE",
"234 138 CURVE SMOOTH",
"293 138 OFFCURVE",
"306 148 OFFCURVE",
"306 164 CURVE SMOOTH",
"306 182 OFFCURVE",
"292 188 OFFCURVE",
"229 197 CURVE SMOOTH",
"90 216 OFFCURVE",
"6 275 OFFCURVE",
"6 387 CURVE SMOOTH",
"6 491 OFFCURVE",
"79 570 OFFCURVE",
"261 570 CURVE SMOOTH",
"373 570 OFFCURVE",
"459 553 OFFCURVE",
"493 540 CURVE",
"493 405 LINE",
"447 411 OFFCURVE",
"363 419 OFFCURVE",
"303 419 CURVE SMOOTH",
"249 419 OFFCURVE",
"226 411 OFFCURVE",
"226 395 CURVE SMOOTH",
"226 379 OFFCURVE",
"240 372 OFFCURVE",
"302 366 CURVE SMOOTH",
"456 350 OFFCURVE",
"528 294 OFFCURVE",
"528 178 CURVE SMOOTH",
"528 59 OFFCURVE",
"449 -14 OFFCURVE",
"276 -14 CURVE SMOOTH",
"165 -14 OFFCURVE",
"73 4 OFFCURVE",
"35 17 CURVE"
);
}
);
width = 534;
},
{
anchors = (
{
name = top;
position = "{248, 614}";
}
);
associatedMasterId = UUID0;
layerId = "92020503-0CAB-49BE-BD66-F27B1D652DC0";
name = "Regular Jul 26 16, 20:53";
paths = (
{
closed = 1;
nodes = (
"78 4 OFFCURVE",
"157 -14 OFFCURVE",
"254 -14 CURVE SMOOTH",
"408 -14 OFFCURVE",
"497 50 OFFCURVE",
"497 173 CURVE SMOOTH",
"497 268 OFFCURVE",
"454 336 OFFCURVE",
"332 364 CURVE SMOOTH",
"264 379 LINE SMOOTH",
"220 389 OFFCURVE",
"200 396 OFFCURVE",
"200 421 CURVE SMOOTH",
"200 441 OFFCURVE",
"216 453 OFFCURVE",
"251 453 CURVE SMOOTH",
"283 453 OFFCURVE",
"303 440 OFFCURVE",
"303 414 CURVE SMOOTH",
"303 399 LINE",
"465 399 LINE",
"465 508 LINE",
"422 537 OFFCURVE",
"347 570 OFFCURVE",
"240 570 CURVE SMOOTH",
"106 570 OFFCURVE",
"10 505 OFFCURVE",
"10 388 CURVE SMOOTH",
"10 291 OFFCURVE",
"63 225 OFFCURVE",
"162 201 CURVE SMOOTH",
"228 186 LINE SMOOTH",
"275 175 OFFCURVE",
"297 165 OFFCURVE",
"297 139 CURVE SMOOTH",
"297 114 OFFCURVE",
"278 103 OFFCURVE",
"245 103 CURVE SMOOTH",
"204 103 OFFCURVE",
"182 117 OFFCURVE",
"182 149 CURVE SMOOTH",
"182 164 LINE",
"10 164 LINE",
"10 36 LINE"
);
}
);
width = 507;
},
{
anchors = (
{
name = top;
position = "{248, 614}";
}
);
associatedMasterId = UUID0;
layerId = "DC4C56CC-3DA4-42DB-836E-4B08AA74EC82";
name = "Regular Aug 1 16, 12:38";
paths = (
{
closed = 1;
nodes = (
"18 160 LINE",
"77 150 OFFCURVE",
"175 138 OFFCURVE",
"234 138 CURVE SMOOTH",
"293 138 OFFCURVE",
"306 148 OFFCURVE",
"306 164 CURVE SMOOTH",
"306 182 OFFCURVE",
"292 188 OFFCURVE",
"229 197 CURVE SMOOTH",
"90 216 OFFCURVE",
"6 275 OFFCURVE",
"6 387 CURVE SMOOTH",
"6 491 OFFCURVE",
"79 570 OFFCURVE",
"261 570 CURVE SMOOTH",
"377 570 OFFCURVE",
"467 551 OFFCURVE",
"502 537 CURVE",
"502 402 LINE",
"454 409 OFFCURVE",
"366 419 OFFCURVE",
"303 419 CURVE SMOOTH",
"249 419 OFFCURVE",
"226 411 OFFCURVE",
"226 395 CURVE SMOOTH",
"226 379 OFFCURVE",
"240 372 OFFCURVE",
"302 366 CURVE SMOOTH",
"456 350 OFFCURVE",
"528 294 OFFCURVE",
"528 178 CURVE SMOOTH",
"528 59 OFFCURVE",
"449 -14 OFFCURVE",
"276 -14 CURVE SMOOTH",
"157 -14 OFFCURVE",
"59 6 OFFCURVE",
"18 21 CURVE"
);
}
);
width = 543;
},
{
anchors = (
{
name = bottom;
position = "{261, 0}";
},
{
name = cedilla;
position = "{252, 0}";
},
{
name = top;
position = "{252, 556}";
}
);
layerId = UUID0;
paths = (
{
closed = 1;
nodes = (
"85 3 OFFCURVE",
"168 -14 OFFCURVE",
"261 -14 CURVE SMOOTH",
"415 -14 OFFCURVE",
"505 50 OFFCURVE",
"505 173 CURVE SMOOTH",
"505 263 OFFCURVE",
"464 330 OFFCURVE",
"340 354 CURVE SMOOTH",
"283 365 LINE SMOOTH",
"236 375 OFFCURVE",
"218 384 OFFCURVE",
"218 408 CURVE SMOOTH",
"218 429 OFFCURVE",
"235 440 OFFCURVE",
"268 440 CURVE SMOOTH",
"302 440 OFFCURVE",
"321 426 OFFCURVE",
"321 399 CURVE SMOOTH",
"321 389 LINE",
"473 389 LINE",
"473 528 LINE",
"424 552 OFFCURVE",
"353 570 OFFCURVE",
"262 570 CURVE SMOOTH",
"114 570 OFFCURVE",
"18 504 OFFCURVE",
"18 387 CURVE SMOOTH",
"18 294 OFFCURVE",
"63 229 OFFCURVE",
"175 209 CURVE SMOOTH",
"225 200 LINE SMOOTH",
"275 191 OFFCURVE",
"295 181 OFFCURVE",
"295 153 CURVE SMOOTH",
"295 128 OFFCURVE",
"276 116 OFFCURVE",
"241 116 CURVE SMOOTH",
"201 116 OFFCURVE",
"180 131 OFFCURVE",
"180 164 CURVE SMOOTH",
"180 174 LINE",
"18 174 LINE",
"18 26 LINE"
);
}
);
width = 519;
visible = 1;
}
);
unicode = 0073;
},
{
color = 3;
glyphname = t;
lastChange = "2016-08-02 13:54:26 +0000";
layers = (
{
anchors = (
{
name = bottom;
position = "{251, 0}";
},
{
name = cedilla;
position = "{247, 0}";
},
{
name = top;
position = "{190, 674}";
},
{
name = top_right;
position = "{334, 819}";
}
);
background = {
paths = (
{
closed = 1;
nodes = (
"916 500 LINE",
"562 500 LINE",
"562 350 LINE",
"916 350 LINE"
);
},
{
closed = 1;
nodes = (
"821 597 LINE",
"631 597 LINE",
"631 573 LINE SMOOTH",
"631 528 OFFCURVE",
"610 500 OFFCURVE",
"562 500 CURVE SMOOTH",
"602 500 LINE",
"602 244 LINE",
"821 244 LINE"
);
},
{
closed = 1;
nodes = (
"602 244 LINE",
"602 87 OFFCURVE",
"652 -16 OFFCURVE",
"820 -16 CURVE SMOOTH",
"872 -16 OFFCURVE",
"925 -2 OFFCURVE",
"949 13 CURVE",
"919 163 LINE",
"908 151 OFFCURVE",
"887 148 OFFCURVE",
"877 148 CURVE SMOOTH",
"840 148 OFFCURVE",
"821 169 OFFCURVE",
"821 244 CURVE"
);
},
{
closed = 1;
nodes = (
"53 0 LINE",
"260 0 LINE",
"260 439 LINE",
"250 439 LINE",
"260 500 LINE",
"53 500 LINE"
);
},
{
closed = 1;
nodes = (
"13 0 LINE",
"301 0 LINE",
"301 158 LINE",
"13 158 LINE"
);
},
{
closed = 1;
nodes = (
"355 0 LINE",
"563 0 LINE",
"563 296 LINE",
"355 296 LINE"
);
},
{
closed = 1;
nodes = (
"316 0 LINE",
"604 0 LINE",
"604 158 LINE",
"316 158 LINE"
);
},
{
closed = 1;
nodes = (
"260 296 LINE SMOOTH",
"260 336 OFFCURVE",
"275 359 OFFCURVE",
"307 359 CURVE SMOOTH",
"339 359 OFFCURVE",
"355 336 OFFCURVE",
"355 296 CURVE",
"563 296 LINE",
"563 446 OFFCURVE",
"484 513 OFFCURVE",
"398 513 CURVE SMOOTH",
"314 513 OFFCURVE",
"266 463 OFFCURVE",
"250 439 CURVE",
"260 439 LINE"
);
},
{
closed = 1;
nodes = (
"208 500 LINE",
"13 500 LINE",
"13 350 LINE",
"208 350 LINE"
);
}
);
};
layerId = UUID0;
paths = (
{
closed = 1;
nodes = (
"296 674 LINE",
"84 674 LINE",
"84 629 LINE SMOOTH",
"84 586 OFFCURVE",
"61 556 OFFCURVE",
"8 556 CURVE",
"8 392 LINE",
"52 392 LINE",
"52 211 LINE SMOOTH",
"52 41 OFFCURVE",
"130 -14 OFFCURVE",
"265 -14 CURVE SMOOTH",
"336 -14 OFFCURVE",
"405 3 OFFCURVE",
"437 16 CURVE",
"437 173 LINE",
"417 169 OFFCURVE",
"381 164 OFFCURVE",
"354 164 CURVE SMOOTH",
"316 164 OFFCURVE",
"296 183 OFFCURVE",
"296 228 CURVE SMOOTH",
"296 392 LINE",
"431 392 LINE",
"431 556 LINE",
"296 556 LINE"
);
}
);
width = 451;
}
);
unicode = 0074;
},
{
color = 3;
glyphname = u;
lastChange = "2016-08-02 23:24:49 +0000";
layers = (
{
anchors = (
{
name = bottom;
position = "{363, 0}";
},
{
name = ogonek;
position = "{533, 30}";
},
{
name = top;
position = "{307, 556}";
}
);
layerId = UUID0;
paths = (
{
closed = 1;
nodes = (
"392 0 LINE",
"666 0 LINE",
"666 164 LINE",
"622 164 LINE",
"622 556 LINE",
"338 556 LINE",
"338 392 LINE",
"392 392 LINE",
"392 228 LINE SMOOTH",
"392 183 OFFCURVE",
"372 164 OFFCURVE",
"334 164 CURVE SMOOTH",
"296 164 OFFCURVE",
"276 183 OFFCURVE",
"276 228 CURVE SMOOTH",
"276 556 LINE",
"2 556 LINE",
"2 392 LINE",
"46 392 LINE",
"46 181 LINE SMOOTH",
"46 64 OFFCURVE",
"98 -14 OFFCURVE",
"212 -14 CURVE SMOOTH",
"305 -14 OFFCURVE",
"365 35 OFFCURVE",
"411 104 CURVE",
"392 113 LINE"
);
}
);
width = 676;
},
{
anchors = (
{
name = bottom;
position = "{363, 0}";
},
{
name = ogonek;
position = "{533, 30}";
},
{
name = top;
position = "{307, 556}";
}
);
associatedMasterId = UUID0;
layerId = "A4443F43-8B8A-4912-9AAC-E07A744E77D9";
name = "Regular Aug 3 16, 04:54";
paths = (
{
closed = 1;
nodes = (
"276 556 LINE",
"2 556 LINE",
"2 392 LINE",
"46 392 LINE",
"46 228 LINE SMOOTH",
"46 61 OFFCURVE",
"114 -14 OFFCURVE",
"223 -14 CURVE SMOOTH",
"313 -14 OFFCURVE",
"360 36 OFFCURVE",
"392 68 CURVE",
"392 0 LINE",
"666 0 LINE",
"666 164 LINE",
"622 164 LINE",
"622 556 LINE",
"338 556 LINE",
"338 392 LINE",
"392 392 LINE",
"392 228 LINE SMOOTH",
"392 183 OFFCURVE",
"372 164 OFFCURVE",
"334 164 CURVE SMOOTH",
"296 164 OFFCURVE",
"276 183 OFFCURVE",
"276 228 CURVE SMOOTH"
);
},
{
closed = 0;
nodes = (
"346 -60 LINE",
"365 -69 LINE",
"319 -138 OFFCURVE",
"259 -187 OFFCURVE",
"166 -187 CURVE SMOOTH",
"52 -187 OFFCURVE",
"0 -109 OFFCURVE",
"0 8 CURVE SMOOTH",
"0 219 LINE"
);
}
);
width = 676;
visible = 1;
}
);
unicode = 0075;
},
{
color = 3;
glyphname = v;
lastChange = "2016-08-01 20:13:53 +0000";
layers = (
{
layerId = UUID0;
paths = (
{
closed = 1;
nodes = (
"10 556 LINE",
"10 392 LINE",
"52 392 LINE",
"178 0 LINE",
"476 0 LINE",
"599 392 LINE",
"641 392 LINE",
"641 556 LINE",
"351 556 LINE",
"351 392 LINE",
"393 392 LINE",
"340 194 LINE",
"330 194 LINE",
"277 392 LINE",
"319 392 LINE",
"319 556 LINE"
);
}
);
width = 651;
},
{
associatedMasterId = UUID0;
layerId = "9EF0678E-5C16-4E2F-A593-2A57CC6995EB";
name = "Regular Aug 2 16, 00:44";
paths = (
{
closed = 1;
nodes = (
"4 556 LINE",
"4 392 LINE",
"46 392 LINE",
"153 0 LINE",
"491 0 LINE",
"595 392 LINE",
"638 392 LINE",
"638 556 LINE",
"344 556 LINE",
"344 392 LINE",
"389 392 LINE",
"335 164 LINE",
"325 164 LINE",
"271 392 LINE",
"316 392 LINE",
"316 556 LINE"
);
}
);
width = 642;
visible = 1;
}
);
unicode = 0076;
},
{
color = 3;
glyphname = w;
lastChange = "2016-08-02 11:52:27 +0000";
layers = (
{
anchors = (
{
name = top;
position = "{488, 556}";
}
);
layerId = UUID0;
paths = (
{
closed = 1;
nodes = (
"10 556 LINE",
"10 392 LINE",
"52 392 LINE",
"184 0 LINE",
"414 0 LINE",
"469 278 LINE",
"479 278 LINE",
"534 0 LINE",
"777 0 LINE",
"904 392 LINE",
"946 392 LINE",
"946 556 LINE",
"656 556 LINE",
"656 392 LINE",
"698 392 LINE",
"663 236 LINE",
"653 236 LINE",
"580 556 LINE",
"396 556 LINE",
"323 236 LINE",
"313 236 LINE",
"277 392 LINE",
"319 392 LINE",
"319 556 LINE"
);
}
);
width = 956;
},
{
associatedMasterId = UUID0;
layerId = "0F1D0FB7-FCDE-4D24-8535-C8550F685D31";
name = "Regular Aug 2 16, 00:42";
paths = (
{
closed = 1;
nodes = (
"4 556 LINE",
"4 392 LINE",
"46 392 LINE",
"148 0 LINE",
"443 0 LINE",
"477 168 LINE",
"487 168 LINE",
"523 0 LINE",
"821 0 LINE",
"918 392 LINE",
"961 392 LINE",
"961 556 LINE",
"666 556 LINE",
"666 392 LINE",
"712 392 LINE",
"679 186 LINE",
"669 186 LINE",
"588 556 LINE",
"394 556 LINE",
"317 186 LINE",
"307 186 LINE",
"271 392 LINE",
"316 392 LINE",
"316 556 LINE"
);
}
);
width = 965;
visible = 1;
}
);
unicode = 0077;
},
{
color = 3;
glyphname = x;
lastChange = "2016-08-02 11:28:59 +0000";
layers = (
{
layerId = UUID0;
paths = (
{
closed = 1;
nodes = (
"12 164 LINE",
"12 0 LINE",
"280 0 LINE",
"280 164 LINE"
);
},
{
closed = 1;
nodes = (
"312 164 LINE",
"312 0 LINE",
"624 0 LINE",
"624 164 LINE"
);
},
{
closed = 1;
nodes = (
"620 392 LINE",
"620 556 LINE",
"360 556 LINE",
"360 392 LINE"
);
},
{
closed = 1;
nodes = (
"328 392 LINE",
"328 556 LINE",
"16 556 LINE",
"16 392 LINE"
);
},
{
closed = 1;
nodes = (
"203 245 LINE",
"204 298 LINE",
"54 164 LINE",
"252 164 LINE",
"291 223 LINE",
"301 223 LINE",
"340 164 LINE",
"592 164 LINE",
"435 313 LINE",
"434 259 LINE",
"578 392 LINE",
"388 392 LINE",
"349 334 LINE",
"339 334 LINE",
"300 392 LINE",
"48 392 LINE"
);
}
);
width = 636;
},
{
associatedMasterId = UUID0;
layerId = "4C71C3BB-2ADD-49BC-8873-2AFCE3A95A00";
name = options;
paths = (
{
closed = 1;
nodes = (
"62 392 LINE",
"62 556 LINE",
"412 556 LINE",
"412 392 LINE",
"365 392 LINE",
"420 338 LINE",
"427 338 LINE",
"485 392 LINE",
"439 392 LINE",
"439 556 LINE",
"677 556 LINE",
"677 392 LINE",
"648 392 LINE",
"549 287 LINE",
"667 164 LINE",
"688 164 LINE",
"688 0 LINE",
"327 0 LINE",
"327 164 LINE",
"381 164 LINE",
"319 224 LINE",
"308 224 LINE",
"247 164 LINE",
"299 164 LINE",
"299 0 LINE",
"50 0 LINE",
"50 164 LINE",
"73 164 LINE",
"195 288 LINE",
"92 392 LINE"
);
},
{
closed = 1;
nodes = (
"851 164 LINE",
"851 0 LINE",
"1076 0 LINE",
"1076 164 LINE"
);
},
{
closed = 1;
nodes = (
"1151 164 LINE",
"1151 0 LINE",
"1489 0 LINE",
"1489 164 LINE"
);
},
{
closed = 1;
nodes = (
"1479 392 LINE",
"1479 556 LINE",
"1257 556 LINE",
"1257 392 LINE"
);
},
{
closed = 1;
nodes = (
"1195 392 LINE",
"1195 556 LINE",
"857 556 LINE",
"857 392 LINE"
);
},
{
closed = 1;
nodes = (
"1338 2 LINE",
"1479 143 LINE",
"1342 279 LINE",
"1472 409 LINE",
"1372 467 LINE",
"1237 333 LINE",
"1227 333 LINE",
"1015 545 LINE",
"874 404 LINE",
"998 279 LINE",
"853 135 LINE",
"932 55 LINE",
"1104 226 LINE",
"1114 226 LINE"
);
},
{
closed = 1;
nodes = (
"-221 12 LINE",
"-62 134 LINE",
"-498 540 LINE",
"-663 421 LINE"
);
},
{
closed = 1;
nodes = (
"-675 164 LINE",
"-675 0 LINE",
"-466 0 LINE",
"-466 164 LINE"
);
},
{
closed = 1;
nodes = (
"-73 415 LINE",
"-194 442 LINE",
"-327 273 LINE",
"-239 204 LINE"
);
},
{
closed = 1;
nodes = (
"-434 255 LINE",
"-522 325 LINE",
"-674 131 LINE",
"-567 86 LINE"
);
},
{
closed = 1;
nodes = (
"-422 164 LINE",
"-422 0 LINE",
"-59 0 LINE",
"-59 164 LINE"
);
},
{
closed = 1;
nodes = (
"-62 392 LINE",
"-62 556 LINE",
"-271 556 LINE",
"-271 392 LINE"
);
},
{
closed = 1;
nodes = (
"-302 392 LINE",
"-302 556 LINE",
"-667 556 LINE",
"-667 392 LINE"
);
},
{
closed = 1;
nodes = (
"-1403 164 LINE",
"-1403 0 LINE",
"-1204 0 LINE",
"-1204 164 LINE"
);
},
{
closed = 1;
nodes = (
"-1147 164 LINE",
"-1147 0 LINE",
"-794 0 LINE",
"-794 164 LINE"
);
},
{
closed = 1;
nodes = (
"-797 392 LINE",
"-797 556 LINE",
"-996 556 LINE",
"-996 392 LINE"
);
},
{
closed = 1;
nodes = (
"-1047 392 LINE",
"-1047 556 LINE",
"-1394 556 LINE",
"-1394 392 LINE"
);
},
{
closed = 1;
nodes = (
"-928 1 LINE",
"-799 148 LINE",
"-926 269 LINE",
"-802 406 LINE",
"-921 441 LINE",
"-1009 333 LINE",
"-1019 333 LINE",
"-1240 540 LINE",
"-1384 401 LINE",
"-1268 293 LINE",
"-1394 154 LINE",
"-1303 87 LINE",
"-1185 229 LINE",
"-1175 229 LINE"
);
},
{
closed = 1;
nodes = (
"2079 0 LINE",
"2228 164 LINE",
"1888 556 LINE",
"1736 392 LINE"
);
},
{
closed = 1;
nodes = (
"1686 164 LINE",
"1686 0 LINE",
"1894 0 LINE",
"1894 164 LINE"
);
},
{
closed = 1;
nodes = (
"2242 415 LINE",
"2130 556 LINE",
"1908 273 LINE",
"2076 204 LINE"
);
},
{
closed = 1;
nodes = (
"2027 255 LINE",
"1860 325 LINE",
"1707 131 LINE",
"1827 0 LINE"
);
},
{
closed = 1;
nodes = (
"2004 164 LINE",
"2004 0 LINE",
"2271 0 LINE",
"2271 164 LINE"
);
},
{
closed = 1;
nodes = (
"2265 392 LINE",
"2265 556 LINE",
"2066 556 LINE",
"2066 392 LINE"
);
},
{
closed = 1;
nodes = (
"1971 392 LINE",
"1971 556 LINE",
"1693 556 LINE",
"1693 392 LINE"
);
},
{
closed = 1;
nodes = (
"-1433 392 LINE",
"-1433 556 LINE",
"-1641 556 LINE",
"-1641 462 LINE",
"-1683 409 LINE",
"-1729 462 LINE",
"-1729 556 LINE",
"-2005 556 LINE",
"-2005 392 LINE",
"-1962 392 LINE",
"-1869 285 LINE",
"-1965 164 LINE",
"-2012 164 LINE",
"-2012 0 LINE",
"-1797 0 LINE",
"-1797 94 LINE",
"-1752 152 LINE",
"-1702 94 LINE",
"-1702 0 LINE",
"-1427 0 LINE",
"-1427 164 LINE",
"-1470 164 LINE",
"-1566 275 LINE",
"-1474 392 LINE"
);
},
{
closed = 1;
nodes = (
"2955 392 LINE",
"2955 556 LINE",
"2737 556 LINE",
"2695 369 LINE",
"2675 369 LINE",
"2629 556 LINE",
"2363 556 LINE",
"2363 392 LINE",
"2406 392 LINE",
"2469 285 LINE",
"2403 164 LINE",
"2356 164 LINE",
"2356 0 LINE",
"2581 0 LINE",
"2626 192 LINE",
"2646 192 LINE",
"2696 0 LINE",
"2961 0 LINE",
"2961 164 LINE",
"2918 164 LINE",
"2852 275 LINE",
"2914 392 LINE"
);
},
{
closed = 1;
nodes = (
"-2439 164 LINE",
"-2439 0 LINE",
"-2160 0 LINE",
"-2160 164 LINE"
);
},
{
closed = 1;
nodes = (
"-2365 100 LINE",
"-2167 142 LINE",
"-2357 369 LINE",
"-2525 303 LINE"
);
},
{
closed = 1;
nodes = (
"-2160 392 LINE",
"-2160 556 LINE",
"-2439 556 LINE",
"-2439 392 LINE"
);
},
{
closed = 1;
nodes = (
"-2525 253 LINE",
"-2357 187 LINE",
"-2167 414 LINE",
"-2365 456 LINE"
);
},
{
closed = 1;
nodes = (
"-2775 164 LINE",
"-2775 0 LINE",
"-2496 0 LINE",
"-2496 164 LINE"
);
},
{
closed = 1;
nodes = (
"-2410 303 LINE",
"-2578 369 LINE",
"-2768 142 LINE",
"-2570 100 LINE"
);
},
{
closed = 1;
nodes = (
"-2496 392 LINE",
"-2496 556 LINE",
"-2775 556 LINE",
"-2775 392 LINE"
);
},
{
closed = 1;
nodes = (
"-2570 456 LINE",
"-2768 414 LINE",
"-2578 187 LINE",
"-2410 253 LINE"
);
}
);
width = 633;
},
{
associatedMasterId = UUID0;
layerId = "9D810588-7EAD-455E-8AC6-50C02FEEE9D8";
name = original;
paths = (
{
closed = 1;
nodes = (
"617 392 LINE",
"617 556 LINE",
"399 556 LINE",
"357 373 LINE",
"337 373 LINE",
"291 556 LINE",
"25 556 LINE",
"25 392 LINE",
"68 392 LINE",
"121 285 LINE",
"65 164 LINE",
"18 164 LINE",
"18 0 LINE",
"243 0 LINE",
"288 188 LINE",
"308 188 LINE",
"358 0 LINE",
"623 0 LINE",
"623 164 LINE",
"580 164 LINE",
"524 275 LINE",
"576 392 LINE"
);
}
);
width = 633;
},
{
associatedMasterId = UUID0;
layerId = "B964B725-6ECB-430E-9EE6-B52B92A71A80";
name = backup;
paths = (
{
closed = 1;
nodes = (
"12 164 LINE",
"12 0 LINE",
"280 0 LINE",
"280 164 LINE"
);
},
{
closed = 1;
nodes = (
"312 164 LINE",
"312 0 LINE",
"624 0 LINE",
"624 164 LINE"
);
},
{
closed = 1;
nodes = (
"620 392 LINE",
"620 556 LINE",
"360 556 LINE",
"360 392 LINE"
);
},
{
closed = 1;
nodes = (
"328 392 LINE",
"328 556 LINE",
"16 556 LINE",
"16 392 LINE"
);
},
{
closed = 1;
nodes = (
"203 245 LINE",
"204 298 LINE",
"54 164 LINE",
"252 164 LINE",
"323 233 LINE",
"271 234 LINE",
"340 164 LINE",
"592 164 LINE",
"435 313 LINE",
"434 259 LINE",
"578 392 LINE",
"388 392 LINE",
"316 324 LINE",
"368 323 LINE",
"300 392 LINE",
"48 392 LINE"
);
}
);
width = 636;
},
{
associatedMasterId = UUID0;
layerId = "C2BAAEF0-04A2-4C22-B8DE-618B4E91ED2C";
name = "Regular Aug 1 16, 22:11";
paths = (
{
closed = 1;
nodes = (
"459 12 LINE",
"618 134 LINE",
"182 540 LINE",
"17 421 LINE"
);
},
{
closed = 1;
nodes = (
"5 164 LINE",
"5 0 LINE",
"214 0 LINE",
"214 164 LINE"
);
},
{
closed = 1;
nodes = (
"607 415 LINE",
"486 442 LINE",
"353 273 LINE",
"441 204 LINE"
);
},
{
closed = 1;
nodes = (
"246 255 LINE",
"158 325 LINE",
"6 131 LINE",
"113 86 LINE"
);
},
{
closed = 1;
nodes = (
"258 164 LINE",
"258 0 LINE",
"621 0 LINE",
"621 164 LINE"
);
},
{
closed = 1;
nodes = (
"618 392 LINE",
"618 556 LINE",
"409 556 LINE",
"409 392 LINE"
);
},
{
closed = 1;
nodes = (
"378 392 LINE",
"378 556 LINE",
"13 556 LINE",
"13 392 LINE"
);
}
);
width = 633;
},
{
associatedMasterId = UUID0;
layerId = "5D07A3B5-A2C0-40DA-8461-B92C9AD16FF3";
name = "Regular Aug 1 16, 22:12";
paths = (
{
closed = 1;
nodes = (
"459 12 LINE",
"618 134 LINE",
"182 540 LINE",
"48 392 LINE"
);
},
{
closed = 1;
nodes = (
"5 164 LINE",
"5 0 LINE",
"214 0 LINE",
"214 164 LINE"
);
},
{
closed = 1;
nodes = (
"607 415 LINE",
"486 442 LINE",
"353 273 LINE",
"441 204 LINE"
);
},
{
closed = 1;
nodes = (
"246 255 LINE",
"158 325 LINE",
"6 131 LINE",
"113 86 LINE"
);
},
{
closed = 1;
nodes = (
"258 164 LINE",
"258 0 LINE",
"621 0 LINE",
"621 164 LINE"
);
},
{
closed = 1;
nodes = (
"618 392 LINE",
"618 556 LINE",
"409 556 LINE",
"409 392 LINE"
);
},
{
closed = 1;
nodes = (
"378 392 LINE",
"378 556 LINE",
"13 556 LINE",
"13 392 LINE"
);
}
);
width = 633;
},
{
associatedMasterId = UUID0;
layerId = "5751A80A-3E84-496A-A4B0-6A34EE45CCBF";
name = "Regular Aug 1 16, 22:12";
paths = (
{
closed = 1;
nodes = (
"459 12 LINE",
"618 134 LINE",
"341 392 LINE",
"48 392 LINE"
);
},
{
closed = 1;
nodes = (
"5 164 LINE",
"5 0 LINE",
"214 0 LINE",
"214 164 LINE"
);
},
{
closed = 1;
nodes = (
"607 415 LINE",
"486 442 LINE",
"353 273 LINE",
"441 204 LINE"
);
},
{
closed = 1;
nodes = (
"246 255 LINE",
"158 325 LINE",
"6 131 LINE",
"113 86 LINE"
);
},
{
closed = 1;
nodes = (
"258 164 LINE",
"258 0 LINE",
"621 0 LINE",
"621 164 LINE"
);
},
{
closed = 1;
nodes = (
"618 392 LINE",
"618 556 LINE",
"409 556 LINE",
"409 392 LINE"
);
},
{
closed = 1;
nodes = (
"378 392 LINE",
"378 556 LINE",
"13 556 LINE",
"13 392 LINE"
);
}
);
width = 633;
},
{
associatedMasterId = UUID0;
layerId = "CE76D780-93D5-426B-9FED-636AA2500442";
name = "Regular Aug 1 16, 22:12";
paths = (
{
closed = 1;
nodes = (
"459 12 LINE",
"618 134 LINE",
"341 392 LINE",
"48 392 LINE"
);
},
{
closed = 1;
nodes = (
"5 164 LINE",
"5 0 LINE",
"214 0 LINE",
"214 164 LINE"
);
},
{
closed = 1;
nodes = (
"607 415 LINE",
"447 392 LINE",
"353 273 LINE",
"441 204 LINE"
);
},
{
closed = 1;
nodes = (
"246 255 LINE",
"158 325 LINE",
"6 131 LINE",
"113 86 LINE"
);
},
{
closed = 1;
nodes = (
"258 164 LINE",
"258 0 LINE",
"621 0 LINE",
"621 164 LINE"
);
},
{
closed = 1;
nodes = (
"618 392 LINE",
"618 556 LINE",
"409 556 LINE",
"409 392 LINE"
);
},
{
closed = 1;
nodes = (
"378 392 LINE",
"378 556 LINE",
"13 556 LINE",
"13 392 LINE"
);
}
);
width = 633;
},
{
associatedMasterId = UUID0;
layerId = "F07632D9-8FA6-4015-8950-33FF04FD260B";
name = "Regular Aug 1 16, 22:12";
paths = (
{
closed = 1;
nodes = (
"459 12 LINE",
"618 134 LINE",
"341 392 LINE",
"48 392 LINE"
);
},
{
closed = 1;
nodes = (
"5 164 LINE",
"5 0 LINE",
"214 0 LINE",
"214 164 LINE"
);
},
{
closed = 1;
nodes = (
"589 392 LINE",
"447 392 LINE",
"353 273 LINE",
"441 204 LINE"
);
},
{
closed = 1;
nodes = (
"246 255 LINE",
"158 325 LINE",
"6 131 LINE",
"113 86 LINE"
);
},
{
closed = 1;
nodes = (
"258 164 LINE",
"258 0 LINE",
"621 0 LINE",
"621 164 LINE"
);
},
{
closed = 1;
nodes = (
"618 392 LINE",
"618 556 LINE",
"409 556 LINE",
"409 392 LINE"
);
},
{
closed = 1;
nodes = (
"378 392 LINE",
"378 556 LINE",
"13 556 LINE",
"13 392 LINE"
);
}
);
width = 633;
},
{
associatedMasterId = UUID0;
layerId = "266CBB0B-5B13-44B5-B72B-AAAFA11324F2";
name = "Regular Aug 1 16, 22:12";
paths = (
{
closed = 1;
nodes = (
"459 12 LINE",
"618 134 LINE",
"341 392 LINE",
"48 392 LINE"
);
},
{
closed = 1;
nodes = (
"5 164 LINE",
"5 0 LINE",
"214 0 LINE",
"214 164 LINE"
);
},
{
closed = 1;
nodes = (
"589 392 LINE",
"447 392 LINE",
"353 273 LINE",
"441 204 LINE"
);
},
{
closed = 1;
nodes = (
"246 255 LINE",
"158 325 LINE",
"32 164 LINE",
"113 86 LINE"
);
},
{
closed = 1;
nodes = (
"258 164 LINE",
"258 0 LINE",
"621 0 LINE",
"621 164 LINE"
);
},
{
closed = 1;
nodes = (
"618 392 LINE",
"618 556 LINE",
"409 556 LINE",
"409 392 LINE"
);
},
{
closed = 1;
nodes = (
"378 392 LINE",
"378 556 LINE",
"13 556 LINE",
"13 392 LINE"
);
}
);
width = 633;
},
{
associatedMasterId = UUID0;
layerId = "8C965086-8C82-4C63-B0C0-A32F6888734D";
name = "Regular Aug 1 16, 22:12";
paths = (
{
closed = 1;
nodes = (
"459 12 LINE",
"618 134 LINE",
"341 392 LINE",
"48 392 LINE"
);
},
{
closed = 1;
nodes = (
"5 164 LINE",
"5 0 LINE",
"214 0 LINE",
"214 164 LINE"
);
},
{
closed = 1;
nodes = (
"589 392 LINE",
"447 392 LINE",
"353 273 LINE",
"441 204 LINE"
);
},
{
closed = 1;
nodes = (
"246 255 LINE",
"158 325 LINE",
"32 164 LINE",
"174 164 LINE"
);
},
{
closed = 1;
nodes = (
"258 164 LINE",
"258 0 LINE",
"621 0 LINE",
"621 164 LINE"
);
},
{
closed = 1;
nodes = (
"618 392 LINE",
"618 556 LINE",
"409 556 LINE",
"409 392 LINE"
);
},
{
closed = 1;
nodes = (
"378 392 LINE",
"378 556 LINE",
"13 556 LINE",
"13 392 LINE"
);
}
);
width = 633;
},
{
associatedMasterId = UUID0;
layerId = "91B3B8D6-6A72-4B95-9034-805FA79855E4";
name = "Regular Aug 1 16, 22:12";
paths = (
{
closed = 1;
nodes = (
"295 164 LINE",
"618 134 LINE",
"341 392 LINE",
"48 392 LINE"
);
},
{
closed = 1;
nodes = (
"5 164 LINE",
"5 0 LINE",
"214 0 LINE",
"214 164 LINE"
);
},
{
closed = 1;
nodes = (
"589 392 LINE",
"447 392 LINE",
"353 273 LINE",
"441 204 LINE"
);
},
{
closed = 1;
nodes = (
"246 255 LINE",
"158 325 LINE",
"32 164 LINE",
"174 164 LINE"
);
},
{
closed = 1;
nodes = (
"258 164 LINE",
"258 0 LINE",
"621 0 LINE",
"621 164 LINE"
);
},
{
closed = 1;
nodes = (
"618 392 LINE",
"618 556 LINE",
"409 556 LINE",
"409 392 LINE"
);
},
{
closed = 1;
nodes = (
"378 392 LINE",
"378 556 LINE",
"13 556 LINE",
"13 392 LINE"
);
}
);
width = 633;
},
{
associatedMasterId = UUID0;
layerId = "669C53C4-76B5-4F64-A1F1-BB0D7343B2EE";
name = "Regular Aug 1 16, 22:12";
paths = (
{
closed = 1;
nodes = (
"295 164 LINE",
"586 164 LINE",
"341 392 LINE",
"48 392 LINE"
);
},
{
closed = 1;
nodes = (
"5 164 LINE",
"5 0 LINE",
"214 0 LINE",
"214 164 LINE"
);
},
{
closed = 1;
nodes = (
"589 392 LINE",
"447 392 LINE",
"353 273 LINE",
"441 204 LINE"
);
},
{
closed = 1;
nodes = (
"246 255 LINE",
"158 325 LINE",
"32 164 LINE",
"174 164 LINE"
);
},
{
closed = 1;
nodes = (
"258 164 LINE",
"258 0 LINE",
"621 0 LINE",
"621 164 LINE"
);
},
{
closed = 1;
nodes = (
"618 392 LINE",
"618 556 LINE",
"409 556 LINE",
"409 392 LINE"
);
},
{
closed = 1;
nodes = (
"378 392 LINE",
"378 556 LINE",
"13 556 LINE",
"13 392 LINE"
);
}
);
width = 633;
},
{
associatedMasterId = UUID0;
layerId = "512EEE78-0D87-4F01-8F5B-741045EB0450";
name = "Regular Aug 1 16, 22:13";
paths = (
{
closed = 1;
nodes = (
"295 164 LINE",
"586 164 LINE",
"341 392 LINE",
"48 392 LINE"
);
},
{
closed = 1;
nodes = (
"5 164 LINE",
"5 0 LINE",
"214 0 LINE",
"214 164 LINE"
);
},
{
closed = 1;
nodes = (
"589 392 LINE",
"447 392 LINE",
"353 273 LINE",
"441 204 LINE"
);
},
{
closed = 1;
nodes = (
"246 255 LINE",
"158 325 LINE",
"32 164 LINE",
"174 164 LINE"
);
},
{
closed = 1;
nodes = (
"258 164 LINE",
"258 0 LINE",
"621 0 LINE",
"621 164 LINE"
);
},
{
closed = 1;
nodes = (
"618 392 LINE",
"618 556 LINE",
"406 556 LINE",
"406 392 LINE"
);
},
{
closed = 1;
nodes = (
"378 392 LINE",
"378 556 LINE",
"13 556 LINE",
"13 392 LINE"
);
}
);
width = 633;
},
{
associatedMasterId = UUID0;
layerId = "D43831D9-E4C3-44B3-98C8-78EF0EB14499";
name = "Regular Aug 1 16, 22:13";
paths = (
{
closed = 1;
nodes = (
"295 164 LINE",
"586 164 LINE",
"341 392 LINE",
"48 392 LINE"
);
},
{
closed = 1;
nodes = (
"5 164 LINE",
"5 0 LINE",
"214 0 LINE",
"214 164 LINE"
);
},
{
closed = 1;
nodes = (
"589 392 LINE",
"447 392 LINE",
"353 273 LINE",
"441 204 LINE"
);
},
{
closed = 1;
nodes = (
"246 255 LINE",
"158 325 LINE",
"32 164 LINE",
"174 164 LINE"
);
},
{
closed = 1;
nodes = (
"258 164 LINE",
"258 0 LINE",
"621 0 LINE",
"621 164 LINE"
);
},
{
closed = 1;
nodes = (
"618 392 LINE",
"618 556 LINE",
"406 556 LINE",
"406 392 LINE"
);
},
{
closed = 1;
nodes = (
"378 392 LINE",
"378 556 LINE",
"14 556 LINE",
"14 392 LINE"
);
}
);
width = 633;
},
{
associatedMasterId = UUID0;
layerId = "69C8B9B1-46F2-4696-A141-154B3461BA19";
name = "Regular Aug 1 16, 22:13";
paths = (
{
closed = 1;
nodes = (
"295 164 LINE",
"586 164 LINE",
"341 392 LINE",
"48 392 LINE"
);
},
{
closed = 1;
nodes = (
"5 164 LINE",
"5 0 LINE",
"214 0 LINE",
"214 164 LINE"
);
},
{
closed = 1;
nodes = (
"589 392 LINE",
"447 392 LINE",
"353 273 LINE",
"441 204 LINE"
);
},
{
closed = 1;
nodes = (
"246 255 LINE",
"158 325 LINE",
"32 164 LINE",
"174 164 LINE"
);
},
{
closed = 1;
nodes = (
"258 164 LINE",
"258 0 LINE",
"621 0 LINE",
"621 164 LINE"
);
},
{
closed = 1;
nodes = (
"618 392 LINE",
"618 556 LINE",
"396 556 LINE",
"396 392 LINE"
);
},
{
closed = 1;
nodes = (
"368 392 LINE",
"368 556 LINE",
"14 556 LINE",
"14 392 LINE"
);
}
);
width = 633;
},
{
associatedMasterId = UUID0;
layerId = "4CF76336-AFF2-4449-B167-6A88009F652D";
name = "Regular Aug 1 16, 22:13";
paths = (
{
closed = 1;
nodes = (
"295 164 LINE",
"586 164 LINE",
"341 392 LINE",
"48 392 LINE"
);
},
{
closed = 1;
nodes = (
"5 164 LINE",
"5 0 LINE",
"214 0 LINE",
"214 164 LINE"
);
},
{
closed = 1;
nodes = (
"589 392 LINE",
"447 392 LINE",
"353 273 LINE",
"441 204 LINE"
);
},
{
closed = 1;
nodes = (
"246 255 LINE",
"158 325 LINE",
"32 164 LINE",
"174 164 LINE"
);
},
{
closed = 1;
nodes = (
"258 164 LINE",
"258 0 LINE",
"621 0 LINE",
"621 164 LINE"
);
},
{
closed = 1;
nodes = (
"618 392 LINE",
"618 556 LINE",
"386 556 LINE",
"386 392 LINE"
);
},
{
closed = 1;
nodes = (
"358 392 LINE",
"358 556 LINE",
"14 556 LINE",
"14 392 LINE"
);
}
);
width = 633;
},
{
associatedMasterId = UUID0;
layerId = "6EE059FD-36C0-428B-AA06-EE7DBE6836B0";
name = "Regular Aug 1 16, 22:13";
paths = (
{
closed = 1;
nodes = (
"295 164 LINE",
"586 164 LINE",
"341 392 LINE",
"48 392 LINE"
);
},
{
closed = 1;
nodes = (
"5 164 LINE",
"5 0 LINE",
"214 0 LINE",
"214 164 LINE"
);
},
{
closed = 1;
nodes = (
"589 392 LINE",
"447 392 LINE",
"353 273 LINE",
"441 204 LINE"
);
},
{
closed = 1;
nodes = (
"246 255 LINE",
"158 325 LINE",
"32 164 LINE",
"174 164 LINE"
);
},
{
closed = 1;
nodes = (
"258 164 LINE",
"258 0 LINE",
"621 0 LINE",
"621 164 LINE"
);
},
{
closed = 1;
nodes = (
"618 392 LINE",
"618 556 LINE",
"376 556 LINE",
"376 392 LINE"
);
},
{
closed = 1;
nodes = (
"348 392 LINE",
"348 556 LINE",
"14 556 LINE",
"14 392 LINE"
);
}
);
width = 633;
},
{
associatedMasterId = UUID0;
layerId = "A0506285-E905-4EB6-BF27-82A67FD5CBFC";
name = "Regular Aug 1 16, 22:14";
paths = (
{
closed = 1;
nodes = (
"295 164 LINE",
"586 164 LINE",
"341 392 LINE",
"48 392 LINE"
);
},
{
closed = 1;
nodes = (
"5 164 LINE",
"5 0 LINE",
"214 0 LINE",
"214 164 LINE"
);
},
{
closed = 1;
nodes = (
"589 392 LINE",
"447 392 LINE",
"353 273 LINE",
"441 204 LINE"
);
},
{
closed = 1;
nodes = (
"246 255 LINE",
"158 325 LINE",
"32 164 LINE",
"174 164 LINE"
);
},
{
closed = 1;
nodes = (
"258 164 LINE",
"258 0 LINE",
"621 0 LINE",
"621 164 LINE"
);
},
{
closed = 1;
nodes = (
"618 392 LINE",
"618 556 LINE",
"366 556 LINE",
"366 392 LINE"
);
},
{
closed = 1;
nodes = (
"338 392 LINE",
"338 556 LINE",
"14 556 LINE",
"14 392 LINE"
);
}
);
width = 633;
},
{
associatedMasterId = UUID0;
layerId = "88E93EDB-23E9-44D5-B452-36F40A0E5EDE";
name = "Regular Aug 1 16, 22:14";
paths = (
{
closed = 1;
nodes = (
"295 164 LINE",
"586 164 LINE",
"341 392 LINE",
"48 392 LINE"
);
},
{
closed = 1;
nodes = (
"5 164 LINE",
"5 0 LINE",
"214 0 LINE",
"214 164 LINE"
);
},
{
closed = 1;
nodes = (
"589 392 LINE",
"447 392 LINE",
"353 273 LINE",
"441 204 LINE"
);
},
{
closed = 1;
nodes = (
"246 255 LINE",
"158 325 LINE",
"32 164 LINE",
"174 164 LINE"
);
},
{
closed = 1;
nodes = (
"258 164 LINE",
"258 0 LINE",
"621 0 LINE",
"621 164 LINE"
);
},
{
closed = 1;
nodes = (
"618 392 LINE",
"618 556 LINE",
"356 556 LINE",
"356 392 LINE"
);
},
{
closed = 1;
nodes = (
"328 392 LINE",
"328 556 LINE",
"14 556 LINE",
"14 392 LINE"
);
}
);
width = 633;
},
{
associatedMasterId = UUID0;
layerId = "7E1ED16A-8AC1-4A09-B7DC-4EA9930E0B4C";
name = "Regular Aug 1 16, 22:14";
paths = (
{
closed = 1;
nodes = (
"295 164 LINE",
"586 164 LINE",
"341 392 LINE",
"48 392 LINE"
);
},
{
closed = 1;
nodes = (
"10 164 LINE",
"10 0 LINE",
"219 0 LINE",
"219 164 LINE"
);
},
{
closed = 1;
nodes = (
"589 392 LINE",
"447 392 LINE",
"353 273 LINE",
"441 204 LINE"
);
},
{
closed = 1;
nodes = (
"246 255 LINE",
"158 325 LINE",
"32 164 LINE",
"174 164 LINE"
);
},
{
closed = 1;
nodes = (
"258 164 LINE",
"258 0 LINE",
"621 0 LINE",
"621 164 LINE"
);
},
{
closed = 1;
nodes = (
"618 392 LINE",
"618 556 LINE",
"356 556 LINE",
"356 392 LINE"
);
},
{
closed = 1;
nodes = (
"328 392 LINE",
"328 556 LINE",
"14 556 LINE",
"14 392 LINE"
);
}
);
width = 633;
},
{
associatedMasterId = UUID0;
layerId = "B288826B-7604-4610-A3D6-ED2240F005C3";
name = "Regular Aug 1 16, 22:14";
paths = (
{
closed = 1;
nodes = (
"295 164 LINE",
"586 164 LINE",
"341 392 LINE",
"48 392 LINE"
);
},
{
closed = 1;
nodes = (
"10 164 LINE",
"10 0 LINE",
"219 0 LINE",
"219 164 LINE"
);
},
{
closed = 1;
nodes = (
"589 392 LINE",
"447 392 LINE",
"353 273 LINE",
"441 204 LINE"
);
},
{
closed = 1;
nodes = (
"246 255 LINE",
"158 325 LINE",
"32 164 LINE",
"174 164 LINE"
);
},
{
closed = 1;
nodes = (
"259 164 LINE",
"259 0 LINE",
"622 0 LINE",
"622 164 LINE"
);
},
{
closed = 1;
nodes = (
"618 392 LINE",
"618 556 LINE",
"356 556 LINE",
"356 392 LINE"
);
},
{
closed = 1;
nodes = (
"328 392 LINE",
"328 556 LINE",
"14 556 LINE",
"14 392 LINE"
);
}
);
width = 633;
},
{
associatedMasterId = UUID0;
layerId = "7A083D09-FBE3-4239-859C-0BF1728C411D";
name = "Regular Aug 1 16, 22:15";
paths = (
{
closed = 1;
nodes = (
"295 164 LINE",
"586 164 LINE",
"341 392 LINE",
"48 392 LINE"
);
},
{
closed = 1;
nodes = (
"10 164 LINE",
"10 0 LINE",
"229 0 LINE",
"229 164 LINE"
);
},
{
closed = 1;
nodes = (
"589 392 LINE",
"447 392 LINE",
"353 273 LINE",
"441 204 LINE"
);
},
{
closed = 1;
nodes = (
"246 255 LINE",
"158 325 LINE",
"32 164 LINE",
"174 164 LINE"
);
},
{
closed = 1;
nodes = (
"259 164 LINE",
"259 0 LINE",
"622 0 LINE",
"622 164 LINE"
);
},
{
closed = 1;
nodes = (
"618 392 LINE",
"618 556 LINE",
"356 556 LINE",
"356 392 LINE"
);
},
{
closed = 1;
nodes = (
"328 392 LINE",
"328 556 LINE",
"14 556 LINE",
"14 392 LINE"
);
}
);
width = 633;
},
{
associatedMasterId = UUID0;
layerId = "DEF29380-6AE6-4A5D-A07A-84805BF841F6";
name = "Regular Aug 1 16, 22:15";
paths = (
{
closed = 1;
nodes = (
"295 164 LINE",
"586 164 LINE",
"341 392 LINE",
"48 392 LINE"
);
},
{
closed = 1;
nodes = (
"10 164 LINE",
"10 0 LINE",
"229 0 LINE",
"229 164 LINE"
);
},
{
closed = 1;
nodes = (
"589 392 LINE",
"447 392 LINE",
"353 273 LINE",
"441 204 LINE"
);
},
{
closed = 1;
nodes = (
"246 255 LINE",
"158 325 LINE",
"32 164 LINE",
"174 164 LINE"
);
},
{
closed = 1;
nodes = (
"257 164 LINE",
"257 0 LINE",
"622 0 LINE",
"622 164 LINE"
);
},
{
closed = 1;
nodes = (
"618 392 LINE",
"618 556 LINE",
"356 556 LINE",
"356 392 LINE"
);
},
{
closed = 1;
nodes = (
"328 392 LINE",
"328 556 LINE",
"14 556 LINE",
"14 392 LINE"
);
}
);
width = 633;
},
{
associatedMasterId = UUID0;
layerId = "88CC2E3C-F97F-4303-89C9-24E04FEB1B32";
name = "Regular Aug 1 16, 22:15";
paths = (
{
closed = 1;
nodes = (
"295 164 LINE",
"586 164 LINE",
"341 392 LINE",
"48 392 LINE"
);
},
{
closed = 1;
nodes = (
"10 164 LINE",
"10 0 LINE",
"239 0 LINE",
"239 164 LINE"
);
},
{
closed = 1;
nodes = (
"589 392 LINE",
"447 392 LINE",
"353 273 LINE",
"441 204 LINE"
);
},
{
closed = 1;
nodes = (
"246 255 LINE",
"158 325 LINE",
"32 164 LINE",
"174 164 LINE"
);
},
{
closed = 1;
nodes = (
"267 164 LINE",
"267 0 LINE",
"622 0 LINE",
"622 164 LINE"
);
},
{
closed = 1;
nodes = (
"618 392 LINE",
"618 556 LINE",
"356 556 LINE",
"356 392 LINE"
);
},
{
closed = 1;
nodes = (
"328 392 LINE",
"328 556 LINE",
"14 556 LINE",
"14 392 LINE"
);
}
);
width = 633;
},
{
associatedMasterId = UUID0;
layerId = "43CFD162-9CC1-455B-BE45-F69260022452";
name = "Regular Aug 1 16, 22:15";
paths = (
{
closed = 1;
nodes = (
"295 164 LINE",
"586 164 LINE",
"341 392 LINE",
"48 392 LINE"
);
},
{
closed = 1;
nodes = (
"10 164 LINE",
"10 0 LINE",
"249 0 LINE",
"249 164 LINE"
);
},
{
closed = 1;
nodes = (
"589 392 LINE",
"447 392 LINE",
"353 273 LINE",
"441 204 LINE"
);
},
{
closed = 1;
nodes = (
"246 255 LINE",
"158 325 LINE",
"32 164 LINE",
"174 164 LINE"
);
},
{
closed = 1;
nodes = (
"277 164 LINE",
"277 0 LINE",
"622 0 LINE",
"622 164 LINE"
);
},
{
closed = 1;
nodes = (
"618 392 LINE",
"618 556 LINE",
"356 556 LINE",
"356 392 LINE"
);
},
{
closed = 1;
nodes = (
"328 392 LINE",
"328 556 LINE",
"14 556 LINE",
"14 392 LINE"
);
}
);
width = 633;
},
{
associatedMasterId = UUID0;
layerId = "8B58BBDA-F796-466D-9B1B-B38DAF3C2C2E";
name = "Regular Aug 1 16, 22:15";
paths = (
{
closed = 1;
nodes = (
"295 164 LINE",
"586 164 LINE",
"341 392 LINE",
"48 392 LINE"
);
},
{
closed = 1;
nodes = (
"10 164 LINE",
"10 0 LINE",
"259 0 LINE",
"259 164 LINE"
);
},
{
closed = 1;
nodes = (
"589 392 LINE",
"447 392 LINE",
"353 273 LINE",
"441 204 LINE"
);
},
{
closed = 1;
nodes = (
"246 255 LINE",
"158 325 LINE",
"32 164 LINE",
"174 164 LINE"
);
},
{
closed = 1;
nodes = (
"287 164 LINE",
"287 0 LINE",
"622 0 LINE",
"622 164 LINE"
);
},
{
closed = 1;
nodes = (
"618 392 LINE",
"618 556 LINE",
"356 556 LINE",
"356 392 LINE"
);
},
{
closed = 1;
nodes = (
"328 392 LINE",
"328 556 LINE",
"14 556 LINE",
"14 392 LINE"
);
}
);
width = 633;
},
{
associatedMasterId = UUID0;
layerId = "09AAA598-9038-4B2F-A55A-B7F2A319047E";
name = "Regular Aug 1 16, 22:15";
paths = (
{
closed = 1;
nodes = (
"295 164 LINE",
"586 164 LINE",
"341 392 LINE",
"48 392 LINE"
);
},
{
closed = 1;
nodes = (
"10 164 LINE",
"10 0 LINE",
"269 0 LINE",
"269 164 LINE"
);
},
{
closed = 1;
nodes = (
"589 392 LINE",
"447 392 LINE",
"353 273 LINE",
"441 204 LINE"
);
},
{
closed = 1;
nodes = (
"246 255 LINE",
"158 325 LINE",
"32 164 LINE",
"174 164 LINE"
);
},
{
closed = 1;
nodes = (
"297 164 LINE",
"297 0 LINE",
"622 0 LINE",
"622 164 LINE"
);
},
{
closed = 1;
nodes = (
"618 392 LINE",
"618 556 LINE",
"356 556 LINE",
"356 392 LINE"
);
},
{
closed = 1;
nodes = (
"328 392 LINE",
"328 556 LINE",
"14 556 LINE",
"14 392 LINE"
);
}
);
width = 633;
},
{
associatedMasterId = UUID0;
layerId = "3F0F047E-639C-461E-9DB4-41389E73923A";
name = "Regular Aug 1 16, 22:16";
paths = (
{
closed = 1;
nodes = (
"295 164 LINE",
"586 164 LINE",
"341 392 LINE",
"48 392 LINE"
);
},
{
closed = 1;
nodes = (
"10 164 LINE",
"10 0 LINE",
"279 0 LINE",
"279 164 LINE"
);
},
{
closed = 1;
nodes = (
"589 392 LINE",
"447 392 LINE",
"353 273 LINE",
"441 204 LINE"
);
},
{
closed = 1;
nodes = (
"246 255 LINE",
"158 325 LINE",
"32 164 LINE",
"174 164 LINE"
);
},
{
closed = 1;
nodes = (
"307 164 LINE",
"307 0 LINE",
"622 0 LINE",
"622 164 LINE"
);
},
{
closed = 1;
nodes = (
"618 392 LINE",
"618 556 LINE",
"356 556 LINE",
"356 392 LINE"
);
},
{
closed = 1;
nodes = (
"328 392 LINE",
"328 556 LINE",
"14 556 LINE",
"14 392 LINE"
);
}
);
width = 633;
},
{
associatedMasterId = UUID0;
layerId = "38056818-59AE-4C04-B203-F04B6F31FA23";
name = "Regular Aug 1 16, 22:16";
paths = (
{
closed = 1;
nodes = (
"295 164 LINE",
"586 164 LINE",
"341 392 LINE",
"48 392 LINE"
);
},
{
closed = 1;
nodes = (
"10 164 LINE",
"10 0 LINE",
"280 0 LINE",
"280 164 LINE"
);
},
{
closed = 1;
nodes = (
"589 392 LINE",
"447 392 LINE",
"353 273 LINE",
"441 204 LINE"
);
},
{
closed = 1;
nodes = (
"246 255 LINE",
"158 325 LINE",
"32 164 LINE",
"174 164 LINE"
);
},
{
closed = 1;
nodes = (
"308 164 LINE",
"308 0 LINE",
"622 0 LINE",
"622 164 LINE"
);
},
{
closed = 1;
nodes = (
"618 392 LINE",
"618 556 LINE",
"356 556 LINE",
"356 392 LINE"
);
},
{
closed = 1;
nodes = (
"328 392 LINE",
"328 556 LINE",
"14 556 LINE",
"14 392 LINE"
);
}
);
width = 633;
},
{
associatedMasterId = UUID0;
layerId = "7D70B9A3-BFB5-4665-9D18-EC7436AA2B8B";
name = "Regular Aug 1 16, 22:17";
paths = (
{
closed = 1;
nodes = (
"295 164 LINE",
"586 164 LINE",
"341 392 LINE",
"46 392 LINE"
);
},
{
closed = 1;
nodes = (
"10 164 LINE",
"10 0 LINE",
"280 0 LINE",
"280 164 LINE"
);
},
{
closed = 1;
nodes = (
"589 392 LINE",
"447 392 LINE",
"353 273 LINE",
"441 204 LINE"
);
},
{
closed = 1;
nodes = (
"246 255 LINE",
"158 325 LINE",
"32 164 LINE",
"174 164 LINE"
);
},
{
closed = 1;
nodes = (
"308 164 LINE",
"308 0 LINE",
"622 0 LINE",
"622 164 LINE"
);
},
{
closed = 1;
nodes = (
"618 392 LINE",
"618 556 LINE",
"356 556 LINE",
"356 392 LINE"
);
},
{
closed = 1;
nodes = (
"328 392 LINE",
"328 556 LINE",
"14 556 LINE",
"14 392 LINE"
);
}
);
width = 633;
},
{
associatedMasterId = UUID0;
layerId = "68157583-8FAE-4C03-8EFE-FCE22BD73DB2";
name = "Regular Aug 1 16, 22:17";
paths = (
{
closed = 1;
nodes = (
"295 164 LINE",
"590 164 LINE",
"341 392 LINE",
"46 392 LINE"
);
},
{
closed = 1;
nodes = (
"10 164 LINE",
"10 0 LINE",
"280 0 LINE",
"280 164 LINE"
);
},
{
closed = 1;
nodes = (
"589 392 LINE",
"447 392 LINE",
"353 273 LINE",
"441 204 LINE"
);
},
{
closed = 1;
nodes = (
"246 255 LINE",
"158 325 LINE",
"32 164 LINE",
"174 164 LINE"
);
},
{
closed = 1;
nodes = (
"308 164 LINE",
"308 0 LINE",
"622 0 LINE",
"622 164 LINE"
);
},
{
closed = 1;
nodes = (
"618 392 LINE",
"618 556 LINE",
"356 556 LINE",
"356 392 LINE"
);
},
{
closed = 1;
nodes = (
"328 392 LINE",
"328 556 LINE",
"14 556 LINE",
"14 392 LINE"
);
}
);
width = 633;
},
{
associatedMasterId = UUID0;
layerId = "964D783F-FC16-4073-BEAE-3CBF06FCC269";
name = "Regular Aug 1 16, 22:17";
paths = (
{
closed = 1;
nodes = (
"295 164 LINE",
"590 164 LINE",
"341 392 LINE",
"46 392 LINE"
);
},
{
closed = 1;
nodes = (
"10 164 LINE",
"10 0 LINE",
"280 0 LINE",
"280 164 LINE"
);
},
{
closed = 1;
nodes = (
"576 392 LINE",
"447 392 LINE",
"353 273 LINE",
"441 204 LINE"
);
},
{
closed = 1;
nodes = (
"246 255 LINE",
"158 325 LINE",
"32 164 LINE",
"174 164 LINE"
);
},
{
closed = 1;
nodes = (
"308 164 LINE",
"308 0 LINE",
"622 0 LINE",
"622 164 LINE"
);
},
{
closed = 1;
nodes = (
"618 392 LINE",
"618 556 LINE",
"356 556 LINE",
"356 392 LINE"
);
},
{
closed = 1;
nodes = (
"328 392 LINE",
"328 556 LINE",
"14 556 LINE",
"14 392 LINE"
);
}
);
width = 633;
},
{
associatedMasterId = UUID0;
layerId = "402C40FB-3002-47DC-B461-8C36DB25004D";
name = "Regular Aug 1 16, 22:18";
paths = (
{
closed = 1;
nodes = (
"295 164 LINE",
"590 164 LINE",
"298 392 LINE",
"46 392 LINE"
);
},
{
closed = 1;
nodes = (
"10 164 LINE",
"10 0 LINE",
"280 0 LINE",
"280 164 LINE"
);
},
{
closed = 1;
nodes = (
"576 392 LINE",
"386 392 LINE",
"353 273 LINE",
"441 204 LINE"
);
},
{
closed = 1;
nodes = (
"246 255 LINE",
"158 325 LINE",
"32 164 LINE",
"174 164 LINE"
);
},
{
closed = 1;
nodes = (
"308 164 LINE",
"308 0 LINE",
"622 0 LINE",
"622 164 LINE"
);
},
{
closed = 1;
nodes = (
"618 392 LINE",
"618 556 LINE",
"356 556 LINE",
"356 392 LINE"
);
},
{
closed = 1;
nodes = (
"328 392 LINE",
"328 556 LINE",
"14 556 LINE",
"14 392 LINE"
);
}
);
width = 633;
},
{
associatedMasterId = UUID0;
layerId = "7131B91C-046C-4DF3-A5BE-D63F3C315AEB";
name = "Regular Aug 1 16, 22:18";
paths = (
{
closed = 1;
nodes = (
"295 164 LINE",
"590 164 LINE",
"298 392 LINE",
"46 392 LINE"
);
},
{
closed = 1;
nodes = (
"10 164 LINE",
"10 0 LINE",
"280 0 LINE",
"280 164 LINE"
);
},
{
closed = 1;
nodes = (
"576 392 LINE",
"386 392 LINE",
"353 273 LINE",
"441 204 LINE"
);
},
{
closed = 1;
nodes = (
"308 164 LINE",
"308 0 LINE",
"622 0 LINE",
"622 164 LINE"
);
},
{
closed = 1;
nodes = (
"618 392 LINE",
"618 556 LINE",
"356 556 LINE",
"356 392 LINE"
);
},
{
closed = 1;
nodes = (
"328 392 LINE",
"328 556 LINE",
"14 556 LINE",
"14 392 LINE"
);
}
);
width = 633;
},
{
associatedMasterId = UUID0;
layerId = "436CC615-ADE5-429A-85D6-4D91AE8BCBF7";
name = "Regular Aug 1 16, 22:18";
paths = (
{
closed = 1;
nodes = (
"295 164 LINE",
"590 164 LINE",
"298 392 LINE",
"46 392 LINE"
);
},
{
closed = 1;
nodes = (
"10 164 LINE",
"10 0 LINE",
"280 0 LINE",
"280 164 LINE"
);
},
{
closed = 1;
nodes = (
"576 392 LINE",
"386 392 LINE",
"32 164 LINE",
"441 204 LINE"
);
},
{
closed = 1;
nodes = (
"308 164 LINE",
"308 0 LINE",
"622 0 LINE",
"622 164 LINE"
);
},
{
closed = 1;
nodes = (
"618 392 LINE",
"618 556 LINE",
"356 556 LINE",
"356 392 LINE"
);
},
{
closed = 1;
nodes = (
"328 392 LINE",
"328 556 LINE",
"14 556 LINE",
"14 392 LINE"
);
}
);
width = 633;
},
{
associatedMasterId = UUID0;
layerId = "C56572C7-3712-426B-9964-6F8C9E1C5817";
name = "Regular Aug 1 16, 22:18";
paths = (
{
closed = 1;
nodes = (
"295 164 LINE",
"590 164 LINE",
"298 392 LINE",
"46 392 LINE"
);
},
{
closed = 1;
nodes = (
"10 164 LINE",
"10 0 LINE",
"280 0 LINE",
"280 164 LINE"
);
},
{
closed = 1;
nodes = (
"576 392 LINE",
"386 392 LINE",
"52 164 LINE",
"441 204 LINE"
);
},
{
closed = 1;
nodes = (
"308 164 LINE",
"308 0 LINE",
"622 0 LINE",
"622 164 LINE"
);
},
{
closed = 1;
nodes = (
"618 392 LINE",
"618 556 LINE",
"356 556 LINE",
"356 392 LINE"
);
},
{
closed = 1;
nodes = (
"328 392 LINE",
"328 556 LINE",
"14 556 LINE",
"14 392 LINE"
);
}
);
width = 633;
},
{
associatedMasterId = UUID0;
layerId = "3B9F731C-D20B-4723-8831-A6217E6E9151";
name = "Regular Aug 1 16, 22:19";
paths = (
{
closed = 1;
nodes = (
"295 164 LINE",
"590 164 LINE",
"298 392 LINE",
"46 392 LINE"
);
},
{
closed = 1;
nodes = (
"10 164 LINE",
"10 0 LINE",
"280 0 LINE",
"280 164 LINE"
);
},
{
closed = 1;
nodes = (
"576 392 LINE",
"386 392 LINE",
"52 164 LINE",
"251 164 LINE"
);
},
{
closed = 1;
nodes = (
"308 164 LINE",
"308 0 LINE",
"622 0 LINE",
"622 164 LINE"
);
},
{
closed = 1;
nodes = (
"618 392 LINE",
"618 556 LINE",
"356 556 LINE",
"356 392 LINE"
);
},
{
closed = 1;
nodes = (
"328 392 LINE",
"328 556 LINE",
"14 556 LINE",
"14 392 LINE"
);
}
);
width = 633;
},
{
associatedMasterId = UUID0;
layerId = "36343B24-33D0-47A8-8FE9-98C63E0CC943";
name = "Regular Aug 1 16, 22:19";
paths = (
{
closed = 1;
nodes = (
"295 164 LINE",
"590 164 LINE",
"298 392 LINE",
"46 392 LINE"
);
},
{
closed = 1;
nodes = (
"10 164 LINE",
"10 0 LINE",
"280 0 LINE",
"280 164 LINE"
);
},
{
closed = 1;
nodes = (
"576 392 LINE",
"386 392 LINE",
"52 164 LINE",
"250 164 LINE"
);
},
{
closed = 1;
nodes = (
"308 164 LINE",
"308 0 LINE",
"622 0 LINE",
"622 164 LINE"
);
},
{
closed = 1;
nodes = (
"618 392 LINE",
"618 556 LINE",
"356 556 LINE",
"356 392 LINE"
);
},
{
closed = 1;
nodes = (
"328 392 LINE",
"328 556 LINE",
"14 556 LINE",
"14 392 LINE"
);
}
);
width = 633;
},
{
associatedMasterId = UUID0;
layerId = "E699C170-BFF7-4B75-9360-F6807E362CA5";
name = "Regular Aug 1 16, 22:19";
paths = (
{
closed = 1;
nodes = (
"338 164 LINE",
"590 164 LINE",
"298 392 LINE",
"46 392 LINE"
);
},
{
closed = 1;
nodes = (
"10 164 LINE",
"10 0 LINE",
"280 0 LINE",
"280 164 LINE"
);
},
{
closed = 1;
nodes = (
"576 392 LINE",
"386 392 LINE",
"52 164 LINE",
"250 164 LINE"
);
},
{
closed = 1;
nodes = (
"308 164 LINE",
"308 0 LINE",
"622 0 LINE",
"622 164 LINE"
);
},
{
closed = 1;
nodes = (
"618 392 LINE",
"618 556 LINE",
"356 556 LINE",
"356 392 LINE"
);
},
{
closed = 1;
nodes = (
"328 392 LINE",
"328 556 LINE",
"14 556 LINE",
"14 392 LINE"
);
}
);
width = 633;
},
{
associatedMasterId = UUID0;
layerId = "3D195B93-EFD2-4EE7-8C9E-10FA65754324";
name = "Regular Aug 1 16, 22:19";
paths = (
{
closed = 1;
nodes = (
"338 164 LINE",
"590 164 LINE",
"298 392 LINE",
"46 392 LINE"
);
},
{
closed = 1;
nodes = (
"10 164 LINE",
"10 0 LINE",
"280 0 LINE",
"280 164 LINE"
);
},
{
closed = 1;
nodes = (
"576 392 LINE",
"386 392 LINE",
"52 164 LINE",
"250 164 LINE"
);
},
{
closed = 1;
nodes = (
"308 164 LINE",
"308 0 LINE",
"622 0 LINE",
"622 164 LINE"
);
},
{
closed = 1;
nodes = (
"618 392 LINE",
"618 556 LINE",
"356 556 LINE",
"356 392 LINE"
);
},
{
closed = 1;
nodes = (
"328 392 LINE",
"328 556 LINE",
"14 556 LINE",
"14 392 LINE"
);
}
);
width = 633;
},
{
associatedMasterId = UUID0;
layerId = "BBC1D456-8F67-497C-9CE0-E0B469A3DEDD";
name = "Regular Aug 1 16, 22:19";
paths = (
{
closed = 1;
nodes = (
"338 164 LINE",
"590 164 LINE",
"298 392 LINE",
"46 392 LINE"
);
},
{
closed = 1;
nodes = (
"10 164 LINE",
"10 0 LINE",
"290 0 LINE",
"290 164 LINE"
);
},
{
closed = 1;
nodes = (
"576 392 LINE",
"386 392 LINE",
"52 164 LINE",
"250 164 LINE"
);
},
{
closed = 1;
nodes = (
"318 164 LINE",
"318 0 LINE",
"622 0 LINE",
"622 164 LINE"
);
},
{
closed = 1;
nodes = (
"618 392 LINE",
"618 556 LINE",
"346 556 LINE",
"346 392 LINE"
);
},
{
closed = 1;
nodes = (
"318 392 LINE",
"318 556 LINE",
"14 556 LINE",
"14 392 LINE"
);
}
);
width = 633;
},
{
associatedMasterId = UUID0;
layerId = "36BE4EAA-847A-47CD-974E-5AFD22CF31EF";
name = "Regular Aug 1 16, 22:21";
paths = (
{
closed = 1;
nodes = (
"10 164 LINE",
"10 0 LINE",
"290 0 LINE",
"290 164 LINE"
);
},
{
closed = 1;
nodes = (
"318 164 LINE",
"318 0 LINE",
"622 0 LINE",
"622 164 LINE"
);
},
{
closed = 1;
nodes = (
"618 392 LINE",
"618 556 LINE",
"346 556 LINE",
"346 392 LINE"
);
},
{
closed = 1;
nodes = (
"318 392 LINE",
"318 556 LINE",
"14 556 LINE",
"14 392 LINE"
);
},
{
closed = 1;
nodes = (
"205.201 271.808 LINE",
"52 164 LINE",
"260 164 LINE",
"304.997 196.466 LINE",
"348 164 LINE",
"590 164 LINE",
"428.738 285.748 LINE",
"576 392 LINE",
"376 392 LINE",
"330.454 359.949 LINE",
"288 392 LINE",
"46 392 LINE"
);
}
);
width = 633;
},
{
associatedMasterId = UUID0;
layerId = "794A4E3F-2BCF-44EB-974D-ADA30B9844BA";
name = "Regular Aug 1 16, 22:23";
paths = (
{
closed = 1;
nodes = (
"10 164 LINE",
"10 0 LINE",
"290 0 LINE",
"290 164 LINE"
);
},
{
closed = 1;
nodes = (
"318 164 LINE",
"318 0 LINE",
"622 0 LINE",
"622 164 LINE"
);
},
{
closed = 1;
nodes = (
"618 392 LINE",
"618 556 LINE",
"346 556 LINE",
"346 392 LINE"
);
},
{
closed = 1;
nodes = (
"318 392 LINE",
"318 556 LINE",
"14 556 LINE",
"14 392 LINE"
);
},
{
closed = 1;
nodes = (
"241 245 LINE",
"242 298 LINE",
"52 164 LINE",
"260 164 LINE",
"341 233 LINE",
"269 234 LINE",
"348 164 LINE",
"590 164 LINE",
"393 313 LINE",
"392 259 LINE",
"576 392 LINE",
"376 392 LINE",
"294 324 LINE",
"366 323 LINE",
"288 392 LINE",
"46 392 LINE"
);
}
);
width = 633;
},
{
associatedMasterId = UUID0;
layerId = "CA234CAE-F95D-4ECC-A0B5-F79916794D23";
name = "Regular Aug 1 16, 22:24";
paths = (
{
closed = 1;
nodes = (
"10 164 LINE",
"10 0 LINE",
"290 0 LINE",
"290 164 LINE"
);
},
{
closed = 1;
nodes = (
"318 164 LINE",
"318 0 LINE",
"622 0 LINE",
"622 164 LINE"
);
},
{
closed = 1;
nodes = (
"618 392 LINE",
"618 556 LINE",
"346 556 LINE",
"346 392 LINE"
);
},
{
closed = 1;
nodes = (
"318 392 LINE",
"318 556 LINE",
"14 556 LINE",
"14 392 LINE"
);
},
{
closed = 1;
nodes = (
"221 245 LINE",
"222 298 LINE",
"52 164 LINE",
"260 164 LINE",
"341 233 LINE",
"269 234 LINE",
"348 164 LINE",
"590 164 LINE",
"413 313 LINE",
"412 259 LINE",
"576 392 LINE",
"376 392 LINE",
"294 324 LINE",
"366 323 LINE",
"288 392 LINE",
"46 392 LINE"
);
}
);
width = 633;
},
{
associatedMasterId = UUID0;
layerId = "EB4D1B7B-3A9F-4FD3-BA1D-95300065FDA4";
name = "Regular Aug 1 16, 22:24";
paths = (
{
closed = 1;
nodes = (
"10 164 LINE",
"10 0 LINE",
"290 0 LINE",
"290 164 LINE"
);
},
{
closed = 1;
nodes = (
"318 164 LINE",
"318 0 LINE",
"622 0 LINE",
"622 164 LINE"
);
},
{
closed = 1;
nodes = (
"618 392 LINE",
"618 556 LINE",
"346 556 LINE",
"346 392 LINE"
);
},
{
closed = 1;
nodes = (
"318 392 LINE",
"318 556 LINE",
"14 556 LINE",
"14 392 LINE"
);
},
{
closed = 1;
nodes = (
"201 245 LINE",
"202 298 LINE",
"52 164 LINE",
"260 164 LINE",
"341 233 LINE",
"269 234 LINE",
"348 164 LINE",
"590 164 LINE",
"433 313 LINE",
"432 259 LINE",
"576 392 LINE",
"376 392 LINE",
"294 324 LINE",
"366 323 LINE",
"288 392 LINE",
"46 392 LINE"
);
}
);
width = 633;
},
{
associatedMasterId = UUID0;
layerId = "678F79E7-3288-4DCD-B6B8-EFFE321E0FB3";
name = "Regular Aug 1 16, 22:24";
paths = (
{
closed = 1;
nodes = (
"10 164 LINE",
"10 0 LINE",
"290 0 LINE",
"290 164 LINE"
);
},
{
closed = 1;
nodes = (
"318 164 LINE",
"318 0 LINE",
"622 0 LINE",
"622 164 LINE"
);
},
{
closed = 1;
nodes = (
"618 392 LINE",
"618 556 LINE",
"346 556 LINE",
"346 392 LINE"
);
},
{
closed = 1;
nodes = (
"318 392 LINE",
"318 556 LINE",
"14 556 LINE",
"14 392 LINE"
);
},
{
closed = 1;
nodes = (
"201 245 LINE",
"202 298 LINE",
"52 164 LINE",
"260 164 LINE",
"331 233 LINE",
"279 234 LINE",
"348 164 LINE",
"590 164 LINE",
"433 313 LINE",
"432 259 LINE",
"576 392 LINE",
"376 392 LINE",
"304 324 LINE",
"356 323 LINE",
"288 392 LINE",
"46 392 LINE"
);
}
);
width = 633;
},
{
associatedMasterId = UUID0;
layerId = "93F957DF-5184-4F26-B8C6-B335127BAE30";
name = "Regular Aug 1 16, 22:26";
paths = (
{
closed = 1;
nodes = (
"12 164 LINE",
"12 0 LINE",
"290 0 LINE",
"290 164 LINE"
);
},
{
closed = 1;
nodes = (
"322 164 LINE",
"322 0 LINE",
"624 0 LINE",
"624 164 LINE"
);
},
{
closed = 1;
nodes = (
"620 392 LINE",
"620 556 LINE",
"350 556 LINE",
"350 392 LINE"
);
},
{
closed = 1;
nodes = (
"318 392 LINE",
"318 556 LINE",
"16 556 LINE",
"16 392 LINE"
);
},
{
closed = 1;
nodes = (
"203 245 LINE",
"204 298 LINE",
"54 164 LINE",
"262 164 LINE",
"333 233 LINE",
"281 234 LINE",
"350 164 LINE",
"592 164 LINE",
"435 313 LINE",
"434 259 LINE",
"578 392 LINE",
"378 392 LINE",
"306 324 LINE",
"358 323 LINE",
"290 392 LINE",
"48 392 LINE"
);
}
);
width = 636;
},
{
associatedMasterId = UUID0;
layerId = "DA506460-2E83-4C51-B253-8EF5590AA48C";
name = "Regular Aug 1 16, 22:26";
paths = (
{
closed = 1;
nodes = (
"12 164 LINE",
"12 0 LINE",
"280 0 LINE",
"280 164 LINE"
);
},
{
closed = 1;
nodes = (
"312 164 LINE",
"312 0 LINE",
"624 0 LINE",
"624 164 LINE"
);
},
{
closed = 1;
nodes = (
"620 392 LINE",
"620 556 LINE",
"360 556 LINE",
"360 392 LINE"
);
},
{
closed = 1;
nodes = (
"328 392 LINE",
"328 556 LINE",
"16 556 LINE",
"16 392 LINE"
);
},
{
closed = 1;
nodes = (
"203 245 LINE",
"204 298 LINE",
"54 164 LINE",
"252 164 LINE",
"323 233 LINE",
"271 234 LINE",
"340 164 LINE",
"592 164 LINE",
"435 313 LINE",
"434 259 LINE",
"578 392 LINE",
"388 392 LINE",
"316 324 LINE",
"368 323 LINE",
"300 392 LINE",
"48 392 LINE"
);
}
);
width = 636;
visible = 1;
},
{
associatedMasterId = UUID0;
layerId = "7C56187B-FD39-4C4C-966B-3153A157AA4A";
name = "Regular Aug 2 16, 16:57";
paths = (
{
closed = 1;
nodes = (
"12 164 LINE",
"12 0 LINE",
"280 0 LINE",
"280 164 LINE"
);
},
{
closed = 1;
nodes = (
"312 164 LINE",
"312 0 LINE",
"624 0 LINE",
"624 164 LINE"
);
},
{
closed = 1;
nodes = (
"620 392 LINE",
"620 556 LINE",
"360 556 LINE",
"360 392 LINE"
);
},
{
closed = 1;
nodes = (
"328 392 LINE",
"328 556 LINE",
"16 556 LINE",
"16 392 LINE"
);
},
{
closed = 1;
nodes = (
"203 245 LINE",
"204 298 LINE",
"54 164 LINE",
"252 164 LINE",
"323 233 LINE",
"271 234 LINE",
"340 164 LINE",
"592 164 LINE",
"435 313 LINE",
"434 259 LINE",
"578 392 LINE",
"388 392 LINE",
"349 324 LINE",
"339 324 LINE",
"300 392 LINE",
"48 392 LINE"
);
}
);
width = 636;
},
{
associatedMasterId = UUID0;
layerId = "B598A359-75D2-4BA6-9276-250BA8E97925";
name = "Regular Aug 2 16, 16:58";
paths = (
{
closed = 1;
nodes = (
"12 164 LINE",
"12 0 LINE",
"280 0 LINE",
"280 164 LINE"
);
},
{
closed = 1;
nodes = (
"312 164 LINE",
"312 0 LINE",
"624 0 LINE",
"624 164 LINE"
);
},
{
closed = 1;
nodes = (
"620 392 LINE",
"620 556 LINE",
"360 556 LINE",
"360 392 LINE"
);
},
{
closed = 1;
nodes = (
"328 392 LINE",
"328 556 LINE",
"16 556 LINE",
"16 392 LINE"
);
},
{
closed = 1;
nodes = (
"203 245 LINE",
"204 298 LINE",
"54 164 LINE",
"252 164 LINE",
"291 233 LINE",
"301 233 LINE",
"340 164 LINE",
"592 164 LINE",
"435 313 LINE",
"434 259 LINE",
"578 392 LINE",
"388 392 LINE",
"349 324 LINE",
"339 324 LINE",
"300 392 LINE",
"48 392 LINE"
);
}
);
width = 636;
},
{
associatedMasterId = UUID0;
layerId = "42D3DEDD-DAEC-4D81-B6AB-36C732BE8787";
name = "Regular Aug 2 16, 16:58";
paths = (
{
closed = 1;
nodes = (
"12 164 LINE",
"12 0 LINE",
"280 0 LINE",
"280 164 LINE"
);
},
{
closed = 1;
nodes = (
"312 164 LINE",
"312 0 LINE",
"624 0 LINE",
"624 164 LINE"
);
},
{
closed = 1;
nodes = (
"620 392 LINE",
"620 556 LINE",
"360 556 LINE",
"360 392 LINE"
);
},
{
closed = 1;
nodes = (
"328 392 LINE",
"328 556 LINE",
"16 556 LINE",
"16 392 LINE"
);
},
{
closed = 1;
nodes = (
"203 245 LINE",
"204 298 LINE",
"54 164 LINE",
"252 164 LINE",
"291 233 LINE",
"301 233 LINE",
"340 164 LINE",
"592 164 LINE",
"435 313 LINE",
"434 259 LINE",
"578 392 LINE",
"388 392 LINE",
"349 334 LINE",
"339 334 LINE",
"300 392 LINE",
"48 392 LINE"
);
}
);
width = 636;
},
{
associatedMasterId = UUID0;
layerId = "DE62A514-70CD-45D8-A89F-F337839F12FC";
name = "Regular Aug 2 16, 16:58";
paths = (
{
closed = 1;
nodes = (
"12 164 LINE",
"12 0 LINE",
"280 0 LINE",
"280 164 LINE"
);
},
{
closed = 1;
nodes = (
"312 164 LINE",
"312 0 LINE",
"624 0 LINE",
"624 164 LINE"
);
},
{
closed = 1;
nodes = (
"620 392 LINE",
"620 556 LINE",
"360 556 LINE",
"360 392 LINE"
);
},
{
closed = 1;
nodes = (
"328 392 LINE",
"328 556 LINE",
"16 556 LINE",
"16 392 LINE"
);
},
{
closed = 1;
nodes = (
"203 245 LINE",
"204 298 LINE",
"54 164 LINE",
"252 164 LINE",
"291 223 LINE",
"301 223 LINE",
"340 164 LINE",
"592 164 LINE",
"435 313 LINE",
"434 259 LINE",
"578 392 LINE",
"388 392 LINE",
"349 334 LINE",
"339 334 LINE",
"300 392 LINE",
"48 392 LINE"
);
}
);
width = 636;
}
);
unicode = 0078;
},
{
color = 3;
glyphname = y;
lastChange = "2016-08-04 07:05:29 +0000";
layers = (
{
anchors = (
{
name = bottom;
position = "{532, 0}";
},
{
name = top;
position = "{326, 556}";
}
);
layerId = UUID0;
paths = (
{
closed = 1;
nodes = (
"243 -104 LINE",
"239 64 LINE",
"232 42 LINE SMOOTH",
"212 -22 OFFCURVE",
"201 -39 OFFCURVE",
"174 -39 CURVE SMOOTH",
"156 -39 OFFCURVE",
"148 -30 OFFCURVE",
"148 -14 CURVE SMOOTH",
"148 -4 LINE",
"10 -4 LINE",
"10 -185 LINE",
"57 -205 OFFCURVE",
"117 -217 OFFCURVE",
"173 -217 CURVE SMOOTH",
"319 -217 OFFCURVE",
"391 -114 OFFCURVE",
"451 45 CURVE SMOOTH",
"582 392 LINE",
"620 392 LINE",
"620 556 LINE",
"342 556 LINE",
"342 392 LINE",
"376 392 LINE",
"323 220 LINE",
"333 220 LINE",
"276 392 LINE",
"310 392 LINE",
"310 556 LINE",
"13 556 LINE",
"13 392 LINE",
"51 392 LINE"
);
}
);
width = 632;
},
{
associatedMasterId = UUID0;
layerId = "39300176-935A-44E1-877A-8AE08993B832";
name = "Regular Aug 1 16, 15:49";
paths = (
{
closed = 1;
nodes = (
"1 556 LINE",
"1 389 LINE",
"45 389 LINE",
"167 18 LINE",
"183 -28 OFFCURVE",
"171 -52 OFFCURVE",
"141 -52 CURVE SMOOTH",
"120 -52 OFFCURVE",
"117 -38 OFFCURVE",
"117 -38 CURVE",
"117 -18 LINE",
"-11 -18 LINE",
"-11 -183 LINE",
"31 -216 OFFCURVE",
"102 -234 OFFCURVE",
"181 -234 CURVE SMOOTH",
"377 -234 OFFCURVE",
"443 -146 OFFCURVE",
"485 18 CURVE",
"570 389 LINE",
"615 389 LINE",
"615 556 LINE",
"330 556 LINE",
"330 389 LINE",
"376 389 LINE",
"336 118 LINE",
"325 118 LINE",
"269 389 LINE",
"313 389 LINE",
"313 556 LINE"
);
},
{
closed = 1;
nodes = (
"-598 0 LINE SMOOTH",
"-581 -58 OFFCURVE",
"-591 -74 OFFCURVE",
"-623 -74 CURVE SMOOTH",
"-652 -74 OFFCURVE",
"-657 -60 OFFCURVE",
"-657 -40 CURVE",
"-795 -40 LINE",
"-795 -205 LINE",
"-795 -205 OFFCURVE",
"-696 -256 OFFCURVE",
"-573 -256 CURVE SMOOTH",
"-377 -256 OFFCURVE",
"-313 -163 OFFCURVE",
"-268 0 CURVE SMOOTH",
"-161 392 LINE",
"-118 392 LINE",
"-118 556 LINE",
"-413 556 LINE",
"-413 392 LINE",
"-367 392 LINE",
"-419 134 LINE",
"-429 134 LINE",
"-485 392 LINE",
"-440 392 LINE",
"-440 556 LINE",
"-752 556 LINE",
"-752 392 LINE",
"-710 392 LINE"
);
},
{
closed = 1;
nodes = (
"993 556 LINE",
"719 556 LINE",
"719 392 LINE",
"763 392 LINE",
"763 228 LINE SMOOTH",
"763 61 OFFCURVE",
"831 -14 OFFCURVE",
"940 -14 CURVE SMOOTH",
"1030 -14 OFFCURVE",
"1077 36 OFFCURVE",
"1109 68 CURVE",
"1109 6 LINE SMOOTH",
"1109 -62 OFFCURVE",
"1083 -85 OFFCURVE",
"1011 -85 CURVE SMOOTH",
"899 -85 OFFCURVE",
"784 -66 OFFCURVE",
"784 -66 CURVE",
"784 -222 LINE",
"784 -222 OFFCURVE",
"888 -256 OFFCURVE",
"1038 -256 CURVE SMOOTH",
"1235 -256 OFFCURVE",
"1339 -161 OFFCURVE",
"1339 36 CURVE SMOOTH",
"1339 556 LINE",
"1055 556 LINE",
"1055 392 LINE",
"1109 392 LINE",
"1109 228 LINE SMOOTH",
"1109 183 OFFCURVE",
"1089 164 OFFCURVE",
"1051 164 CURVE SMOOTH",
"1013 164 OFFCURVE",
"993 183 OFFCURVE",
"993 228 CURVE SMOOTH"
);
},
{
closed = 1;
nodes = (
"-1273 13 LINE SMOOTH",
"-1255 -43 OFFCURVE",
"-1283 -78 OFFCURVE",
"-1328 -78 CURVE SMOOTH",
"-1375 -78 OFFCURVE",
"-1429 -71 OFFCURVE",
"-1429 -71 CURVE",
"-1429 -233 LINE",
"-1429 -233 OFFCURVE",
"-1343 -256 OFFCURVE",
"-1233 -256 CURVE SMOOTH",
"-1081 -256 OFFCURVE",
"-1002 -163 OFFCURVE",
"-957 0 CURVE",
"-845 392 LINE",
"-802 392 LINE",
"-802 556 LINE",
"-1097 556 LINE",
"-1097 392 LINE",
"-1051 392 LINE",
"-1103 134 LINE",
"-1113 134 LINE",
"-1169 392 LINE",
"-1124 392 LINE",
"-1124 556 LINE",
"-1436 556 LINE",
"-1436 392 LINE",
"-1394 392 LINE"
);
}
);
width = 648;
},
{
anchors = (
{
name = top;
position = "{322, 614}";
}
);
associatedMasterId = UUID0;
layerId = "A089F4EB-E069-4645-9CEB-B7FCAC733462";
name = "Regular Aug 1 16, 15:49";
paths = (
{
closed = 1;
nodes = (
"276 556 LINE",
"2 556 LINE",
"2 392 LINE",
"46 392 LINE",
"46 228 LINE SMOOTH",
"46 61 OFFCURVE",
"114 -14 OFFCURVE",
"223 -14 CURVE SMOOTH",
"313 -14 OFFCURVE",
"360 36 OFFCURVE",
"392 68 CURVE",
"392 26 LINE SMOOTH",
"392 -42 OFFCURVE",
"356 -58 OFFCURVE",
"284 -58 CURVE SMOOTH",
"202 -58 OFFCURVE",
"129 -51 OFFCURVE",
"67 -39 CURVE",
"67 -203 LINE",
"67 -203 OFFCURVE",
"171 -236 OFFCURVE",
"321 -236 CURVE SMOOTH",
"518 -236 OFFCURVE",
"622 -141 OFFCURVE",
"622 56 CURVE SMOOTH",
"622 556 LINE",
"338 556 LINE",
"338 392 LINE",
"392 392 LINE",
"392 228 LINE SMOOTH",
"392 183 OFFCURVE",
"372 164 OFFCURVE",
"334 164 CURVE SMOOTH",
"296 164 OFFCURVE",
"276 183 OFFCURVE",
"276 228 CURVE SMOOTH"
);
}
);
width = 648;
},
{
anchors = (
{
name = top;
position = "{322, 614}";
}
);
associatedMasterId = UUID0;
layerId = "615339FB-103B-4E8E-8D7F-604E562CCA6A";
name = "Regular Aug 1 16, 15:51";
paths = (
{
closed = 1;
nodes = (
"161 0 LINE SMOOTH",
"178 -58 OFFCURVE",
"168 -74 OFFCURVE",
"136 -74 CURVE SMOOTH",
"107 -74 OFFCURVE",
"102 -60 OFFCURVE",
"102 -40 CURVE",
"-36 -40 LINE",
"-36 -205 LINE",
"-36 -205 OFFCURVE",
"63 -256 OFFCURVE",
"186 -256 CURVE SMOOTH",
"382 -256 OFFCURVE",
"446 -163 OFFCURVE",
"491 0 CURVE SMOOTH",
"598 392 LINE",
"636 392 LINE",
"636 556 LINE",
"358 556 LINE",
"358 392 LINE",
"392 392 LINE",
"340 134 LINE",
"330 134 LINE",
"274 392 LINE",
"308 392 LINE",
"308 556 LINE",
"11 556 LINE",
"11 392 LINE",
"49 392 LINE"
);
}
);
width = 648;
visible = 1;
}
);
unicode = 0079;
},
{
color = 3;
glyphname = z;
lastChange = "2016-08-02 20:29:47 +0000";
layers = (
{
anchors = (
{
name = bottom;
position = "{284, 0}";
},
{
name = top;
position = "{283, 556}";
}
);
background = {
paths = (
{
closed = 1;
nodes = (
"54 0 LINE",
"261 0 LINE",
"261 500 LINE",
"54 500 LINE"
);
},
{
closed = 1;
nodes = (
"14 0 LINE",
"302 0 LINE",
"302 106 LINE",
"14 106 LINE"
);
},
{
closed = 1;
nodes = (
"14 396 LINE",
"226 396 LINE",
"226 500 LINE",
"14 500 LINE"
);
},
{
closed = 1;
nodes = (
"357 0 LINE",
"564 0 LINE",
"564 332 LINE",
"357 332 LINE"
);
},
{
closed = 1;
nodes = (
"317 0 LINE",
"605 0 LINE",
"605 106 LINE",
"317 106 LINE"
);
},
{
closed = 1;
nodes = (
"261 345 LINE",
"262 383 OFFCURVE",
"282 407 OFFCURVE",
"313 407 CURVE SMOOTH",
"350 407 OFFCURVE",
"357 368 OFFCURVE",
"357 332 CURVE",
"564 332 LINE",
"564 493 OFFCURVE",
"475 513 OFFCURVE",
"416 513 CURVE SMOOTH",
"337 513 OFFCURVE",
"291 485 OFFCURVE",
"261 466 CURVE"
);
}
);
};
layerId = UUID0;
paths = (
{
closed = 1;
nodes = (
"258 392 LINE",
"169 392 LINE",
"169 356 LINE",
"20 356 LINE",
"20 556 LINE",
"545 556 LINE",
"545 413 LINE",
"307 164 LINE",
"403 164 LINE",
"403 220 LINE",
"554 220 LINE",
"554 0 LINE",
"14 0 LINE",
"14 149 LINE"
);
}
);
width = 568;
}
);
unicode = 007A;
},
{
color = 3;
glyphname = AE;
lastChange = "2016-08-02 18:53:52 +0000";
layers = (
{
anchors = (
{
name = top;
position = "{701, 778}";
}
);
background = {
paths = (
{
closed = 1;
nodes = (
"441 452 LINE",
"685 452 LINE",
"685 778 LINE",
"41 778 LINE",
"-185 778 LINE",
"-358 176 LINE",
"-407 176 LINE",
"-407 0 LINE",
"-6 0 LINE",
"-6 176 LINE",
"-67 176 LINE",
"-67 176 OFFCURVE",
"-59 212 OFFCURVE",
"-48 264 CURVE",
"41 264 LINE",
"41 0 LINE",
"685 0 LINE",
"685 349 LINE",
"441 349 LINE",
"441 176 LINE",
"330 176 LINE",
"330 334 LINE",
"418 334 LINE",
"418 468 LINE",
"330 468 LINE",
"330 611 LINE",
"441 611 LINE"
);
},
{
closed = 1;
nodes = (
"23 591 LINE",
"41 591 LINE",
"41 390 LINE",
"-21 390 LINE"
);
}
);
};
hints = (
{
place = "{-408, 21}";
}
);
layerId = UUID0;
paths = (
{
closed = 1;
nodes = (
"12 0 LINE",
"389 0 LINE",
"389 164 LINE",
"12 164 LINE"
);
},
{
closed = 1;
nodes = (
"345 244 LINE",
"626 244 LINE",
"626 360 LINE",
"369 360 LINE"
);
},
{
closed = 1;
nodes = (
"311 778 LINE",
"52 164 LINE",
"329 164 LINE",
"485 591 LINE",
"495 591 LINE",
"495 778 LINE"
);
},
{
closed = 1;
nodes = (
"896 476 LINE",
"1120 476 LINE",
"1120 778 LINE",
"495 778 LINE",
"495 164 LINE",
"445 164 LINE",
"445 0 LINE",
"1120 0 LINE",
"1120 322 LINE",
"896 322 LINE",
"896 164 LINE",
"775 164 LINE",
"775 342 LINE",
"863 342 LINE",
"863 456 LINE",
"775 456 LINE",
"775 614 LINE",
"896 614 LINE"
);
}
);
width = 1138;
}
);
rightMetricsKey = "=E";
unicode = 00C6;
},
{
color = 3;
glyphname = ae;
lastChange = "2016-08-02 18:54:09 +0000";
layers = (
{
anchors = (
{
name = top;
position = "{466, 556}";
}
);
layerId = UUID0;
paths = (
{
closed = 1;
nodes = (
"301 -14 OFFCURVE",
"372 67 OFFCURVE",
"403 119 CURVE",
"356 127 LINE",
"403 33 OFFCURVE",
"498 -14 OFFCURVE",
"627 -14 CURVE SMOOTH",
"743 -14 OFFCURVE",
"837 15 OFFCURVE",
"876 36 CURVE",
"876 196 LINE",
"828 180 OFFCURVE",
"752 164 OFFCURVE",
"664 164 CURVE SMOOTH",
"594 164 OFFCURVE",
"569 188 OFFCURVE",
"569 236 CURVE SMOOTH",
"569 242 LINE",
"893 242 LINE",
"893 314 LINE SMOOTH",
"893 440 OFFCURVE",
"832 570 OFFCURVE",
"638 570 CURVE SMOOTH",
"563 570 OFFCURVE",
"498 550 OFFCURVE",
"447 509 CURVE",
"489 502 LINE",
"445 547 OFFCURVE",
"377 570 OFFCURVE",
"280 570 CURVE SMOOTH",
"199 570 OFFCURVE",
"112 558 OFFCURVE",
"44 541 CURVE",
"44 357 LINE",
"99 377 OFFCURVE",
"173 392 OFFCURVE",
"235 392 CURVE SMOOTH",
"312 392 OFFCURVE",
"339 378 OFFCURVE",
"339 321 CURVE",
"352 333 LINE",
"140 333 OFFCURVE",
"18 274 OFFCURVE",
"18 139 CURVE SMOOTH",
"18 40 OFFCURVE",
"80 -14 OFFCURVE",
"179 -14 CURVE SMOOTH"
);
},
{
closed = 1;
nodes = (
"258 144 OFFCURVE",
"243 159 OFFCURVE",
"243 182 CURVE SMOOTH",
"243 221 OFFCURVE",
"280 234 OFFCURVE",
"337 234 CURVE",
"337 228 LINE SMOOTH",
"337 175 OFFCURVE",
"317 144 OFFCURVE",
"283 144 CURVE SMOOTH"
);
},
{
closed = 1;
nodes = (
"569 364 LINE SMOOTH",
"569 409 OFFCURVE",
"589 428 OFFCURVE",
"627 428 CURVE SMOOTH",
"664 428 OFFCURVE",
"685 410 OFFCURVE",
"685 364 CURVE SMOOTH",
"685 352 LINE",
"569 352 LINE"
);
}
);
width = 905;
},
{
associatedMasterId = UUID0;
layerId = "704724F9-9595-4758-8EFC-5C1AA7A83CA7";
name = "Regular Aug 2 16, 13:37";
paths = (
{
closed = 1;
nodes = (
"598 164 LINE",
"598 328 LINE SMOOTH",
"598 471 OFFCURVE",
"509 570 OFFCURVE",
"321 570 CURVE SMOOTH",
"162 570 OFFCURVE",
"44 535 OFFCURVE",
"44 535 CURVE",
"44 363 LINE",
"110 378 OFFCURVE",
"197 392 OFFCURVE",
"276 392 CURVE SMOOTH",
"351 392 OFFCURVE",
"368 372 OFFCURVE",
"368 334 CURVE",
"119 334 OFFCURVE",
"8 266 OFFCURVE",
"8 142 CURVE SMOOTH",
"8 41 OFFCURVE",
"79 -14 OFFCURVE",
"193 -14 CURVE SMOOTH",
"312 -14 OFFCURVE",
"395 47 OFFCURVE",
"430 89 CURVE"
);
},
{
closed = 1;
nodes = (
"368 228 LINE SMOOTH",
"368 185 OFFCURVE",
"346 164 OFFCURVE",
"307 164 CURVE SMOOTH",
"269 164 OFFCURVE",
"252 173 OFFCURVE",
"252 196 CURVE SMOOTH",
"252 228 OFFCURVE",
"297 234 OFFCURVE",
"368 234 CURVE"
);
},
{
closed = 1;
nodes = (
"668 570 LINE SMOOTH",
"507 570 OFFCURVE",
"376 473 OFFCURVE",
"376 278 CURVE SMOOTH",
"376 83 OFFCURVE",
"489 -14 OFFCURVE",
"668 -14 CURVE SMOOTH",
"827 -14 OFFCURVE",
"917 36 OFFCURVE",
"917 36 CURVE",
"917 196 LINE",
"869 180 OFFCURVE",
"793 164 OFFCURVE",
"705 164 CURVE SMOOTH",
"635 164 OFFCURVE",
"610 188 OFFCURVE",
"610 236 CURVE SMOOTH",
"610 242 LINE",
"934 242 LINE",
"934 314 LINE SMOOTH",
"934 440 OFFCURVE",
"873 570 OFFCURVE",
"668 570 CURVE SMOOTH"
);
},
{
closed = 1;
nodes = (
"668 392 LINE SMOOTH",
"706 392 OFFCURVE",
"726 373 OFFCURVE",
"726 328 CURVE SMOOTH",
"726 322 LINE",
"610 322 LINE",
"610 328 LINE SMOOTH",
"610 373 OFFCURVE",
"630 392 OFFCURVE",
"668 392 CURVE SMOOTH"
);
}
);
width = 946;
visible = 1;
}
);
leftMetricsKey = a;
rightMetricsKey = e;
unicode = 00E6;
},
{
color = 3;
glyphname = dcroat;
lastChange = "2016-08-02 08:10:50 +0000";
layers = (
{
layerId = UUID0;
paths = (
{
closed = 1;
nodes = (
"370 488 LINE",
"345 520 OFFCURVE",
"291 570 OFFCURVE",
"215 570 CURVE SMOOTH",
"77 570 OFFCURVE",
"10 462 OFFCURVE",
"10 278 CURVE SMOOTH",
"10 94 OFFCURVE",
"77 -14 OFFCURVE",
"215 -14 CURVE SMOOTH",
"291 -14 OFFCURVE",
"345 36 OFFCURVE",
"370 68 CURVE",
"370 0 LINE",
"644 0 LINE",
"644 164 LINE",
"600 164 LINE",
"600 778 LINE",
"370 778 LINE"
);
},
{
closed = 1;
nodes = (
"254 328 LINE SMOOTH",
"254 373 OFFCURVE",
"274 392 OFFCURVE",
"312 392 CURVE SMOOTH",
"350 392 OFFCURVE",
"370 373 OFFCURVE",
"370 328 CURVE SMOOTH",
"370 228 LINE SMOOTH",
"370 183 OFFCURVE",
"350 164 OFFCURVE",
"312 164 CURVE SMOOTH",
"274 164 OFFCURVE",
"254 183 OFFCURVE",
"254 228 CURVE SMOOTH"
);
},
{
closed = 1;
nodes = (
"654 624 LINE",
"654 725 LINE",
"201 725 LINE",
"201 624 LINE"
);
}
);
width = 670;
}
);
leftMetricsKey = "=d";
unicode = 0111;
},
{
color = 3;
glyphname = Eth;
lastChange = "2016-08-02 13:56:17 +0000";
layers = (
{
layerId = UUID0;
paths = (
{
closed = 1;
nodes = (
"28 613 LINE",
"88 613 LINE",
"88 164 LINE",
"28 164 LINE",
"28 0 LINE",
"444 0 LINE SMOOTH",
"649 0 OFFCURVE",
"808 97 OFFCURVE",
"808 389 CURVE SMOOTH",
"808 681 OFFCURVE",
"649 778 OFFCURVE",
"444 778 CURVE SMOOTH",
"28 778 LINE"
);
},
{
closed = 1;
nodes = (
"368 164 LINE",
"368 614 LINE",
"426 614 LINE SMOOTH",
"469 614 OFFCURVE",
"494 592 OFFCURVE",
"494 540 CURVE SMOOTH",
"494 238 LINE SMOOTH",
"494 186 OFFCURVE",
"471 164 OFFCURVE",
"426 164 CURVE SMOOTH"
);
},
{
closed = 1;
nodes = (
"429 311 LINE",
"429 475 LINE",
"17 475 LINE",
"17 311 LINE"
);
}
);
width = 826;
}
);
unicode = 00D0;
},
{
color = 3;
glyphname = eth;
lastChange = "2016-08-02 08:10:50 +0000";
layers = (
{
layerId = UUID0;
paths = (
{
closed = 1;
nodes = (
"271 164 OFFCURVE",
"252 184 OFFCURVE",
"252 228 CURVE SMOOTH",
"252 288 LINE SMOOTH",
"252 333 OFFCURVE",
"272 352 OFFCURVE",
"310 352 CURVE SMOOTH",
"348 352 OFFCURVE",
"368 333 OFFCURVE",
"368 288 CURVE SMOOTH",
"368 228 LINE SMOOTH",
"368 183 OFFCURVE",
"348 164 OFFCURVE",
"310 164 CURVE SMOOTH"
);
},
{
closed = 1;
nodes = (
"112 624 LINE",
"170 556 LINE",
"434 778 LINE",
"375 847 LINE"
);
},
{
closed = 1;
nodes = (
"8 76 OFFCURVE",
"125 -14 OFFCURVE",
"310 -14 CURVE SMOOTH",
"502 -14 OFFCURVE",
"612 85 OFFCURVE",
"612 308 CURVE SMOOTH",
"612 522 OFFCURVE",
"470 700 OFFCURVE",
"193 830 CURVE",
"79 759 LINE",
"79 738 LINE",
"214 666 OFFCURVE",
"375 549 OFFCURVE",
"443 368 CURVE",
"376 563 LINE",
"343 519 LINE",
"321 526 OFFCURVE",
"292 530 OFFCURVE",
"261 530 CURVE SMOOTH",
"106 530 OFFCURVE",
"8 433 OFFCURVE",
"8 258 CURVE SMOOTH"
);
}
);
width = 606;
},
{
associatedMasterId = UUID0;
background = {
paths = (
{
closed = 1;
nodes = (
"598 130 OFFCURVE",
"517 -18 OFFCURVE",
"304 -18 CURVE SMOOTH",
"100 -18 OFFCURVE",
"8 103 OFFCURVE",
"8 278 CURVE SMOOTH",
"8 423 OFFCURVE",
"99 569 OFFCURVE",
"302 570 CURVE",
"276 643 OFFCURVE",
"205 715 OFFCURVE",
"175 738 CURVE",
"175 759 LINE",
"289 830 LINE",
"396 778 OFFCURVE",
"598 596 OFFCURVE",
"598 277 CURVE SMOOTH"
);
},
{
closed = 1;
nodes = (
"250 171 OFFCURVE",
"274 164 OFFCURVE",
"302 164 CURVE SMOOTH",
"330 164 OFFCURVE",
"355 171 OFFCURVE",
"355 281 CURVE SMOOTH",
"355 391 OFFCURVE",
"330 399 OFFCURVE",
"302 399 CURVE SMOOTH",
"274 399 OFFCURVE",
"250 391 OFFCURVE",
"250 281 CURVE SMOOTH"
);
},
{
closed = 1;
nodes = (
"509 791 LINE",
"525 791 LINE",
"525 699 LINE",
"165 577 LINE",
"149 577 LINE",
"149 668 LINE"
);
}
);
};
layerId = "B1176400-064E-4E72-B0EA-0DC90F67BAA9";
name = "Regular Aug 2 16, 11:43";
paths = (
{
closed = 1;
nodes = (
"612 278 LINE SMOOTH",
"612 473 OFFCURVE",
"495 570 OFFCURVE",
"310 570 CURVE SMOOTH",
"125 570 OFFCURVE",
"8 473 OFFCURVE",
"8 278 CURVE SMOOTH",
"8 83 OFFCURVE",
"125 -14 OFFCURVE",
"310 -14 CURVE SMOOTH",
"495 -14 OFFCURVE",
"612 83 OFFCURVE",
"612 278 CURVE SMOOTH"
);
},
{
closed = 1;
nodes = (
"310 164 LINE SMOOTH",
"272 164 OFFCURVE",
"252 183 OFFCURVE",
"252 228 CURVE SMOOTH",
"252 328 LINE SMOOTH",
"252 373 OFFCURVE",
"272 392 OFFCURVE",
"310 392 CURVE SMOOTH",
"348 392 OFFCURVE",
"368 373 OFFCURVE",
"368 328 CURVE SMOOTH",
"368 228 LINE SMOOTH",
"368 183 OFFCURVE",
"348 164 OFFCURVE",
"310 164 CURVE SMOOTH"
);
},
{
closed = 1;
nodes = (
"612 278 LINE",
"612 504 OFFCURVE",
"504 693 OFFCURVE",
"293 830 CURVE",
"179 759 LINE",
"179 738 LINE",
"218 713 OFFCURVE",
"286 643 OFFCURVE",
"316 569 CURVE"
);
},
{
closed = 1;
nodes = (
"159 669 LINE",
"159 578 LINE",
"175 578 LINE",
"535 700 LINE",
"535 792 LINE",
"519 792 LINE"
);
}
);
width = 606;
visible = 1;
}
);
unicode = 00F0;
},
{
color = 3;
glyphname = Hbar;
lastChange = "2016-08-02 08:10:50 +0000";
layers = (
{
layerId = UUID0;
paths = (
{
closed = 1;
nodes = (
"20 614 LINE",
"70 614 LINE",
"70 164 LINE",
"20 164 LINE",
"20 0 LINE",
"398 0 LINE",
"398 164 LINE",
"350 164 LINE",
"350 614 LINE",
"398 614 LINE",
"398 778 LINE",
"20 778 LINE"
);
},
{
closed = 1;
nodes = (
"442 614 LINE",
"490 614 LINE",
"490 164 LINE",
"442 164 LINE",
"442 0 LINE",
"820 0 LINE",
"820 164 LINE",
"770 164 LINE",
"770 614 LINE",
"820 614 LINE",
"820 778 LINE",
"442 778 LINE"
);
},
{
closed = 1;
nodes = (
"291 249 LINE",
"538 249 LINE",
"538 363 LINE",
"291 363 LINE"
);
},
{
closed = 1;
nodes = (
"820 433 LINE",
"820 534 LINE",
"20 534 LINE",
"20 433 LINE"
);
}
);
width = 840;
}
);
leftMetricsKey = "=H";
rightMetricsKey = "=H";
unicode = 0126;
},
{
color = 3;
glyphname = hbar;
lastChange = "2016-08-02 08:10:50 +0000";
layers = (
{
layerId = UUID0;
paths = (
{
closed = 1;
nodes = (
"453 614 LINE",
"453 693 LINE",
"-32 693 LINE",
"-32 614 LINE"
);
},
{
closed = 1;
nodes = (
"364 0 LINE",
"682 0 LINE",
"682 164 LINE",
"638 164 LINE",
"638 328 LINE SMOOTH",
"638 495 OFFCURVE",
"570 570 OFFCURVE",
"461 570 CURVE SMOOTH",
"371 570 OFFCURVE",
"324 520 OFFCURVE",
"292 488 CURVE",
"292 778 LINE",
"18 778 LINE",
"18 614 LINE",
"62 614 LINE",
"62 164 LINE",
"18 164 LINE",
"18 0 LINE",
"336 0 LINE",
"336 164 LINE",
"292 164 LINE",
"292 328 LINE SMOOTH",
"292 373 OFFCURVE",
"312 392 OFFCURVE",
"350 392 CURVE SMOOTH",
"388 392 OFFCURVE",
"408 373 OFFCURVE",
"408 328 CURVE SMOOTH",
"408 164 LINE",
"364 164 LINE"
);
}
);
width = 692;
}
);
unicode = 0127;
},
{
color = 3;
glyphname = idotless;
lastChange = "2016-08-02 18:55:30 +0000";
layers = (
{
anchors = (
{
name = top;
position = "{167, 556}";
}
);
layerId = UUID0;
paths = (
{
closed = 1;
nodes = (
"292 556 LINE",
"18 556 LINE",
"18 392 LINE",
"62 392 LINE",
"62 164 LINE",
"18 164 LINE",
"18 0 LINE",
"336 0 LINE",
"336 164 LINE",
"292 164 LINE"
);
}
);
width = 346;
}
);
unicode = 0131;
},
{
color = 3;
glyphname = jdotless;
lastChange = "2016-08-02 19:59:15 +0000";
layers = (
{
anchors = (
{
name = top;
position = "{172, 556}";
}
);
layerId = UUID0;
paths = (
{
closed = 1;
nodes = (
"-10 392 LINE",
"57 392 LINE",
"57 14 LINE SMOOTH",
"57 -36 OFFCURVE",
"29 -58 OFFCURVE",
"-20 -58 CURVE SMOOTH",
"-48 -58 OFFCURVE",
"-84 -54 OFFCURVE",
"-104 -51 CURVE",
"-104 -214 LINE",
"-72 -223 OFFCURVE",
"-7 -236 OFFCURVE",
"54 -236 CURVE SMOOTH",
"210 -236 OFFCURVE",
"287 -149 OFFCURVE",
"287 34 CURVE SMOOTH",
"287 556 LINE",
"-10 556 LINE"
);
}
);
width = 313;
},
{
anchors = (
{
name = top;
position = "{172, 556}";
}
);
associatedMasterId = UUID0;
layerId = "11C18938-DD6A-42C3-AD81-590EE76E7DDA";
name = "Regular Aug 3 16, 01:29";
paths = (
{
closed = 1;
nodes = (
"-10 392 LINE",
"57 392 LINE",
"57 14 LINE SMOOTH",
"57 -36 OFFCURVE",
"33 -58 OFFCURVE",
"-10 -58 CURVE SMOOTH",
"-41 -58 OFFCURVE",
"-82 -54 OFFCURVE",
"-104 -51 CURVE",
"-104 -214 LINE",
"-72 -223 OFFCURVE",
"-7 -236 OFFCURVE",
"54 -236 CURVE SMOOTH",
"210 -236 OFFCURVE",
"287 -149 OFFCURVE",
"287 34 CURVE SMOOTH",
"287 556 LINE",
"-10 556 LINE"
);
}
);
width = 313;
}
);
unicode = 0237;
},
{
glyphname = kgreenlandic;
lastChange = "2016-07-26 11:06:05 +0000";
layers = (
{
layerId = UUID0;
paths = (
{
closed = 1;
nodes = (
"62 0 LINE",
"292 0 LINE",
"292 556 LINE",
"62 556 LINE"
);
},
{
closed = 1;
nodes = (
"18 392 LINE",
"253 392 LINE",
"253 556 LINE",
"18 556 LINE"
);
},
{
closed = 1;
nodes = (
"18 0 LINE",
"268 0 LINE",
"268 164 LINE",
"18 164 LINE"
);
},
{
closed = 1;
nodes = (
"651 392 LINE",
"651 556 LINE",
"440 556 LINE",
"316 372 LINE",
"292 372 LINE",
"292 192 LINE",
"316 192 LINE",
"419 0 LINE",
"664 0 LINE",
"664 164 LINE",
"621 164 LINE",
"525 297 LINE",
"610 392 LINE"
);
}
);
width = 674;
}
);
unicode = 0138;
},
{
color = 3;
glyphname = Lslash;
lastChange = "2016-08-02 19:06:18 +0000";
layers = (
{
components = (
{
name = L;
}
);
layerId = UUID0;
paths = (
{
closed = 1;
nodes = (
"10 222 LINE",
"591 432 LINE",
"591 553 LINE",
"571 553 LINE",
"-10 343 LINE",
"-10 222 LINE"
);
}
);
width = 671;
}
);
unicode = 0141;
},
{
color = 3;
glyphname = lslash;
lastChange = "2016-08-02 19:06:18 +0000";
layers = (
{
components = (
{
name = l;
transform = "{1, 0, 0, 1, 18, 0}";
}
);
layerId = UUID0;
paths = (
{
closed = 1;
nodes = (
"25 242 LINE",
"385 472 LINE",
"385 593 LINE",
"365 593 LINE",
"5 363 LINE",
"5 242 LINE"
);
}
);
width = 372;
}
);
unicode = 0142;
},
{
color = 3;
glyphname = Ldot;
lastChange = "2016-08-02 19:16:55 +0000";
layers = (
{
components = (
{
name = L;
},
{
name = periodcentered.loclCAT.case;
transform = "{1, 0, 0, 1, 446, -30}";
}
);
layerId = UUID0;
width = 653;
},
{
associatedMasterId = UUID0;
layerId = "238AB219-F5EE-438B-9CEC-6B8C157E42D1";
name = "Regular Aug 3 16, 00:40";
paths = (
{
closed = 1;
nodes = (
"5 614 LINE",
"65 614 LINE",
"65 164 LINE",
"5 164 LINE",
"5 0 LINE",
"634 0 LINE",
"634 256 LINE",
"435 256 LINE",
"435 164 LINE",
"345 164 LINE",
"345 614 LINE",
"437 614 LINE",
"437 778 LINE",
"5 778 LINE"
);
}
);
width = 644;
}
);
unicode = 013F;
},
{
color = 3;
glyphname = Eng;
lastChange = "2016-08-02 08:10:56 +0000";
layers = (
{
layerId = UUID0;
paths = (
{
closed = 1;
nodes = (
"766 525 LINE SMOOTH",
"766 685 OFFCURVE",
"716 792 OFFCURVE",
"555 792 CURVE SMOOTH",
"447 792 OFFCURVE",
"377 726 OFFCURVE",
"323 633 CURVE",
"350 620 LINE",
"350 778 LINE",
"20 778 LINE",
"20 614 LINE",
"70 614 LINE",
"70 164 LINE",
"20 164 LINE",
"20 0 LINE",
"350 0 LINE",
"350 475 LINE SMOOTH",
"350 527 OFFCURVE",
"374 549 OFFCURVE",
"419 549 CURVE SMOOTH",
"463 549 OFFCURVE",
"486 527 OFFCURVE",
"486 475 CURVE SMOOTH",
"486 47 LINE SMOOTH",
"486 -41 OFFCURVE",
"440 -80 OFFCURVE",
"351 -80 CURVE SMOOTH",
"310 -80 OFFCURVE",
"261 -71 OFFCURVE",
"223 -60 CURVE",
"223 -208 LINE",
"283 -229 OFFCURVE",
"352 -242 OFFCURVE",
"430 -242 CURVE SMOOTH",
"645 -242 OFFCURVE",
"766 -129 OFFCURVE",
"766 92 CURVE SMOOTH"
);
}
);
width = 796;
}
);
leftMetricsKey = "=H";
unicode = 014A;
},
{
color = 3;
glyphname = eng;
lastChange = "2016-08-02 08:10:56 +0000";
layers = (
{
layerId = UUID0;
paths = (
{
closed = 1;
nodes = (
"638 375 LINE SMOOTH",
"638 492 OFFCURVE",
"586 570 OFFCURVE",
"472 570 CURVE SMOOTH",
"379 570 OFFCURVE",
"319 521 OFFCURVE",
"273 452 CURVE",
"292 443 LINE",
"292 556 LINE",
"18 556 LINE",
"18 392 LINE",
"62 392 LINE",
"62 164 LINE",
"18 164 LINE",
"18 0 LINE",
"292 0 LINE",
"292 328 LINE SMOOTH",
"292 373 OFFCURVE",
"313 392 OFFCURVE",
"352 392 CURVE SMOOTH",
"389 392 OFFCURVE",
"408 373 OFFCURVE",
"408 328 CURVE SMOOTH",
"408 0 LINE SMOOTH",
"408 -63 OFFCURVE",
"373 -91 OFFCURVE",
"307 -91 CURVE SMOOTH",
"264 -91 OFFCURVE",
"212 -84 OFFCURVE",
"173 -74 CURVE",
"173 -211 LINE",
"233 -229 OFFCURVE",
"300 -242 OFFCURVE",
"382 -242 CURVE SMOOTH",
"548 -242 OFFCURVE",
"638 -159 OFFCURVE",
"638 32 CURVE SMOOTH"
);
}
);
width = 656;
}
);
leftMetricsKey = "=n";
unicode = 014B;
},
{
color = 3;
glyphname = Oslash;
lastChange = "2016-08-02 13:55:33 +0000";
layers = (
{
anchors = (
{
name = bottom;
position = "{396, 0}";
},
{
name = ogonek;
position = "{444, 30}";
},
{
name = top;
position = "{395, 778}";
}
);
layerId = UUID0;
paths = (
{
closed = 1;
nodes = (
"24 30 LINE",
"24 0 LINE",
"134 0 LINE",
"768 749 LINE",
"768 779 LINE",
"658 779 LINE"
);
},
{
closed = 1;
nodes = (
"351 164 OFFCURVE",
"328 185 OFFCURVE",
"328 238 CURVE SMOOTH",
"328 540 LINE SMOOTH",
"328 592 OFFCURVE",
"351 614 OFFCURVE",
"396 614 CURVE SMOOTH",
"441 614 OFFCURVE",
"464 592 OFFCURVE",
"464 540 CURVE SMOOTH",
"464 238 LINE SMOOTH",
"464 186 OFFCURVE",
"441 164 OFFCURVE",
"396 164 CURVE SMOOTH"
);
},
{
closed = 1;
nodes = (
"778 681 OFFCURVE",
"629 792 OFFCURVE",
"396 792 CURVE SMOOTH",
"163 792 OFFCURVE",
"14 681 OFFCURVE",
"14 389 CURVE SMOOTH",
"14 97 OFFCURVE",
"163 -14 OFFCURVE",
"396 -14 CURVE SMOOTH",
"629 -14 OFFCURVE",
"778 97 OFFCURVE",
"778 389 CURVE SMOOTH"
);
}
);
width = 792;
}
);
leftMetricsKey = "=O";
rightMetricsKey = "=O";
unicode = 00D8;
},
{
color = 3;
glyphname = oslash;
lastChange = "2016-08-02 22:40:29 +0000";
layers = (
{
anchors = (
{
name = bottom;
position = "{316, 0}";
},
{
name = top;
position = "{316, 556}";
}
);
layerId = UUID0;
paths = (
{
closed = 1;
nodes = (
"460 455 LINE",
"435 434 LINE",
"150 162 LINE",
"126 152 LINE",
"24 27 LINE",
"24 7 LINE",
"95 7 LINE",
"173 108 LINE",
"197 117 LINE",
"480 389 LINE",
"507 412 LINE",
"608 536 LINE",
"608 556 LINE",
"538 556 LINE"
);
},
{
closed = 1;
nodes = (
"618 468 OFFCURVE",
"506 570 OFFCURVE",
"316 570 CURVE SMOOTH",
"131 570 OFFCURVE",
"14 473 OFFCURVE",
"14 278 CURVE SMOOTH",
"14 83 OFFCURVE",
"131 -14 OFFCURVE",
"316 -14 CURVE SMOOTH",
"501 -14 OFFCURVE",
"618 83 OFFCURVE",
"618 278 CURVE SMOOTH"
);
},
{
closed = 1;
nodes = (
"277 164 OFFCURVE",
"258 184 OFFCURVE",
"258 228 CURVE SMOOTH",
"258 328 LINE SMOOTH",
"258 373 OFFCURVE",
"278 392 OFFCURVE",
"316 392 CURVE SMOOTH",
"354 392 OFFCURVE",
"374 373 OFFCURVE",
"374 328 CURVE SMOOTH",
"374 228 LINE SMOOTH",
"374 183 OFFCURVE",
"357 164 OFFCURVE",
"316 164 CURVE SMOOTH"
);
}
);
width = 632;
},
{
associatedMasterId = UUID0;
components = (
{
name = o;
}
);
layerId = "486A73E2-8520-4347-9DAF-ECB219A23116";
name = "Regular Aug 2 16, 19:20";
paths = (
{
closed = 1;
nodes = (
"218 -95 LINE",
"218 -121 LINE",
"275 -121 LINE",
"403 648 LINE",
"403 674 LINE",
"346 674 LINE"
);
}
);
width = 620;
}
);
leftMetricsKey = "=o";
rightMetricsKey = "=o";
unicode = 00F8;
},
{
color = 3;
glyphname = OE;
lastChange = "2016-08-02 08:14:37 +0000";
layers = (
{
layerId = UUID0;
paths = (
{
closed = 1;
nodes = (
"473 -14 OFFCURVE",
"542 -2 OFFCURVE",
"598 25 CURVE",
"464 0 LINE",
"1089 0 LINE",
"1089 322 LINE",
"865 322 LINE",
"865 164 LINE",
"744 164 LINE",
"744 342 LINE",
"832 342 LINE",
"832 456 LINE",
"744 456 LINE",
"744 614 LINE",
"865 614 LINE",
"865 476 LINE",
"1089 476 LINE",
"1089 778 LINE",
"464 778 LINE",
"597 753 LINE",
"541 780 OFFCURVE",
"473 792 OFFCURVE",
"396 792 CURVE SMOOTH",
"163 792 OFFCURVE",
"14 681 OFFCURVE",
"14 389 CURVE SMOOTH",
"14 97 OFFCURVE",
"163 -14 OFFCURVE",
"396 -14 CURVE SMOOTH"
);
},
{
closed = 1;
nodes = (
"354 164 OFFCURVE",
"328 187 OFFCURVE",
"328 238 CURVE SMOOTH",
"328 540 LINE SMOOTH",
"328 592 OFFCURVE",
"355 614 OFFCURVE",
"409 614 CURVE SMOOTH",
"428 614 OFFCURVE",
"445 611 OFFCURVE",
"464 604 CURVE",
"464 174 LINE",
"445 167 OFFCURVE",
"428 164 OFFCURVE",
"409 164 CURVE SMOOTH"
);
}
);
width = 1107;
},
{
associatedMasterId = UUID0;
layerId = "B8ED369A-87BF-4239-ABDF-5D69CD6D86B8";
name = "Regular Aug 2 16, 13:41";
paths = (
{
closed = 1;
nodes = (
"402 164 LINE",
"357 164 OFFCURVE",
"334 186 OFFCURVE",
"334 238 CURVE SMOOTH",
"334 540 LINE SMOOTH",
"334 592 OFFCURVE",
"357 614 OFFCURVE",
"402 614 CURVE SMOOTH",
"447 614 OFFCURVE",
"470 592 OFFCURVE",
"470 540 CURVE SMOOTH",
"470 238 LINE SMOOTH",
"470 186 OFFCURVE",
"447 164 OFFCURVE",
"402 164 CURVE SMOOTH"
);
},
{
closed = 1;
nodes = (
"646 383 LINE SMOOTH",
"646 579 OFFCURVE",
"717 699 OFFCURVE",
"603 753 CURVE SMOOTH",
"547 780 OFFCURVE",
"479 792 OFFCURVE",
"402 792 CURVE SMOOTH",
"169 792 OFFCURVE",
"20 681 OFFCURVE",
"20 389 CURVE SMOOTH",
"20 97 OFFCURVE",
"169 -14 OFFCURVE",
"402 -14 CURVE SMOOTH",
"479 -14 OFFCURVE",
"548 -2 OFFCURVE",
"604 25 CURVE SMOOTH",
"718 79 OFFCURVE",
"646 188 OFFCURVE",
"646 383 CURVE SMOOTH"
);
},
{
closed = 1;
nodes = (
"871 476 LINE",
"1095 476 LINE",
"1095 778 LINE",
"470 778 LINE",
"470 0 LINE",
"1095 0 LINE",
"1095 322 LINE",
"871 322 LINE",
"871 164 LINE",
"750 164 LINE",
"750 342 LINE",
"838 342 LINE",
"838 456 LINE",
"750 456 LINE",
"750 614 LINE",
"871 614 LINE"
);
}
);
width = 1115;
visible = 1;
}
);
leftMetricsKey = "=O";
rightMetricsKey = "=E";
unicode = 0152;
},
{
color = 3;
glyphname = oe;
lastChange = "2016-08-02 22:40:31 +0000";
layers = (
{
layerId = UUID0;
paths = (
{
closed = 1;
nodes = (
"400 -14 OFFCURVE",
"468 11 OFFCURVE",
"518 62 CURVE",
"467 62 LINE",
"517 11 OFFCURVE",
"586 -14 OFFCURVE",
"670 -14 CURVE SMOOTH",
"786 -14 OFFCURVE",
"880 15 OFFCURVE",
"919 36 CURVE",
"919 196 LINE",
"871 180 OFFCURVE",
"795 164 OFFCURVE",
"707 164 CURVE SMOOTH",
"637 164 OFFCURVE",
"612 188 OFFCURVE",
"612 236 CURVE SMOOTH",
"612 242 LINE",
"936 242 LINE",
"936 314 LINE SMOOTH",
"936 440 OFFCURVE",
"875 570 OFFCURVE",
"670 570 CURVE SMOOTH",
"576 570 OFFCURVE",
"501 540 OFFCURVE",
"451 478 CURVE",
"538 475 LINE",
"488 538 OFFCURVE",
"413 570 OFFCURVE",
"316 570 CURVE SMOOTH",
"131 570 OFFCURVE",
"14 473 OFFCURVE",
"14 278 CURVE SMOOTH",
"14 83 OFFCURVE",
"131 -14 OFFCURVE",
"316 -14 CURVE SMOOTH"
);
},
{
closed = 1;
nodes = (
"277 164 OFFCURVE",
"258 184 OFFCURVE",
"258 228 CURVE SMOOTH",
"258 328 LINE SMOOTH",
"258 373 OFFCURVE",
"278 392 OFFCURVE",
"316 392 CURVE SMOOTH",
"354 392 OFFCURVE",
"374 373 OFFCURVE",
"374 328 CURVE SMOOTH",
"374 228 LINE SMOOTH",
"374 183 OFFCURVE",
"354 164 OFFCURVE",
"316 164 CURVE SMOOTH"
);
},
{
closed = 1;
nodes = (
"612 364 LINE SMOOTH",
"612 409 OFFCURVE",
"632 428 OFFCURVE",
"670 428 CURVE SMOOTH",
"707 428 OFFCURVE",
"728 410 OFFCURVE",
"728 364 CURVE SMOOTH",
"728 352 LINE",
"612 352 LINE"
);
}
);
width = 948;
},
{
anchors = (
{
name = top;
position = "{312, 614}";
}
);
associatedMasterId = UUID0;
layerId = "E4105C58-91EB-49D0-9373-99F384BAF57C";
name = "Regular Aug 2 16, 13:37";
paths = (
{
closed = 1;
nodes = (
"400 -14 OFFCURVE",
"472 8 OFFCURVE",
"524 52 CURVE",
"453 52 LINE",
"505 8 OFFCURVE",
"578 -14 OFFCURVE",
"666 -14 CURVE SMOOTH",
"825 -14 OFFCURVE",
"915 36 OFFCURVE",
"915 36 CURVE",
"915 196 LINE",
"867 180 OFFCURVE",
"791 164 OFFCURVE",
"703 164 CURVE SMOOTH",
"633 164 OFFCURVE",
"608 188 OFFCURVE",
"608 236 CURVE SMOOTH",
"608 242 LINE",
"932 242 LINE",
"932 314 LINE SMOOTH",
"932 440 OFFCURVE",
"871 570 OFFCURVE",
"666 570 CURVE SMOOTH",
"568 570 OFFCURVE",
"489 543 OFFCURVE",
"437 488 CURVE",
"544 485 LINE",
"492 541 OFFCURVE",
"413 570 OFFCURVE",
"312 570 CURVE SMOOTH",
"127 570 OFFCURVE",
"10 473 OFFCURVE",
"10 278 CURVE SMOOTH",
"10 83 OFFCURVE",
"127 -14 OFFCURVE",
"312 -14 CURVE SMOOTH"
);
},
{
closed = 1;
nodes = (
"273 164 OFFCURVE",
"254 184 OFFCURVE",
"254 228 CURVE SMOOTH",
"254 328 LINE SMOOTH",
"254 373 OFFCURVE",
"274 392 OFFCURVE",
"312 392 CURVE SMOOTH",
"350 392 OFFCURVE",
"370 373 OFFCURVE",
"370 328 CURVE SMOOTH",
"370 228 LINE SMOOTH",
"370 183 OFFCURVE",
"350 164 OFFCURVE",
"312 164 CURVE SMOOTH"
);
},
{
closed = 1;
nodes = (
"608 364 LINE SMOOTH",
"608 409 OFFCURVE",
"628 428 OFFCURVE",
"666 428 CURVE SMOOTH",
"703 428 OFFCURVE",
"724 410 OFFCURVE",
"724 364 CURVE SMOOTH",
"724 352 LINE",
"608 352 LINE"
);
}
);
width = 1214;
visible = 1;
}
);
leftMetricsKey = "=o";
rightMetricsKey = "=e";
unicode = 0153;
},
{
color = 3;
glyphname = Germandbls;
lastChange = "2016-08-02 08:40:28 +0000";
layers = (
{
layerId = UUID0;
paths = (
{
closed = 1;
nodes = (
"400 445 LINE",
"512 601 LINE",
"500 608 OFFCURVE",
"481 614 OFFCURVE",
"454 614 CURVE SMOOTH",
"375 614 OFFCURVE",
"350 575 OFFCURVE",
"350 505 CURVE SMOOTH",
"350 0 LINE",
"18 0 LINE",
"18 164 LINE",
"68 164 LINE",
"70 496 LINE SMOOTH",
"71 704 OFFCURVE",
"198 792 OFFCURVE",
"431 792 CURVE SMOOTH",
"544 792 OFFCURVE",
"644 770 OFFCURVE",
"738 724 CURVE",
"738 591 LINE",
"606 408 LINE",
"527 458 LINE",
"722 458 OFFCURVE",
"825 382 OFFCURVE",
"825 218 CURVE SMOOTH",
"825 67 OFFCURVE",
"734 -14 OFFCURVE",
"581 -14 CURVE SMOOTH",
"510 -14 OFFCURVE",
"436 6 OFFCURVE",
"400 20 CURVE",
"400 162 LINE",
"413 159 OFFCURVE",
"424 158 OFFCURVE",
"439 158 CURVE SMOOTH",
"493 158 OFFCURVE",
"531 185 OFFCURVE",
"531 247 CURVE SMOOTH",
"531 315 OFFCURVE",
"481 345 OFFCURVE",
"400 345 CURVE"
);
}
);
width = 837;
},
{
associatedMasterId = UUID0;
layerId = "E390C6D8-0089-4C40-9969-B633F5DFFE47";
name = "Regular Aug 2 16, 13:53";
paths = (
{
closed = 1;
nodes = (
"342 156 LINE",
"367 147 OFFCURVE",
"404 138 OFFCURVE",
"432 138 CURVE SMOOTH",
"460 138 OFFCURVE",
"473 148 OFFCURVE",
"473 166 CURVE SMOOTH",
"473 225 OFFCURVE",
"323 226 OFFCURVE",
"323 355 CURVE SMOOTH",
"323 452 OFFCURVE",
"399 490 OFFCURVE",
"399 567 CURVE SMOOTH",
"399 597 OFFCURVE",
"385 614 OFFCURVE",
"346 614 CURVE SMOOTH",
"305 614 OFFCURVE",
"292 593 OFFCURVE",
"292 555 CURVE SMOOTH",
"292 0 LINE",
"18 0 LINE",
"18 164 LINE",
"62 164 LINE",
"62 392 LINE",
"18 392 LINE",
"18 556 LINE",
"64 556 LINE",
"64 731 OFFCURVE",
"152 792 OFFCURVE",
"353 792 CURVE SMOOTH",
"509 792 OFFCURVE",
"618 741 OFFCURVE",
"618 609 CURVE SMOOTH",
"618 494 OFFCURVE",
"533 462 OFFCURVE",
"533 405 CURVE SMOOTH",
"533 331 OFFCURVE",
"695 345 OFFCURVE",
"695 168 CURVE SMOOTH",
"695 63 OFFCURVE",
"633 -14 OFFCURVE",
"501 -14 CURVE SMOOTH",
"439 -14 OFFCURVE",
"374 4 OFFCURVE",
"342 17 CURVE"
);
}
);
width = 600;
}
);
unicode = 1E9E;
},
{
color = 3;
glyphname = germandbls;
lastChange = "2016-08-02 08:40:28 +0000";
layers = (
{
layerId = UUID0;
paths = (
{
closed = 1;
nodes = (
"342 156 LINE",
"367 147 OFFCURVE",
"404 138 OFFCURVE",
"432 138 CURVE SMOOTH",
"460 138 OFFCURVE",
"473 148 OFFCURVE",
"473 166 CURVE SMOOTH",
"473 225 OFFCURVE",
"323 226 OFFCURVE",
"323 355 CURVE SMOOTH",
"323 452 OFFCURVE",
"399 490 OFFCURVE",
"399 567 CURVE SMOOTH",
"399 597 OFFCURVE",
"385 614 OFFCURVE",
"346 614 CURVE SMOOTH",
"305 614 OFFCURVE",
"292 593 OFFCURVE",
"292 555 CURVE SMOOTH",
"292 0 LINE",
"18 0 LINE",
"18 164 LINE",
"62 164 LINE",
"62 392 LINE",
"18 392 LINE",
"18 556 LINE",
"64 556 LINE",
"64 731 OFFCURVE",
"152 792 OFFCURVE",
"353 792 CURVE SMOOTH",
"509 792 OFFCURVE",
"618 741 OFFCURVE",
"618 609 CURVE SMOOTH",
"618 494 OFFCURVE",
"533 462 OFFCURVE",
"533 405 CURVE SMOOTH",
"533 331 OFFCURVE",
"695 345 OFFCURVE",
"695 168 CURVE SMOOTH",
"695 63 OFFCURVE",
"633 -14 OFFCURVE",
"501 -14 CURVE SMOOTH",
"439 -14 OFFCURVE",
"374 4 OFFCURVE",
"342 17 CURVE"
);
}
);
width = 709;
},
{
associatedMasterId = UUID0;
layerId = "E1E4192F-8AC0-43BE-B56C-DF8F6C7D4217";
name = "Regular Aug 2 16, 13:45";
paths = (
{
closed = 1;
nodes = (
"342 156 LINE",
"342 156 OFFCURVE",
"400 138 OFFCURVE",
"431 138 CURVE SMOOTH",
"466 138 OFFCURVE",
"473 148 OFFCURVE",
"473 164 CURVE SMOOTH",
"473 182 OFFCURVE",
"456 195 OFFCURVE",
"421 214 CURVE SMOOTH",
"353 252 OFFCURVE",
"323 291 OFFCURVE",
"323 355 CURVE SMOOTH",
"323 440 OFFCURVE",
"399 508 OFFCURVE",
"399 567 CURVE SMOOTH",
"399 600 OFFCURVE",
"385 614 OFFCURVE",
"345 614 CURVE SMOOTH",
"305 614 OFFCURVE",
"292 600 OFFCURVE",
"292 555 CURVE SMOOTH",
"292 0 LINE",
"18 0 LINE",
"18 164 LINE",
"62 164 LINE",
"62 392 LINE",
"18 392 LINE",
"18 556 LINE",
"64 556 LINE",
"64 731 OFFCURVE",
"152 792 OFFCURVE",
"353 792 CURVE SMOOTH",
"509 792 OFFCURVE",
"618 741 OFFCURVE",
"618 609 CURVE SMOOTH",
"618 535 OFFCURVE",
"586 496 OFFCURVE",
"560 459 CURVE SMOOTH",
"548 442 OFFCURVE",
"533 425 OFFCURVE",
"533 405 CURVE SMOOTH",
"533 385 OFFCURVE",
"541 375 OFFCURVE",
"597 342 CURVE SMOOTH",
"650 311 OFFCURVE",
"695 267 OFFCURVE",
"695 168 CURVE SMOOTH",
"695 63 OFFCURVE",
"630 -14 OFFCURVE",
"491 -14 CURVE SMOOTH",
"411 -14 OFFCURVE",
"342 17 OFFCURVE",
"342 17 CURVE"
);
}
);
width = 707;
visible = 1;
}
);
unicode = 00DF;
},
{
color = 3;
glyphname = Tbar;
lastChange = "2016-08-02 08:41:57 +0000";
layers = (
{
components = (
{
name = T;
}
);
layerId = UUID0;
paths = (
{
closed = 1;
nodes = (
"680 303 LINE",
"680 434 LINE",
"100 434 LINE",
"100 303 LINE"
);
}
);
width = 780;
}
);
leftMetricsKey = "=T";
rightMetricsKey = "=T";
unicode = 0166;
},
{
color = 3;
glyphname = tbar;
lastChange = "2016-08-02 08:43:28 +0000";
layers = (
{
components = (
{
name = t;
}
);
layerId = UUID0;
paths = (
{
closed = 1;
nodes = (
"431 231 LINE",
"431 332 LINE",
"8 332 LINE",
"8 231 LINE"
);
}
);
width = 451;
}
);
leftMetricsKey = "=t";
rightMetricsKey = "=t";
unicode = 0167;
},
{
glyphname = Thorn;
lastChange = "2016-07-26 11:06:05 +0000";
layers = (
{
background = {
paths = (
{
closed = 1;
nodes = (
"29 611 LINE",
"87 611 LINE",
"87 176 LINE",
"29 176 LINE",
"29 0 LINE",
"483 0 LINE",
"483 176 LINE",
"375 176 LINE",
"375 200 LINE",
"545 200 LINE SMOOTH",
"684 200 OFFCURVE",
"770 281 OFFCURVE",
"770 390 CURVE SMOOTH",
"770 493 OFFCURVE",
"684 589 OFFCURVE",
"545 589 CURVE SMOOTH",
"375 589 LINE",
"375 611 LINE",
"433 611 LINE",
"433 778 LINE",
"29 778 LINE"
);
},
{
closed = 1;
nodes = (
"375 325 LINE",
"375 436 LINE",
"424 436 LINE SMOOTH",
"467 436 OFFCURVE",
"494 415 OFFCURVE",
"494 379 CURVE SMOOTH",
"494 340 OFFCURVE",
"465 325 OFFCURVE",
"424 325 CURVE SMOOTH"
);
}
);
};
layerId = UUID0;
paths = (
{
closed = 1;
nodes = (
"368 331 LINE",
"368 435 LINE",
"392 435 LINE SMOOTH",
"420 435 OFFCURVE",
"440 422 OFFCURVE",
"440 391 CURVE SMOOTH",
"440 375 LINE SMOOTH",
"440 344 OFFCURVE",
"419 331 OFFCURVE",
"392 331 CURVE SMOOTH"
);
},
{
closed = 1;
nodes = (
"464 164 LINE",
"368 164 LINE",
"368 229 LINE",
"486 229 LINE SMOOTH",
"621 229 OFFCURVE",
"722 271 OFFCURVE",
"722 404 CURVE SMOOTH",
"722 531 OFFCURVE",
"621 569 OFFCURVE",
"486 569 CURVE SMOOTH",
"88 569 LINE",
"88 164 LINE",
"28 164 LINE",
"28 0 LINE",
"464 0 LINE"
);
},
{
closed = 1;
nodes = (
"28 614 LINE",
"88 614 LINE",
"88 164 LINE",
"28 164 LINE",
"28 0 LINE",
"428 0 LINE",
"428 164 LINE",
"368 164 LINE",
"368 614 LINE",
"428 614 LINE",
"428 778 LINE",
"28 778 LINE"
);
}
);
width = 762;
}
);
unicode = 00DE;
},
{
glyphname = thorn;
lastChange = "2016-07-26 11:06:05 +0000";
layers = (
{
background = {
paths = (
{
closed = 1;
nodes = (
"240 41 LINE",
"269 13 OFFCURVE",
"305 -16 OFFCURVE",
"378 -16 CURVE SMOOTH",
"490 -16 OFFCURVE",
"569 83 OFFCURVE",
"569 248 CURVE SMOOTH",
"569 408 OFFCURVE",
"490 513 OFFCURVE",
"378 513 CURVE SMOOTH",
"305 513 OFFCURVE",
"274 492 OFFCURVE",
"240 468 CURVE"
);
},
{
closed = 1;
nodes = (
"327 397 OFFCURVE",
"335 353 OFFCURVE",
"335 252 CURVE SMOOTH",
"335 151 OFFCURVE",
"328 106 OFFCURVE",
"288 106 CURVE SMOOTH",
"248 106 OFFCURVE",
"240 143 OFFCURVE",
"240 253 CURVE SMOOTH",
"240 363 OFFCURVE",
"247 397 OFFCURVE",
"287 397 CURVE SMOOTH"
);
},
{
closed = 1;
nodes = (
"327 359 OFFCURVE",
"335 324 OFFCURVE",
"335 253 CURVE SMOOTH",
"335 182 OFFCURVE",
"327 148 OFFCURVE",
"287 148 CURVE SMOOTH",
"247 148 OFFCURVE",
"240 180 OFFCURVE",
"240 252 CURVE SMOOTH",
"240 324 OFFCURVE",
"247 359 OFFCURVE",
"287 359 CURVE SMOOTH"
);
},
{
closed = 1;
nodes = (
"255 68 LINE",
"275 31 OFFCURVE",
"323 -18 OFFCURVE",
"403 -18 CURVE SMOOTH",
"526 -18 OFFCURVE",
"610 92 OFFCURVE",
"610 276 CURVE SMOOTH",
"610 453 OFFCURVE",
"526 570 OFFCURVE",
"403 570 CURVE SMOOTH",
"324 570 OFFCURVE",
"279 514 OFFCURVE",
"255 488 CURVE",
"266 556 LINE",
"266 778 LINE",
"-8 778 LINE",
"-8 611 LINE",
"36 611 LINE",
"36 556 LINE",
"36 -56 LINE",
"-14 -56 LINE",
"-14 -222 LINE",
"340 -222 LINE",
"340 -56 LINE",
"266 -56 LINE",
"266 0 LINE"
);
},
{
closed = 1;
nodes = (
"353 399 OFFCURVE",
"361 360 OFFCURVE",
"361 281 CURVE SMOOTH",
"361 202 OFFCURVE",
"352 164 OFFCURVE",
"307 164 CURVE SMOOTH",
"266 164 OFFCURVE",
"256 194 OFFCURVE",
"255 262 CURVE SMOOTH",
"255 297 LINE SMOOTH",
"256 366 OFFCURVE",
"267 399 OFFCURVE",
"309 399 CURVE SMOOTH"
);
}
);
};
layerId = UUID0;
paths = (
{
closed = 1;
nodes = (
"349 -58 LINE",
"280 -58 LINE",
"280 68 LINE",
"305 36 OFFCURVE",
"359 -14 OFFCURVE",
"435 -14 CURVE SMOOTH",
"573 -14 OFFCURVE",
"640 94 OFFCURVE",
"640 278 CURVE SMOOTH",
"640 462 OFFCURVE",
"573 570 OFFCURVE",
"435 570 CURVE SMOOTH",
"359 570 OFFCURVE",
"305 520 OFFCURVE",
"280 488 CURVE",
"280 556 LINE",
"50 556 LINE",
"50 -58 LINE",
"6 -58 LINE",
"6 -222 LINE",
"349 -222 LINE"
);
},
{
closed = 1;
nodes = (
"396 228 LINE SMOOTH",
"396 183 OFFCURVE",
"376 164 OFFCURVE",
"338 164 CURVE SMOOTH",
"300 164 OFFCURVE",
"280 183 OFFCURVE",
"280 228 CURVE SMOOTH",
"280 328 LINE SMOOTH",
"280 373 OFFCURVE",
"300 392 OFFCURVE",
"338 392 CURVE SMOOTH",
"376 392 OFFCURVE",
"396 373 OFFCURVE",
"396 328 CURVE SMOOTH"
);
},
{
closed = 1;
nodes = (
"6 614 LINE",
"50 614 LINE",
"50 164 LINE",
"280 164 LINE",
"280 778 LINE",
"6 778 LINE"
);
}
);
width = 652;
}
);
unicode = 00FE;
},
{
color = 3;
glyphname = Schwa;
lastChange = "2016-08-02 08:53:57 +0000";
layers = (
{
layerId = UUID0;
paths = (
{
closed = 1;
nodes = (
"604 -14 OFFCURVE",
"725 131 OFFCURVE",
"725 387 CURVE SMOOTH",
"725 657 OFFCURVE",
"599 792 OFFCURVE",
"344 792 CURVE SMOOTH",
"235 792 OFFCURVE",
"115 763 OFFCURVE",
"36 729 CURVE",
"36 508 LINE",
"112 530 OFFCURVE",
"196 546 OFFCURVE",
"279 546 CURVE SMOOTH",
"375 546 OFFCURVE",
"411 513 OFFCURVE",
"411 447 CURVE SMOOTH",
"411 438 LINE",
"12 438 LINE",
"12 347 LINE SMOOTH",
"12 121 OFFCURVE",
"117 -14 OFFCURVE",
"364 -14 CURVE SMOOTH"
);
},
{
closed = 1;
nodes = (
"301 182 OFFCURVE",
"277 202 OFFCURVE",
"277 256 CURVE SMOOTH",
"277 287 LINE",
"411 287 LINE",
"411 256 LINE SMOOTH",
"411 204 OFFCURVE",
"388 182 OFFCURVE",
"344 182 CURVE SMOOTH"
);
}
);
width = 739;
}
);
rightMetricsKey = "=O";
unicode = 018F;
},
{
color = 3;
glyphname = schwa;
lastChange = "2016-08-02 22:40:34 +0000";
layers = (
{
anchors = (
{
name = bottom;
position = "{283, -58}";
}
);
layerId = UUID0;
paths = (
{
closed = 1;
nodes = (
"465 -14 OFFCURVE",
"580 83 OFFCURVE",
"580 277 CURVE SMOOTH",
"580 473 OFFCURVE",
"463 570 OFFCURVE",
"278 570 CURVE SMOOTH",
"190 570 OFFCURVE",
"93 547 OFFCURVE",
"29 520 CURVE",
"29 360 LINE",
"92 379 OFFCURVE",
"162 392 OFFCURVE",
"231 392 CURVE SMOOTH",
"308 392 OFFCURVE",
"336 368 OFFCURVE",
"336 320 CURVE SMOOTH",
"336 314 LINE",
"12 314 LINE",
"12 242 LINE SMOOTH",
"12 116 OFFCURVE",
"74 -14 OFFCURVE",
"284 -14 CURVE SMOOTH"
);
},
{
closed = 1;
nodes = (
"241 128 OFFCURVE",
"220 146 OFFCURVE",
"220 192 CURVE SMOOTH",
"220 204 LINE",
"336 204 LINE",
"336 192 LINE SMOOTH",
"336 147 OFFCURVE",
"316 128 OFFCURVE",
"278 128 CURVE SMOOTH"
);
}
);
width = 594;
},
{
anchors = (
{
name = bottom;
position = "{283, -58}";
}
);
associatedMasterId = UUID0;
layerId = "9CDCE1BE-500B-4E61-A821-E31DCCACD526";
name = "Regular Aug 2 16, 14:14";
paths = (
{
closed = 1;
nodes = (
"463 -14 OFFCURVE",
"580 83 OFFCURVE",
"580 278 CURVE SMOOTH",
"580 473 OFFCURVE",
"463 570 OFFCURVE",
"278 570 CURVE SMOOTH",
"184 570 OFFCURVE",
"81 549 OFFCURVE",
"29 520 CURVE",
"29 360 LINE",
"89 380 OFFCURVE",
"168 392 OFFCURVE",
"241 392 CURVE SMOOTH",
"311 392 OFFCURVE",
"336 368 OFFCURVE",
"336 320 CURVE SMOOTH",
"336 314 LINE",
"12 314 LINE",
"12 242 LINE SMOOTH",
"12 116 OFFCURVE",
"73 -14 OFFCURVE",
"278 -14 CURVE SMOOTH"
);
},
{
closed = 1;
nodes = (
"241 128 OFFCURVE",
"220 146 OFFCURVE",
"220 192 CURVE SMOOTH",
"220 204 LINE",
"336 204 LINE",
"336 192 LINE SMOOTH",
"336 147 OFFCURVE",
"316 128 OFFCURVE",
"278 128 CURVE SMOOTH"
);
}
);
width = 590;
visible = 1;
}
);
rightMetricsKey = "=o";
unicode = 0259;
},
{
color = 3;
glyphname = ampersand;
lastChange = "2016-08-02 08:23:14 +0000";
layers = (
{
layerId = UUID0;
paths = (
{
closed = 1;
nodes = (
"449 526 LINE",
"659 526 LINE",
"659 718 LINE",
"616 750 OFFCURVE",
"508 792 OFFCURVE",
"371 792 CURVE SMOOTH",
"187 792 OFFCURVE",
"51 720 OFFCURVE",
"51 589 CURVE SMOOTH",
"51 509 OFFCURVE",
"95 458 OFFCURVE",
"163 409 CURVE",
"87 378 OFFCURVE",
"16 310 OFFCURVE",
"16 210 CURVE SMOOTH",
"16 72 OFFCURVE",
"133 -14 OFFCURVE",
"350 -14 CURVE SMOOTH",
"482 -14 OFFCURVE",
"566 19 OFFCURVE",
"619 56 CURVE",
"692 0 LINE",
"814 161 LINE",
"724 229 LINE",
"733 262 LINE",
"791 262 LINE",
"791 429 LINE",
"550 429 LINE",
"550 411 LINE SMOOTH",
"550 395 OFFCURVE",
"549 379 OFFCURVE",
"546 363 CURVE",
"383 486 LINE SMOOTH",
"348 513 OFFCURVE",
"318 536 OFFCURVE",
"318 565 CURVE SMOOTH",
"318 594 OFFCURVE",
"336 614 OFFCURVE",
"381 614 CURVE SMOOTH",
"426 614 OFFCURVE",
"449 593 OFFCURVE",
"449 544 CURVE SMOOTH"
);
},
{
closed = 1;
nodes = (
"320 164 OFFCURVE",
"288 180 OFFCURVE",
"288 221 CURVE SMOOTH",
"288 247 OFFCURVE",
"304 268 OFFCURVE",
"329 280 CURVE",
"456 182 LINE",
"437 171 OFFCURVE",
"408 164 OFFCURVE",
"376 164 CURVE SMOOTH"
);
}
);
width = 828;
},
{
associatedMasterId = UUID0;
layerId = "7CE70B63-49FC-4030-A88F-688103FB3C29";
name = study;
paths = (
{
closed = 1;
nodes = (
"1696 425 LINE",
"1615 425 OFFCURVE",
"1601 444 OFFCURVE",
"1601 486 CURVE SMOOTH",
"1601 518 OFFCURVE",
"1618 550 OFFCURVE",
"1675 550 CURVE SMOOTH",
"1727 550 OFFCURVE",
"1741 531 OFFCURVE",
"1741 510 CURVE",
"1893 510 LINE",
"1893 624 LINE",
"1893 624 OFFCURVE",
"1850 714 OFFCURVE",
"1662 714 CURVE SMOOTH",
"1472 714 OFFCURVE",
"1366 628 OFFCURVE",
"1366 507 CURVE SMOOTH",
"1366 430 OFFCURVE",
"1396 393 OFFCURVE",
"1448 360 CURVE",
"1397 337 OFFCURVE",
"1352 299 OFFCURVE",
"1352 201 CURVE SMOOTH",
"1352 70 OFFCURVE",
"1463 -16 OFFCURVE",
"1656 -16 CURVE SMOOTH",
"1861 -16 OFFCURVE",
"1948 61 OFFCURVE",
"1948 61 CURVE",
"1948 232 LINE",
"1761 232 LINE",
"1761 180 OFFCURVE",
"1760 148 OFFCURVE",
"1671 148 CURVE SMOOTH",
"1613 148 OFFCURVE",
"1595 173 OFFCURVE",
"1595 220 CURVE SMOOTH",
"1595 261 OFFCURVE",
"1613 289 OFFCURVE",
"1696 289 CURVE"
);
},
{
closed = 1;
nodes = (
"1986 425 LINE",
"1735 425 LINE",
"1735 289 LINE",
"1986 289 LINE"
);
},
{
closed = 1;
nodes = (
"1948 482 LINE",
"1788 482 LINE",
"1788 474 LINE SMOOTH",
"1788 454 OFFCURVE",
"1766 425 OFFCURVE",
"1735 425 CURVE SMOOTH",
"1761 425 LINE",
"1761 232 LINE",
"1948 232 LINE"
);
},
{
closed = 1;
nodes = (
"-1331 213 LINE",
"-1358 175 OFFCURVE",
"-1382 148 OFFCURVE",
"-1433 148 CURVE SMOOTH",
"-1487 148 OFFCURVE",
"-1510 169 OFFCURVE",
"-1510 199 CURVE SMOOTH",
"-1510 237 OFFCURVE",
"-1471 255 OFFCURVE",
"-1419 282 CURVE",
"-1287 355 OFFCURVE",
"-1195 409 OFFCURVE",
"-1195 517 CURVE SMOOTH",
"-1195 597 OFFCURVE",
"-1263 714 OFFCURVE",
"-1433 714 CURVE SMOOTH",
"-1615 714 OFFCURVE",
"-1700 597 OFFCURVE",
"-1700 513 CURVE SMOOTH",
"-1700 478 OFFCURVE",
"-1697 421 OFFCURVE",
"-1608 359 CURVE",
"-1664 330 OFFCURVE",
"-1720 276 OFFCURVE",
"-1720 194 CURVE SMOOTH",
"-1720 74 OFFCURVE",
"-1620 -18 OFFCURVE",
"-1437 -16 CURVE",
"-1262 -16 OFFCURVE",
"-1177 98 OFFCURVE",
"-1153 142 CURVE"
);
},
{
closed = 1;
nodes = (
"-1482 526 OFFCURVE",
"-1467 550 OFFCURVE",
"-1430 550 CURVE SMOOTH",
"-1394 550 OFFCURVE",
"-1379 526 OFFCURVE",
"-1379 500 CURVE SMOOTH",
"-1379 480 OFFCURVE",
"-1402 462 OFFCURVE",
"-1433 437 CURVE",
"-1463 461 OFFCURVE",
"-1482 479 OFFCURVE",
"-1482 500 CURVE SMOOTH"
);
},
{
closed = 1;
nodes = (
"-1597 350 LINE",
"-1597 350 OFFCURVE",
"-1480 243 OFFCURVE",
"-1385 164 CURVE",
"-1278 89 OFFCURVE",
"-1180 0 OFFCURVE",
"-1180 0 CURVE",
"-1071 0 LINE",
"-1071 172 LINE",
"-1134 172 LINE",
"-1134 172 OFFCURVE",
"-1160 206 OFFCURVE",
"-1260 285 CURVE SMOOTH",
"-1372 373 OFFCURVE",
"-1430 435 OFFCURVE",
"-1430 435 CURVE"
);
},
{
closed = 1;
nodes = (
"-1331 213 LINE",
"-1153 142 LINE",
"-1098 238 LINE",
"-1098 330 LINE",
"-1268 329 LINE",
"-1268 290 LINE"
);
},
{
closed = 1;
nodes = (
"2504 290 LINE",
"2548 339 LINE",
"2666 242 LINE",
"2623 191 LINE",
"2690 135 LINE",
"2576 0 LINE",
"2508 58 LINE",
"2470 24 OFFCURVE",
"2415 -16 OFFCURVE",
"2302 -16 CURVE",
"2123 -18 OFFCURVE",
"2022 70 OFFCURVE",
"2022 184 CURVE SMOOTH",
"2022 270 OFFCURVE",
"2076 319 OFFCURVE",
"2152 359 CURVE",
"2067 416 OFFCURVE",
"2051 468 OFFCURVE",
"2051 521 CURVE SMOOTH",
"2051 605 OFFCURVE",
"2136 714 OFFCURVE",
"2318 714 CURVE SMOOTH",
"2445 714 OFFCURVE",
"2499 650 OFFCURVE",
"2499 650 CURVE",
"2499 500 LINE",
"2370 500 LINE",
"2370 526 OFFCURVE",
"2355 550 OFFCURVE",
"2321 550 CURVE SMOOTH",
"2284 550 OFFCURVE",
"2269 526 OFFCURVE",
"2269 500 CURVE SMOOTH",
"2269 482 OFFCURVE",
"2286 469 OFFCURVE",
"2313 447 CURVE SMOOTH"
);
},
{
closed = 1;
nodes = (
"2333 148 OFFCURVE",
"2363 154 OFFCURVE",
"2377 165 CURVE",
"2277 248 LINE",
"2248 230 OFFCURVE",
"2234 214 OFFCURVE",
"2234 199 CURVE SMOOTH",
"2234 169 OFFCURVE",
"2257 148 OFFCURVE",
"2312 148 CURVE SMOOTH"
);
},
{
closed = 1;
nodes = (
"-1895 607 OFFCURVE",
"-1969 714 OFFCURVE",
"-2146 714 CURVE SMOOTH",
"-2328 714 OFFCURVE",
"-2413 605 OFFCURVE",
"-2413 521 CURVE SMOOTH",
"-2413 468 OFFCURVE",
"-2397 416 OFFCURVE",
"-2312 359 CURVE",
"-2388 319 OFFCURVE",
"-2442 270 OFFCURVE",
"-2442 184 CURVE SMOOTH",
"-2442 70 OFFCURVE",
"-2341 -18 OFFCURVE",
"-2162 -16 CURVE",
"-2049 -16 OFFCURVE",
"-1994 24 OFFCURVE",
"-1956 58 CURVE",
"-1888 0 LINE",
"-1774 135 LINE",
"-1841 191 LINE",
"-1798 242 LINE",
"-1916 339 LINE",
"-1960 290 LINE",
"-2036 353 LINE",
"-1961 400 OFFCURVE",
"-1895 447 OFFCURVE",
"-1895 527 CURVE SMOOTH"
);
},
{
closed = 1;
nodes = (
"-2195 526 OFFCURVE",
"-2180 550 OFFCURVE",
"-2143 550 CURVE SMOOTH",
"-2109 550 OFFCURVE",
"-2094 526 OFFCURVE",
"-2094 500 CURVE SMOOTH",
"-2094 483 OFFCURVE",
"-2121 469 OFFCURVE",
"-2152 448 CURVE",
"-2180 468 OFFCURVE",
"-2195 482 OFFCURVE",
"-2195 500 CURVE SMOOTH"
);
},
{
closed = 1;
nodes = (
"-2207 148 OFFCURVE",
"-2230 169 OFFCURVE",
"-2230 199 CURVE SMOOTH",
"-2230 214 OFFCURVE",
"-2216 230 OFFCURVE",
"-2187 248 CURVE",
"-2087 165 LINE",
"-2101 154 OFFCURVE",
"-2131 148 OFFCURVE",
"-2152 148 CURVE SMOOTH"
);
},
{
closed = 1;
nodes = (
"428 238 LINE SMOOTH",
"428 186 OFFCURVE",
"405 164 OFFCURVE",
"360 164 CURVE SMOOTH",
"315 164 OFFCURVE",
"292 186 OFFCURVE",
"292 238 CURVE SMOOTH",
"292 540 LINE SMOOTH",
"292 592 OFFCURVE",
"315 614 OFFCURVE",
"360 614 CURVE SMOOTH",
"405 614 OFFCURVE",
"428 592 OFFCURVE",
"428 540 CURVE SMOOTH",
"428 468 LINE",
"668 468 LINE",
"668 718 LINE",
"668 718 OFFCURVE",
"556 792 OFFCURVE",
"360 792 CURVE SMOOTH",
"127 792 OFFCURVE",
"-22 681 OFFCURVE",
"-22 389 CURVE SMOOTH",
"-22 97 OFFCURVE",
"127 -14 OFFCURVE",
"362 -14 CURVE SMOOTH",
"556 -14 OFFCURVE",
"668 60 OFFCURVE",
"668 60 CURVE",
"668 319 LINE",
"428 319 LINE"
);
}
);
width = 787;
},
{
associatedMasterId = UUID0;
layerId = "3DFBF4B1-ADDE-4EAC-A29B-727049F0BC4E";
name = "Regular Aug 2 16, 13:50";
paths = (
{
closed = 1;
nodes = (
"428 526 LINE",
"638 526 LINE",
"638 718 LINE",
"638 718 OFFCURVE",
"537 792 OFFCURVE",
"350 792 CURVE SMOOTH",
"166 792 OFFCURVE",
"30 720 OFFCURVE",
"30 589 CURVE SMOOTH",
"30 509 OFFCURVE",
"75 459 OFFCURVE",
"142 409 CURVE",
"66 371 OFFCURVE",
"-5 310 OFFCURVE",
"-5 210 CURVE SMOOTH",
"-5 72 OFFCURVE",
"119 -14 OFFCURVE",
"349 -14 CURVE SMOOTH",
"470 -14 OFFCURVE",
"549 19 OFFCURVE",
"598 56 CURVE",
"671 0 LINE",
"793 161 LINE",
"703 229 LINE",
"712 262 LINE",
"770 262 LINE",
"770 429 LINE",
"529 429 LINE",
"529 411 LINE",
"528 395 OFFCURVE",
"527 379 OFFCURVE",
"525 363 CURVE",
"362 486 LINE SMOOTH",
"332 509 OFFCURVE",
"297 531 OFFCURVE",
"297 561 CURVE SMOOTH",
"297 592 OFFCURVE",
"315 614 OFFCURVE",
"360 614 CURVE SMOOTH",
"405 614 OFFCURVE",
"428 592 OFFCURVE",
"428 540 CURVE SMOOTH"
);
},
{
closed = 1;
nodes = (
"360 164 LINE SMOOTH",
"288 164 OFFCURVE",
"267 182 OFFCURVE",
"267 216 CURVE SMOOTH",
"267 244 OFFCURVE",
"283 267 OFFCURVE",
"308 280 CURVE",
"435 182 LINE",
"417 171 OFFCURVE",
"390 164 OFFCURVE",
"360 164 CURVE SMOOTH"
);
}
);
width = 787;
visible = 1;
}
);
unicode = 0026;
},
{
glyphname = at;
lastChange = "2016-08-02 08:43:47 +0000";
layers = (
{
background = {
paths = (
{
closed = 1;
nodes = (
"-926 -4 OFFCURVE",
"-719 -211 OFFCURVE",
"-464 -211 CURVE SMOOTH",
"-209 -211 OFFCURVE",
"-2 -4 OFFCURVE",
"-2 251 CURVE SMOOTH",
"-2 506 OFFCURVE",
"-209 713 OFFCURVE",
"-464 713 CURVE SMOOTH",
"-719 713 OFFCURVE",
"-926 506 OFFCURVE",
"-926 251 CURVE SMOOTH"
);
},
{
closed = 1;
nodes = (
"-751 411 OFFCURVE",
"-624 539 OFFCURVE",
"-464 539 CURVE SMOOTH",
"-304 539 OFFCURVE",
"-176 411 OFFCURVE",
"-176 251 CURVE SMOOTH",
"-176 91 OFFCURVE",
"-304 -36 OFFCURVE",
"-464 -36 CURVE SMOOTH",
"-624 -36 OFFCURVE",
"-751 91 OFFCURVE",
"-751 251 CURVE SMOOTH"
);
},
{
closed = 1;
nodes = (
"-419 99 LINE",
"-409 99 LINE",
"-419 48 LINE",
"-256 48 LINE",
"-256 272 LINE",
"-419 272 LINE"
);
},
{
closed = 1;
nodes = (
"-256 272 LINE",
"-256 432 OFFCURVE",
"-320 483 OFFCURVE",
"-457 483 CURVE SMOOTH",
"-597 483 OFFCURVE",
"-662 416 OFFCURVE",
"-662 416 CURVE",
"-662 315 LINE",
"-521 315 LINE",
"-521 324 LINE SMOOTH",
"-521 331 OFFCURVE",
"-509 349 OFFCURVE",
"-473 349 CURVE SMOOTH",
"-433 349 OFFCURVE",
"-419 331 OFFCURVE",
"-419 272 CURVE"
);
},
{
closed = 1;
nodes = (
"-419 297 LINE",
"-598 297 OFFCURVE",
"-681 262 OFFCURVE",
"-681 157 CURVE SMOOTH",
"-681 82 OFFCURVE",
"-615 35 OFFCURVE",
"-533 35 CURVE SMOOTH",
"-471 35 OFFCURVE",
"-422 76 OFFCURVE",
"-409 99 CURVE",
"-419 99 LINE"
);
},
{
closed = 1;
nodes = (
"-419 216 LINE SMOOTH",
"-419 194 OFFCURVE",
"-424 166 OFFCURVE",
"-465 166 CURVE SMOOTH",
"-483 166 OFFCURVE",
"-504 171 OFFCURVE",
"-504 193 CURVE SMOOTH",
"-504 218 OFFCURVE",
"-471 225 OFFCURVE",
"-419 225 CURVE"
);
},
{
closed = 1;
nodes = (
"-361 48 LINE",
"-90 48 LINE",
"-90 180 LINE",
"-361 180 LINE"
);
},
{
closed = 1;
nodes = (
"86 -4 OFFCURVE",
"316 -234 OFFCURVE",
"599 -234 CURVE SMOOTH",
"702 -234 OFFCURVE",
"798 -203 OFFCURVE",
"879 -150 CURVE SMOOTH",
"1018 -60 OFFCURVE",
"1112 100 OFFCURVE",
"1112 279 CURVE SMOOTH",
"1112 562 OFFCURVE",
"882 790 OFFCURVE",
"599 790 CURVE SMOOTH",
"316 790 OFFCURVE",
"86 562 OFFCURVE",
"86 279 CURVE SMOOTH"
);
},
{
closed = 1;
nodes = (
"248 474 OFFCURVE",
"403 630 OFFCURVE",
"599 630 CURVE SMOOTH",
"794 630 OFFCURVE",
"950 474 OFFCURVE",
"950 279 CURVE SMOOTH",
"950 154 OFFCURVE",
"888 46 OFFCURVE",
"791 -16 CURVE SMOOTH",
"736 -51 OFFCURVE",
"670 -72 OFFCURVE",
"599 -72 CURVE SMOOTH",
"403 -72 OFFCURVE",
"248 84 OFFCURVE",
"248 279 CURVE SMOOTH"
);
},
{
closed = 1;
nodes = (
"-1596 505 OFFCURVE",
"-1699 375 OFFCURVE",
"-1720 251 CURVE SMOOTH",
"-1746 94 OFFCURVE",
"-1647 28 OFFCURVE",
"-1548 28 CURVE SMOOTH",
"-1484 28 OFFCURVE",
"-1428 73 OFFCURVE",
"-1414 99 CURVE",
"-1376 27 OFFCURVE",
"-1300 4 OFFCURVE",
"-1223 4 CURVE SMOOTH",
"-1101 4 OFFCURVE",
"-1005 98 OFFCURVE",
"-1005 251 CURVE SMOOTH",
"-1005 506 OFFCURVE",
"-1212 713 OFFCURVE",
"-1467 713 CURVE SMOOTH",
"-1722 713 OFFCURVE",
"-1929 506 OFFCURVE",
"-1929 251 CURVE SMOOTH",
"-1929 13 OFFCURVE",
"-1752 -181 OFFCURVE",
"-1537 -181 CURVE SMOOTH",
"-1469 -181 OFFCURVE",
"-1403 -161 OFFCURVE",
"-1366 -140 CURVE",
"-1366 17 LINE",
"-1465 17 LINE",
"-1465 -14 LINE",
"-1481 -30 OFFCURVE",
"-1513 -35 OFFCURVE",
"-1537 -35 CURVE SMOOTH",
"-1673 -35 OFFCURVE",
"-1783 93 OFFCURVE",
"-1783 251 CURVE SMOOTH",
"-1783 427 OFFCURVE",
"-1643 568 OFFCURVE",
"-1467 568 CURVE SMOOTH",
"-1291 568 OFFCURVE",
"-1150 427 OFFCURVE",
"-1150 251 CURVE SMOOTH",
"-1150 195 OFFCURVE",
"-1165 139 OFFCURVE",
"-1224 139 CURVE SMOOTH",
"-1280 139 OFFCURVE",
"-1290 179 OFFCURVE",
"-1263 324 CURVE",
"-1237 472 OFFCURVE",
"-1292 505 OFFCURVE",
"-1409 505 CURVE SMOOTH"
);
},
{
closed = 1;
nodes = (
"-1501 164 OFFCURVE",
"-1530 185 OFFCURVE",
"-1525 268 CURVE SMOOTH",
"-1522 312 OFFCURVE",
"-1497 397 OFFCURVE",
"-1443 397 CURVE SMOOTH",
"-1420 397 OFFCURVE",
"-1424 339 OFFCURVE",
"-1427 286 CURVE",
"-1432 225 OFFCURVE",
"-1441 164 OFFCURVE",
"-1480 164 CURVE SMOOTH"
);
},
{
closed = 1;
nodes = (
"-2446 46 OFFCURVE",
"-2380 -6 OFFCURVE",
"-2287 -6 CURVE SMOOTH",
"-2153 -6 OFFCURVE",
"-2042 118 OFFCURVE",
"-2042 285 CURVE SMOOTH",
"-2042 597 OFFCURVE",
"-2283 823 OFFCURVE",
"-2569 823 CURVE SMOOTH",
"-2867 823 OFFCURVE",
"-3108 582 OFFCURVE",
"-3108 285 CURVE SMOOTH",
"-3108 -18 OFFCURVE",
"-2861 -252 OFFCURVE",
"-2571 -252 CURVE SMOOTH",
"-2431 -252 OFFCURVE",
"-2341 -210 OFFCURVE",
"-2272 -165 CURVE",
"-2355 -32 LINE",
"-2423 -77 OFFCURVE",
"-2509 -96 OFFCURVE",
"-2560 -96 CURVE SMOOTH",
"-2783 -96 OFFCURVE",
"-2949 73 OFFCURVE",
"-2949 285 CURVE SMOOTH",
"-2949 496 OFFCURVE",
"-2781 667 OFFCURVE",
"-2569 667 CURVE SMOOTH",
"-2471 667 OFFCURVE",
"-2381 630 OFFCURVE",
"-2314 566 CURVE",
"-2464 566 LINE",
"-2470 539 LINE",
"-2484 554 OFFCURVE",
"-2516 576 OFFCURVE",
"-2577 576 CURVE SMOOTH",
"-2688 576 OFFCURVE",
"-2829 482 OFFCURVE",
"-2866 301 CURVE SMOOTH",
"-2896 154 OFFCURVE",
"-2827 21 OFFCURVE",
"-2685 21 CURVE SMOOTH",
"-2583 21 OFFCURVE",
"-2520 73 OFFCURVE",
"-2471 127 CURVE"
);
},
{
closed = 1;
nodes = (
"-2199 211 OFFCURVE",
"-2225 160 OFFCURVE",
"-2275 160 CURVE SMOOTH",
"-2331 160 OFFCURVE",
"-2348 210 OFFCURVE",
"-2318 355 CURVE SMOOTH",
"-2281 529 LINE",
"-2230 465 OFFCURVE",
"-2199 382 OFFCURVE",
"-2199 285 CURVE SMOOTH"
);
},
{
closed = 1;
nodes = (
"-2634 199 OFFCURVE",
"-2650 227 OFFCURVE",
"-2631 311 CURVE SMOOTH",
"-2613 392 OFFCURVE",
"-2574 432 OFFCURVE",
"-2538 432 CURVE SMOOTH",
"-2520 432 OFFCURVE",
"-2509 428 OFFCURVE",
"-2500 419 CURVE",
"-2537 255 LINE SMOOTH",
"-2547 211 OFFCURVE",
"-2574 199 OFFCURVE",
"-2594 199 CURVE SMOOTH"
);
},
{
closed = 1;
nodes = (
"1971 510 LINE",
"1896 544 OFFCURVE",
"1799 570 OFFCURVE",
"1715 570 CURVE SMOOTH",
"1528 570 OFFCURVE",
"1381 462 OFFCURVE",
"1381 235 CURVE SMOOTH",
"1381 82 OFFCURVE",
"1448 -14 OFFCURVE",
"1577 -14 CURVE SMOOTH",
"1662 -14 OFFCURVE",
"1716 36 OFFCURVE",
"1741 68 CURVE",
"1741 0 LINE",
"2015 0 LINE",
"2015 164 LINE",
"1971 164 LINE"
);
},
{
closed = 1;
nodes = (
"1625 308 LINE SMOOTH",
"1625 353 OFFCURVE",
"1645 392 OFFCURVE",
"1689 392 CURVE SMOOTH",
"1708 392 OFFCURVE",
"1730 387 OFFCURVE",
"1741 383 CURVE",
"1741 205 LINE",
"1727 185 OFFCURVE",
"1700 164 OFFCURVE",
"1671 164 CURVE SMOOTH",
"1643 164 OFFCURVE",
"1625 180 OFFCURVE",
"1625 218 CURVE SMOOTH"
);
},
{
closed = 1;
nodes = (
"2803 510 LINE",
"2728 544 OFFCURVE",
"2631 570 OFFCURVE",
"2547 570 CURVE SMOOTH",
"2360 570 OFFCURVE",
"2213 462 OFFCURVE",
"2213 235 CURVE SMOOTH",
"2213 82 OFFCURVE",
"2280 -14 OFFCURVE",
"2409 -14 CURVE SMOOTH",
"2501 -14 OFFCURVE",
"2566 46 OFFCURVE",
"2596 89 CURVE",
"2609 39 OFFCURVE",
"2651 -14 OFFCURVE",
"2731 -14 CURVE SMOOTH",
"2795 -14 OFFCURVE",
"2857 7 OFFCURVE",
"2857 7 CURVE",
"2857 164 LINE",
"2857 164 OFFCURVE",
"2838 159 OFFCURVE",
"2824 159 CURVE SMOOTH",
"2813 159 OFFCURVE",
"2803 166 OFFCURVE",
"2803 181 CURVE SMOOTH"
);
},
{
closed = 1;
nodes = (
"2457 308 LINE SMOOTH",
"2457 353 OFFCURVE",
"2481 392 OFFCURVE",
"2523 392 CURVE SMOOTH",
"2540 392 OFFCURVE",
"2562 387 OFFCURVE",
"2573 383 CURVE",
"2573 205 LINE",
"2559 185 OFFCURVE",
"2532 164 OFFCURVE",
"2503 164 CURVE SMOOTH",
"2475 164 OFFCURVE",
"2457 180 OFFCURVE",
"2457 218 CURVE SMOOTH"
);
}
);
};
layerId = UUID0;
paths = (
{
closed = 1;
nodes = (
"520 348 LINE SMOOTH",
"520 393 OFFCURVE",
"544 432 OFFCURVE",
"586 432 CURVE SMOOTH",
"604 432 OFFCURVE",
"625 428 OFFCURVE",
"636 425 CURVE",
"636 195 LINE",
"622 175 OFFCURVE",
"595 154 OFFCURVE",
"566 154 CURVE SMOOTH",
"538 154 OFFCURVE",
"520 170 OFFCURVE",
"520 208 CURVE SMOOTH"
);
},
{
closed = 1;
nodes = (
"699 -60 LINE",
"670 -70 OFFCURVE",
"596 -84 OFFCURVE",
"500 -84 CURVE SMOOTH",
"321 -84 OFFCURVE",
"194 0 OFFCURVE",
"194 229 CURVE SMOOTH",
"194 475 OFFCURVE",
"360 642 OFFCURVE",
"604 642 CURVE SMOOTH",
"823 642 OFFCURVE",
"950 545 OFFCURVE",
"950 341 CURVE SMOOTH",
"950 214 OFFCURVE",
"918 139 OFFCURVE",
"887 139 CURVE SMOOTH",
"876 139 OFFCURVE",
"866 146 OFFCURVE",
"866 161 CURVE SMOOTH",
"866 510 LINE",
"791 544 OFFCURVE",
"694 570 OFFCURVE",
"610 570 CURVE SMOOTH",
"423 570 OFFCURVE",
"276 462 OFFCURVE",
"276 235 CURVE SMOOTH",
"276 82 OFFCURVE",
"343 -14 OFFCURVE",
"472 -14 CURVE SMOOTH",
"564 -14 OFFCURVE",
"629 46 OFFCURVE",
"659 89 CURVE",
"672 39 OFFCURVE",
"714 -14 OFFCURVE",
"820 -14 CURVE SMOOTH",
"960 -14 OFFCURVE",
"1112 100 OFFCURVE",
"1112 363 CURVE SMOOTH",
"1112 624 OFFCURVE",
"928 792 OFFCURVE",
"625 792 CURVE SMOOTH",
"299 792 OFFCURVE",
"32 570 OFFCURVE",
"32 215 CURVE SMOOTH",
"32 -88 OFFCURVE",
"195 -236 OFFCURVE",
"484 -236 CURVE SMOOTH",
"575 -236 OFFCURVE",
"660 -218 OFFCURVE",
"699 -205 CURVE"
);
}
);
width = 1148;
}
);
unicode = 0040;
},
{
glyphname = asterisk;
lastChange = "2016-07-26 11:06:05 +0000";
layers = (
{
background = {
paths = (
{
closed = 1;
nodes = (
"436 431 LINE",
"547 351 LINE",
"592 425 LINE",
"592 425 LINE",
"637 351 LINE",
"747 431 LINE",
"689 496 LINE",
"775 517 LINE",
"733 647 LINE",
"652 612 LINE",
"660 700 LINE",
"524 700 LINE",
"532 612 LINE",
"451 647 LINE",
"409 517 LINE",
"494 496 LINE"
);
},
{
closed = 1;
nodes = (
"1062 700 LINE",
"931 700 LINE",
"931 666 LINE",
"939 606 LINE",
"939 606 LINE",
"885 633 LINE",
"853 643 LINE",
"813 518 LINE",
"844 508 LINE",
"904 498 LINE",
"862 454 LINE",
"842 427 LINE",
"948 350 LINE",
"968 377 LINE",
"997 430 LINE",
"1025 377 LINE",
"1045 350 LINE",
"1151 427 LINE",
"1131 454 LINE",
"1089 498 LINE",
"1149 508 LINE",
"1180 518 LINE",
"1140 643 LINE",
"1108 633 LINE",
"1054 606 LINE",
"1062 666 LINE"
);
}
);
};
layerId = UUID0;
paths = (
{
closed = 1;
nodes = (
"265 761 LINE",
"265 778 LINE",
"145 778 LINE",
"145 761 LINE",
"163 667 LINE",
"88 729 LINE",
"76 736 LINE",
"16 633 LINE",
"27 626 LINE",
"127 593 LINE",
"27 560 LINE",
"16 551 LINE",
"76 451 LINE",
"88 458 LINE",
"163 518 LINE",
"145 424 LINE",
"145 409 LINE",
"265 409 LINE",
"265 424 LINE",
"247 518 LINE",
"321 458 LINE",
"332 451 LINE",
"393 551 LINE",
"381 560 LINE",
"280 593 LINE",
"381 626 LINE",
"393 633 LINE",
"332 736 LINE",
"321 729 LINE",
"247 667 LINE"
);
}
);
width = 409;
}
);
unicode = 002A;
},
{
glyphname = copyright;
lastChange = "2016-08-04 07:40:04 +0000";
layers = (
{
layerId = UUID0;
paths = (
{
closed = 1;
nodes = (
"398 389 LINE SMOOTH",
"398 370 OFFCURVE",
"386 362 OFFCURVE",
"361 362 CURVE SMOOTH",
"337 362 OFFCURVE",
"325 370 OFFCURVE",
"325 389 CURVE SMOOTH",
"325 530 LINE SMOOTH",
"325 550 OFFCURVE",
"337 558 OFFCURVE",
"361 558 CURVE SMOOTH",
"386 558 OFFCURVE",
"398 550 OFFCURVE",
"398 530 CURVE SMOOTH",
"398 490 LINE",
"483 490 LINE",
"483 588 LINE",
"465 602 OFFCURVE",
"419 620 OFFCURVE",
"361 620 CURVE SMOOTH",
"270 620 OFFCURVE",
"213 574 OFFCURVE",
"213 460 CURVE SMOOTH",
"213 345 OFFCURVE",
"270 300 OFFCURVE",
"362 300 CURVE SMOOTH",
"419 300 OFFCURVE",
"465 318 OFFCURVE",
"483 331 CURVE",
"483 433 LINE",
"398 433 LINE"
);
},
{
closed = 1;
nodes = (
"30 269 OFFCURVE",
"173 126 OFFCURVE",
"363 126 CURVE SMOOTH",
"553 126 OFFCURVE",
"696 269 OFFCURVE",
"696 459 CURVE SMOOTH",
"696 649 OFFCURVE",
"553 792 OFFCURVE",
"363 792 CURVE SMOOTH",
"173 792 OFFCURVE",
"30 649 OFFCURVE",
"30 459 CURVE SMOOTH"
);
},
{
closed = 1;
nodes = (
"135 589 OFFCURVE",
"233 687 OFFCURVE",
"363 687 CURVE SMOOTH",
"493 687 OFFCURVE",
"591 589 OFFCURVE",
"591 459 CURVE SMOOTH",
"591 329 OFFCURVE",
"493 231 OFFCURVE",
"363 231 CURVE SMOOTH",
"233 231 OFFCURVE",
"135 329 OFFCURVE",
"135 459 CURVE SMOOTH"
);
}
);
width = 726;
},
{
anchors = (
{
name = bottom;
position = "{369, -1}";
}
);
associatedMasterId = UUID0;
layerId = "4E6680D8-7CFD-4532-8A77-155AB742F309";
name = "Regular Aug 4 16, 13:09";
paths = (
{
closed = 1;
nodes = (
"392 389 LINE SMOOTH",
"392 370 OFFCURVE",
"380 362 OFFCURVE",
"355 362 CURVE SMOOTH",
"331 362 OFFCURVE",
"319 370 OFFCURVE",
"319 389 CURVE SMOOTH",
"319 530 LINE SMOOTH",
"319 550 OFFCURVE",
"331 558 OFFCURVE",
"355 558 CURVE SMOOTH",
"380 558 OFFCURVE",
"392 550 OFFCURVE",
"392 530 CURVE SMOOTH",
"392 490 LINE",
"477 490 LINE",
"477 588 LINE",
"459 602 OFFCURVE",
"413 620 OFFCURVE",
"355 620 CURVE SMOOTH",
"264 620 OFFCURVE",
"207 574 OFFCURVE",
"207 460 CURVE SMOOTH",
"207 345 OFFCURVE",
"264 300 OFFCURVE",
"356 300 CURVE SMOOTH",
"413 300 OFFCURVE",
"459 318 OFFCURVE",
"477 331 CURVE",
"477 433 LINE",
"392 433 LINE"
);
},
{
closed = 1;
nodes = (
"24 459 LINE SMOOTH",
"24 275 OFFCURVE",
"173 126 OFFCURVE",
"357 126 CURVE SMOOTH",
"541 126 OFFCURVE",
"690 275 OFFCURVE",
"690 459 CURVE SMOOTH",
"690 643 OFFCURVE",
"541 792 OFFCURVE",
"357 792 CURVE SMOOTH",
"173 792 OFFCURVE",
"24 643 OFFCURVE",
"24 459 CURVE SMOOTH"
);
},
{
closed = 1;
nodes = (
"129 459 LINE SMOOTH",
"129 585 OFFCURVE",
"230 687 OFFCURVE",
"357 687 CURVE SMOOTH",
"483 687 OFFCURVE",
"585 585 OFFCURVE",
"585 459 CURVE SMOOTH",
"585 332 OFFCURVE",
"483 231 OFFCURVE",
"357 231 CURVE SMOOTH",
"230 231 OFFCURVE",
"129 332 OFFCURVE",
"129 459 CURVE SMOOTH"
);
}
);
width = 714;
visible = 1;
}
);
unicode = 00A9;
},
{
glyphname = registered;
lastChange = "2016-08-04 07:40:08 +0000";
layers = (
{
layerId = UUID0;
paths = (
{
closed = 1;
nodes = (
"346 436 LINE",
"380 436 OFFCURVE",
"404 432 OFFCURVE",
"404 398 CURVE SMOOTH",
"404 306 LINE",
"525 306 LINE",
"525 375 LINE",
"505 375 LINE",
"505 401 LINE SMOOTH",
"505 432 OFFCURVE",
"491 443 OFFCURVE",
"467 448 CURVE",
"467 452 LINE",
"493 465 OFFCURVE",
"507 489 OFFCURVE",
"507 527 CURVE SMOOTH",
"507 589 OFFCURVE",
"469 616 OFFCURVE",
"402 616 CURVE SMOOTH",
"217 616 LINE",
"217 546 LINE",
"244 546 LINE",
"244 375 LINE",
"217 375 LINE",
"217 306 LINE",
"372 306 LINE",
"372 375 LINE",
"346 375 LINE"
);
},
{
closed = 1;
nodes = (
"346 485 LINE",
"346 556 LINE",
"382 556 LINE SMOOTH",
"395 556 OFFCURVE",
"402 549 OFFCURVE",
"402 531 CURVE SMOOTH",
"402 510 LINE SMOOTH",
"402 491 OFFCURVE",
"395 485 OFFCURVE",
"382 485 CURVE SMOOTH"
);
},
{
closed = 1;
nodes = (
"30 269 OFFCURVE",
"173 126 OFFCURVE",
"363 126 CURVE SMOOTH",
"553 126 OFFCURVE",
"696 269 OFFCURVE",
"696 459 CURVE SMOOTH",
"696 649 OFFCURVE",
"553 792 OFFCURVE",
"363 792 CURVE SMOOTH",
"173 792 OFFCURVE",
"30 649 OFFCURVE",
"30 459 CURVE SMOOTH"
);
},
{
closed = 1;
nodes = (
"135 589 OFFCURVE",
"233 687 OFFCURVE",
"363 687 CURVE SMOOTH",
"493 687 OFFCURVE",
"591 589 OFFCURVE",
"591 459 CURVE SMOOTH",
"591 329 OFFCURVE",
"493 231 OFFCURVE",
"363 231 CURVE SMOOTH",
"233 231 OFFCURVE",
"135 329 OFFCURVE",
"135 459 CURVE SMOOTH"
);
}
);
width = 726;
},
{
associatedMasterId = UUID0;
layerId = "A940224B-ECF6-4A60-A3FE-C8DCEB208439";
name = "Regular Aug 4 16, 13:05";
paths = (
{
closed = 1;
nodes = (
"340 436 LINE",
"374 436 OFFCURVE",
"398 432 OFFCURVE",
"398 398 CURVE SMOOTH",
"398 306 LINE",
"519 306 LINE",
"519 375 LINE",
"499 375 LINE",
"499 401 LINE SMOOTH",
"499 432 OFFCURVE",
"485 443 OFFCURVE",
"461 448 CURVE",
"461 452 LINE",
"487 465 OFFCURVE",
"501 489 OFFCURVE",
"501 527 CURVE SMOOTH",
"501 589 OFFCURVE",
"463 616 OFFCURVE",
"396 616 CURVE SMOOTH",
"211 616 LINE",
"211 546 LINE",
"238 546 LINE",
"238 375 LINE",
"211 375 LINE",
"211 306 LINE",
"366 306 LINE",
"366 375 LINE",
"340 375 LINE"
);
},
{
closed = 1;
nodes = (
"340 485 LINE",
"340 556 LINE",
"376 556 LINE SMOOTH",
"389 556 OFFCURVE",
"396 549 OFFCURVE",
"396 531 CURVE SMOOTH",
"396 510 LINE SMOOTH",
"396 491 OFFCURVE",
"389 485 OFFCURVE",
"376 485 CURVE SMOOTH"
);
},
{
closed = 1;
nodes = (
"24 459 LINE SMOOTH",
"24 275 OFFCURVE",
"173 126 OFFCURVE",
"357 126 CURVE SMOOTH",
"541 126 OFFCURVE",
"690 275 OFFCURVE",
"690 459 CURVE SMOOTH",
"690 643 OFFCURVE",
"541 792 OFFCURVE",
"357 792 CURVE SMOOTH",
"173 792 OFFCURVE",
"24 643 OFFCURVE",
"24 459 CURVE SMOOTH"
);
},
{
closed = 1;
nodes = (
"129 459 LINE SMOOTH",
"129 585 OFFCURVE",
"230 687 OFFCURVE",
"357 687 CURVE SMOOTH",
"483 687 OFFCURVE",
"585 585 OFFCURVE",
"585 459 CURVE SMOOTH",
"585 332 OFFCURVE",
"483 231 OFFCURVE",
"357 231 CURVE SMOOTH",
"230 231 OFFCURVE",
"129 332 OFFCURVE",
"129 459 CURVE SMOOTH"
);
}
);
width = 714;
visible = 1;
}
);
unicode = 00AE;
},
{
color = 3;
glyphname = trademark;
lastChange = "2016-08-04 07:49:21 +0000";
layers = (
{
layerId = UUID0;
paths = (
{
closed = 1;
nodes = (
"97 699 LINE",
"128 699 LINE",
"128 482 LINE",
"95 482 LINE",
"95 403 LINE",
"297 403 LINE",
"297 482 LINE",
"263 482 LINE",
"263 699 LINE",
"294 699 LINE",
"294 778 LINE",
"97 778 LINE"
);
},
{
closed = 1;
nodes = (
"15 661 LINE",
"97 661 LINE",
"97 778 LINE",
"15 778 LINE"
);
},
{
closed = 1;
nodes = (
"294 661 LINE",
"377 661 LINE",
"377 778 LINE",
"294 778 LINE"
);
},
{
closed = 1;
nodes = (
"558 403 LINE",
"558 482 LINE",
"534 482 LINE",
"534 685 LINE",
"522 684 LINE",
"619 403 LINE",
"690 403 LINE",
"784 686 LINE",
"772 687 LINE",
"772 482 LINE",
"749 482 LINE",
"749 403 LINE",
"931 403 LINE",
"931 482 LINE",
"907 482 LINE",
"907 699 LINE",
"931 699 LINE",
"931 778 LINE",
"719 778 LINE",
"661 600 LINE",
"680 600 LINE",
"620 778 LINE",
"399 778 LINE",
"399 699 LINE",
"424 699 LINE",
"424 482 LINE",
"399 482 LINE",
"399 403 LINE"
);
}
);
width = 946;
},
{
associatedMasterId = UUID0;
components = (
{
name = T;
},
{
name = M;
transform = "{1, 0, 0, 1, 780, 0}";
}
);
layerId = "E5E05151-788A-49AA-8DF0-196976941A19";
name = "Regular Aug 4 16, 13:04";
width = 1923;
}
);
unicode = 2122;
},
{
glyphname = asciicircum;
lastChange = "2016-07-26 11:06:05 +0000";
layers = (
{
layerId = UUID0;
paths = (
{
closed = 1;
nodes = (
"273 522 LINE",
"399 522 LINE",
"399 537 LINE",
"282 778 LINE",
"131 778 LINE",
"14 537 LINE",
"14 522 LINE",
"140 522 LINE",
"202 664 LINE",
"211 664 LINE"
);
}
);
width = 413;
}
);
unicode = 005E;
},
{
glyphname = asciitilde;
lastChange = "2016-08-02 11:22:44 +0000";
layers = (
{
layerId = UUID0;
paths = (
{
closed = 1;
nodes = (
"83 299 LINE",
"83 313 OFFCURVE",
"98 336 OFFCURVE",
"153 336 CURVE SMOOTH",
"272 336 OFFCURVE",
"328 288 OFFCURVE",
"443 288 CURVE SMOOTH",
"579 288 OFFCURVE",
"588 397 OFFCURVE",
"588 470 CURVE",
"532 470 LINE",
"532 454 OFFCURVE",
"521 434 OFFCURVE",
"467 434 CURVE SMOOTH",
"352 434 OFFCURVE",
"294 481 OFFCURVE",
"182 481 CURVE SMOOTH",
"44 481 OFFCURVE",
"30 368 OFFCURVE",
"30 299 CURVE"
);
}
);
width = 618;
}
);
unicode = 007E;
},
{
glyphname = grave;
lastChange = "2016-08-02 11:29:42 +0000";
layers = (
{
layerId = UUID0;
paths = (
{
closed = 1;
nodes = (
"203 611 LINE",
"363 611 LINE",
"363 626 LINE",
"254 778 LINE",
"40 778 LINE",
"40 751 LINE"
);
}
);
width = 403;
}
);
unicode = 0060;
},
{
glyphname = acute;
lastChange = "2016-08-02 11:29:50 +0000";
layers = (
{
layerId = UUID0;
paths = (
{
closed = 1;
nodes = (
"363 751 LINE",
"363 778 LINE",
"149 778 LINE",
"40 626 LINE",
"40 611 LINE",
"200 611 LINE"
);
}
);
width = 403;
}
);
unicode = 00B4;
},
{
glyphname = circumflex;
lastChange = "2016-08-02 11:48:18 +0000";
layers = (
{
layerId = UUID0;
paths = (
{
closed = 1;
nodes = (
"324 611 LINE",
"474 611 LINE",
"474 626 LINE",
"356 778 LINE",
"158 778 LINE",
"40 626 LINE",
"40 611 LINE",
"190 611 LINE",
"252 676 LINE",
"262 676 LINE"
);
}
);
width = 514;
}
);
unicode = 02C6;
},
{
glyphname = caron;
lastChange = "2016-08-02 13:54:27 +0000";
layers = (
{
layerId = UUID0;
paths = (
{
closed = 1;
nodes = (
"252 713 LINE",
"190 778 LINE",
"40 778 LINE",
"40 763 LINE",
"158 611 LINE",
"356 611 LINE",
"474 763 LINE",
"474 778 LINE",
"324 778 LINE",
"262 713 LINE"
);
}
);
width = 511;
},
{
associatedMasterId = UUID0;
layerId = "43D4A61D-00F2-4839-A085-9E83C2D3780F";
name = "Regular Aug 2 16, 17:51";
paths = (
{
closed = 1;
nodes = (
"260 713 LINE",
"251 713 LINE",
"189 778 LINE",
"40 778 LINE",
"40 763 LINE",
"157 611 LINE",
"354 611 LINE",
"471 763 LINE",
"471 778 LINE",
"322 778 LINE"
);
}
);
width = 511;
visible = 1;
}
);
unicode = 02C7;
},
{
color = 3;
glyphname = caroncomb.alt;
lastChange = "2016-08-02 13:56:38 +0000";
layers = (
{
anchors = (
{
name = _top_right;
position = "{0, 723}";
}
);
layerId = UUID0;
paths = (
{
closed = 1;
nodes = (
"154 696 LINE",
"154 723 LINE",
"0 723 LINE",
"0 496 LINE",
"120 496 LINE"
);
}
);
width = 0;
}
);
},
{
glyphname = tilde;
lastChange = "2016-08-02 11:48:26 +0000";
layers = (
{
layerId = UUID0;
paths = (
{
closed = 1;
nodes = (
"96 622 LINE",
"96 644 OFFCURVE",
"113 659 OFFCURVE",
"138 659 CURVE SMOOTH",
"201 659 OFFCURVE",
"267 611 OFFCURVE",
"353 611 CURVE SMOOTH",
"450 611 OFFCURVE",
"466 679 OFFCURVE",
"466 782 CURVE",
"410 782 LINE",
"410 767 OFFCURVE",
"400 747 OFFCURVE",
"368 747 CURVE SMOOTH",
"301 747 OFFCURVE",
"246 793 OFFCURVE",
"160 793 CURVE SMOOTH",
"63 793 OFFCURVE",
"40 727 OFFCURVE",
"40 622 CURVE"
);
}
);
width = 506;
},
{
anchors = (
{
name = _top;
position = "{243, 614}";
}
);
associatedMasterId = UUID0;
layerId = "D5E91295-6E79-43B1-AF13-73393A0D9C06";
name = "Regular Aug 2 16, 17:13";
paths = (
{
closed = 1;
nodes = (
"97 622 LINE",
"97 637 OFFCURVE",
"109 659 OFFCURVE",
"136 659 CURVE SMOOTH",
"207 659 OFFCURVE",
"284 611 OFFCURVE",
"353 611 CURVE SMOOTH",
"450 611 OFFCURVE",
"466 679 OFFCURVE",
"466 782 CURVE",
"410 782 LINE",
"410 767 OFFCURVE",
"401 747 OFFCURVE",
"371 747 CURVE SMOOTH",
"303 747 OFFCURVE",
"236 793 OFFCURVE",
"161 793 CURVE SMOOTH",
"64 793 OFFCURVE",
"41 727 OFFCURVE",
"41 622 CURVE"
);
}
);
width = 497;
visible = 1;
}
);
unicode = 02DC;
},
{
glyphname = dieresis;
lastChange = "2016-08-02 12:09:49 +0000";
layers = (
{
layerId = UUID0;
paths = (
{
closed = 1;
nodes = (
"40 611 LINE",
"207 611 LINE",
"207 778 LINE",
"40 778 LINE"
);
},
{
closed = 1;
nodes = (
"296 611 LINE",
"462 611 LINE",
"462 778 LINE",
"296 778 LINE"
);
}
);
width = 502;
}
);
unicode = 00A8;
},
{
glyphname = macron;
lastChange = "2016-08-02 18:15:45 +0000";
layers = (
{
layerId = UUID0;
paths = (
{
closed = 1;
nodes = (
"40 640 LINE",
"398 640 LINE",
"398 758 LINE",
"40 758 LINE"
);
}
);
width = 438;
}
);
unicode = 00AF;
},
{
glyphname = apostrophemod;
lastChange = "2016-08-02 19:18:56 +0000";
layers = (
{
layerId = UUID0;
paths = (
{
closed = 1;
nodes = (
"60 424 LINE",
"101 424 LINE",
"69 311 LINE",
"155 311 LINE",
"210 424 LINE",
"210 556 LINE",
"60 556 LINE"
);
}
);
width = 270;
}
);
unicode = 02BC;
},
{
glyphname = breve;
lastChange = "2016-08-02 21:51:22 +0000";
layers = (
{
layerId = UUID0;
paths = (
{
closed = 1;
nodes = (
"40 665 OFFCURVE",
"119 603 OFFCURVE",
"252 603 CURVE SMOOTH",
"385 603 OFFCURVE",
"464 665 OFFCURVE",
"464 770 CURVE SMOOTH",
"464 780 LINE",
"315 780 LINE",
"315 770 LINE SMOOTH",
"315 726 OFFCURVE",
"294 705 OFFCURVE",
"252 705 CURVE SMOOTH",
"210 705 OFFCURVE",
"189 726 OFFCURVE",
"189 770 CURVE SMOOTH",
"189 780 LINE",
"40 780 LINE",
"40 770 LINE SMOOTH"
);
}
);
width = 504;
},
{
associatedMasterId = UUID0;
layerId = "D4C0DA00-B9A0-4CA9-B99A-15E181E7C42A";
name = "Regular Aug 2 16, 17:33";
paths = (
{
closed = 1;
nodes = (
"50 680 OFFCURVE",
"144 603 OFFCURVE",
"262 603 CURVE SMOOTH",
"378 603 OFFCURVE",
"474 682 OFFCURVE",
"474 780 CURVE",
"325 780 LINE",
"325 737 OFFCURVE",
"296 705 OFFCURVE",
"262 705 CURVE SMOOTH",
"227 705 OFFCURVE",
"199 737 OFFCURVE",
"199 780 CURVE",
"50 780 LINE"
);
}
);
width = 600;
},
{
associatedMasterId = UUID0;
layerId = "A74736CF-F3FA-40EC-8821-EFB64F8B6B83";
name = "Regular Aug 2 16, 17:36";
paths = (
{
closed = 1;
nodes = (
"40 663 OFFCURVE",
"117 603 OFFCURVE",
"247 603 CURVE SMOOTH",
"377 603 OFFCURVE",
"454 663 OFFCURVE",
"454 765 CURVE SMOOTH",
"454 775 LINE",
"315 775 LINE",
"315 767 LINE SMOOTH",
"315 734 OFFCURVE",
"290 715 OFFCURVE",
"247 715 CURVE SMOOTH",
"204 715 OFFCURVE",
"179 734 OFFCURVE",
"179 767 CURVE SMOOTH",
"179 775 LINE",
"40 775 LINE",
"40 765 LINE SMOOTH"
);
}
);
width = 494;
visible = 1;
}
);
unicode = 02D8;
},
